<?xml version="1.0" encoding="UTF-8" standalone="no"?>
<svg
   id="Layer_1"
   data-name="Layer 1"
   viewBox="0 0 860.05505 206.52"
   version="1.1"
   sodipodi:docname="aefeup.svg"
   width="860.05505"
   height="206.52"
   inkscape:version="1.4.3 (0d15f75042, 2025-12-25)"
   xmlns:inkscape="http://www.inkscape.org/namespaces/inkscape"
   xmlns:sodipodi="http://sodipodi.sourceforge.net/DTD/sodipodi-0.dtd"
   xmlns="http://www.w3.org/2000/svg"
   xmlns:svg="http://www.w3.org/2000/svg">
  <sodipodi:namedview
     id="namedview7"
     pagecolor="#ffffff"
     bordercolor="#999999"
     borderopacity="1"
     inkscape:showpageshadow="0"
     inkscape:pageopacity="0"
     inkscape:pagecheckerboard="0"
     inkscape:deskcolor="#d1d1d1"
     inkscape:zoom="1.2955556"
     inkscape:cx="432.63293"
     inkscape:cy="133.53345"
     inkscape:window-width="2560"
     inkscape:window-height="1368"
     inkscape:window-x="0"
     inkscape:window-y="0"
     inkscape:window-maximized="1"
     inkscape:current-layer="Layer_1" />
  <defs
     id="defs1">
    <style
       id="style1">
      .cls-1 {
        fill: #fff;
      }
    </style>
  </defs>
  <g
     id="g2"
     transform="translate(-17.794933,-316.68)">
    <path
       class="cls-1"
       d="m 592,447.17 0.04,-82.97 31.06,-0.12 0.3,69.64 c 0.03,7.95 9.39,14.51 16.92,14.89 11.96,0.6 22.31,0.49 34.5,0.2 6.76,-0.16 18.48,-4.75 18.58,-12.99 l 0.87,-71.83 30.8,0.04 0.38,70.53 c 0.04,7.61 8.49,11.85 14.55,14.14 l -0.09,31.3 -285.8,-0.02 c -7.14,0 -17.65,-5.58 -17.66,-13.13 l -0.13,-90.88 c 0,-4.98 7.76,-11.68 12.99,-11.68 l 112.25,0.08 c 5.91,0 13.09,7.73 13.24,12.58 0.5,16.1 0.52,30.18 0.04,46.35 -0.19,6.2 -8.08,13.46 -14.84,13.49 l -76,0.3 -9.17,0.06 0.14,-30.75 60.19,-0.35 c 3.08,-0.02 4.2,-5.16 3.57,-7.32 -0.79,-2.73 -3.33,-4.76 -6.73,-4.75 l -53.84,0.1 c -2.17,0 -5.11,3.32 -6.13,5.09 L 472,443.01 c 0,3.15 3.05,5.94 6.31,5.94 l 104.64,0.06 c 3.13,0 5.79,-0.52 9.05,-1.86 z"
       id="path1" />
    <path
       class="cls-1"
       d="m 838.29,411.94 c 3.05,-2.55 5.62,-5.34 5.85,-8.43 0.2,-2.69 -1.78,-9.2 -5.21,-9.32 L 780,393.97 c -5.02,-0.02 -6.96,3.36 -6.97,8.12 L 773,521.24 c -14.27,-0.94 -19.18,1.02 -30.99,-0.51 l 0.09,-139.62 c 0,-6.93 5.23,-14.26 11.1,-16.96 l 109.77,0.15 c 6.19,0 11.34,9.5 11.6,14.88 0.7,14.29 0.43,27.36 0.35,41.5 l -70.72,59.34 -29.27,-0.04 0.12,-30.93 19.32,-0.33 43.91,-36.78 z"
       id="path2" />
  </g>
  <g
     id="g7"
     transform="translate(-17.794933,-316.68)">
    <path
       d="m 450.05,481.8 c -9.72,0 -16.87,-10.25 -16.93,-17.47 l -0.19,-24.97 -49.01,-0.07 -0.05,83.91 h -35.86 c 0,0 -0.04,-83.47 -0.04,-83.47 -3.08,-0.32 -5.44,-0.71 -8.1,-0.71 l -141.81,0.16 c -9.66,0.01 -22.56,-2.88 -22.81,-14.34 l -0.6,-27.68 -12.47,-0.05 c -0.51,9.55 0.46,18.66 -0.59,27.59 -1.31,11.18 -13.06,14.51 -22.59,14.51 H 40.96 c -9.08,0 -21.66,-3.46 -22.37,-14.49 -1.05,-16.29 -1.1,-32.9 0.09,-49.35 0.61,-8.49 11.8,-14.01 19.82,-14.05 l 81.35,-0.4 c 1.62,-1.23 0.51,-6.85 -1.98,-6.85 l -99.85,-0.05 -0.03,-35.26 9.11,0.14 111.85,-0.08 c 9.34,0 20.62,3 22.5,13.76 1.57,8.97 -0.07,18.59 0.79,28.32 h 12.42 c 0,0 0.64,-27.82 0.64,-27.82 0.24,-10.55 12.65,-14.27 21.68,-14.27 l 99.04,-0.06 c 10.04,0 22,4.6 22.58,16.44 0.74,15.12 0.69,30.29 -0.02,45.75 -0.4,8.63 -9.96,15.75 -19.06,15.79 l -82.38,0.38 c -1.04,0 -1.44,3.21 -1.05,4.1 0.39,0.89 2.07,2.8 3.06,2.8 l 128.75,0.03 0.11,-21.24 78.81,-66.12 0.1,38.51 -43.15,36.36 0.39,12.46 48.82,0.03 c 0.05,-8.89 -0.17,-17.03 0.34,-25.95 0.55,-9.54 10.15,-16.82 20.08,-16.82 l 105.03,0.08 c 9.05,0 18.59,7.49 18.9,16.09 0.56,15.58 0.67,30.55 -0.04,45.81 -0.53,11.45 -12.36,16.08 -22.27,16.05 L 483,439.06 c -2.07,0 -5.46,0.46 -7.36,0.75 -0.87,0.49 -0.87,4.18 -0.15,5.18 0.83,1.16 3.39,2.02 5.56,2.02 l 103.88,0.02 c 3.2,0 5.09,-2.19 5.09,-4.96 l -0.03,-81.04 35.14,0.02 -0.15,67 c -0.02,10.36 7.05,17.82 17.53,18.48 10.48,0.66 21.92,0.91 33.11,0.02 7.54,-0.6 16.17,-6.44 16.19,-14.52 L 692,361.04 h 35.22 c 0,0 -0.11,9.05 -0.11,9.05 l -0.09,57.93 c -0.01,8.41 4.26,15.7 12.67,17.24 l 0.8,-67.53 c 0.13,-10.54 10.15,-16.74 19.43,-16.73 l 99.94,0.1 c 11.01,0.01 17.95,12.31 17.96,22.88 l 0.03,37.69 -72.36,60.64 h -30.38 c 0,0 -0.06,40.82 -0.06,40.82 h -35.31 c 0,0 -0.35,-41.05 -0.35,-41.05 L 450.05,481.83 Z M 123.64,361.47 c 12.49,0.75 24.46,0.74 36.25,-0.05 0.1,-9.62 0.39,-17.32 -0.25,-26.41 -0.48,-6.81 -8.46,-13.85 -16.01,-13.86 l -123.18,-0.2 c -0.6,10.91 -0.65,20.95 0.06,31.05 l 99.38,0.04 c 2.69,1.76 3.14,6.03 3.75,9.44 z m 299.78,-38.57 -72.57,60.92 c -1.16,7.76 -0.79,14.06 -0.15,22.3 l -8.83,-0.03 H 222.11 c -2.29,0 -5.29,0 -6.63,-0.97 -1.23,-0.89 -1.59,-4.04 -1.59,-6.06 l -0.07,-41.12 c 0,-3.36 1.42,-6.01 5.14,-6 l 57.77,0.2 c 3.4,0.01 3.99,5.91 3.05,8.09 -0.94,2.18 -3.77,3.79 -6.72,3.79 l -57.07,-0.05 v 30.04 c 0,0 86.1,-0.23 86.1,-0.23 5.37,-0.01 13.39,-6.42 13.61,-11.68 0.69,-16.83 0.82,-32.37 -0.19,-49.11 -0.4,-6.56 -10.2,-11.92 -16.47,-11.94 l -101.15,-0.18 c -7.59,-0.01 -20.34,3.66 -20.38,13.18 l -0.39,88.04 c -0.03,7.06 7.43,14.63 15.24,14.65 l 144.29,0.41 13.47,0.13 c 0.64,5.74 0.07,11.66 0.05,17.71 l -0.15,54.96 c 0,3.53 0.57,7.18 1.02,10.99 l 20.03,0.19 c 3.48,0.03 6.89,0.52 10.07,-1.12 l 0.11,-82.78 51.9,-0.24 0.23,-26.9 c 0,-0.76 -0.57,-2.55 -0.87,-3.02 -0.3,-0.47 -1.76,-0.93 -2.56,-0.92 l -48.47,0.14 -0.12,-16.17 42.67,-35.91 -0.61,-31.34 z M 273.9,361.04 c 2.24,0 4.04,-1.86 4.08,-3.52 0.03,-1.32 -2.26,-3.5 -3.89,-3.5 l -53.2,-0.03 c -1.6,0 -3.7,1.04 -4.41,2.01 -0.71,0.97 -0.45,4.87 0.91,4.99 l 56.52,0.05 z m -113.97,35.62 c -12.32,-0.92 -24.61,-0.98 -36.76,0.08 -0.31,3.46 -0.67,6.61 -1.88,8.08 -1.27,1.55 -5.21,1.33 -7.28,1.34 l -50.03,0.15 c -3.56,0.01 -6.86,-1.98 -7.74,-4.57 -0.79,-2.29 2.06,-7.55 5.29,-7.55 l 113.55,-0.23 -0.2,-29.96 -140.34,0.03 c -9.03,2.94 -14.52,8.91 -14.52,17.95 v 37.01 c 0,10.41 7.12,16.77 17.22,18.02 2.92,0.36 5.71,0.2 8.91,0.19 l 98.46,-0.44 c 6.98,-0.03 14.71,-7.36 15.07,-13.5 0.55,-9.34 0.34,-17.03 0.26,-26.59 z M 592,447.17 c -3.25,1.34 -5.91,1.86 -9.05,1.86 l -104.64,-0.06 c -3.26,0 -6.31,-2.79 -6.31,-5.94 l 0.03,-43.84 c 1.02,-1.77 3.95,-5.09 6.13,-5.09 L 532,394 c 3.4,0 5.95,2.03 6.73,4.75 0.62,2.16 -0.49,7.3 -3.57,7.32 l -60.19,0.35 -0.14,30.75 9.17,-0.06 76,-0.3 c 6.76,-0.03 14.65,-7.29 14.84,-13.49 0.48,-16.17 0.46,-30.26 -0.04,-46.35 -0.15,-4.85 -7.34,-12.58 -13.24,-12.58 l -112.25,-0.08 c -5.23,0 -13,6.7 -12.99,11.68 l 0.13,90.88 c 0.01,7.55 10.52,13.13 17.66,13.13 l 285.8,0.02 0.09,-31.3 c -6.05,-2.29 -14.51,-6.53 -14.55,-14.14 l -0.38,-70.53 -30.8,-0.04 -0.87,71.83 c -0.1,8.24 -11.82,12.83 -18.58,12.99 -12.18,0.29 -22.54,0.39 -34.5,-0.2 -7.53,-0.38 -16.88,-6.94 -16.92,-14.89 l -0.3,-69.64 -31.06,0.12 -0.04,82.97 z m 246.29,-35.23 -43.91,36.78 -19.32,0.33 -0.12,30.93 29.27,0.04 70.72,-59.34 c 0.08,-14.14 0.35,-27.21 -0.35,-41.5 -0.26,-5.37 -5.41,-14.87 -11.6,-14.88 l -109.77,-0.15 c -5.87,2.7 -11.1,10.03 -11.1,16.96 l -0.09,139.62 c 11.82,1.53 16.72,-0.43 30.99,0.51 l 0.03,-119.15 c 0,-4.76 1.95,-8.14 6.97,-8.12 l 58.93,0.22 c 3.43,0.12 5.41,6.63 5.21,9.32 -0.23,3.1 -2.8,5.88 -5.85,8.43 z m -720.8,-7.95 c 3.11,0 4.09,-5.99 2.24,-6.92 l -57.62,-0.04 c -1.28,0 -3.38,2.27 -3.31,3.41 0.07,1.14 2.1,3.53 3.26,3.53 h 55.44 z m 416.35,0.02 c 1.5,0 3.34,-3.12 2.92,-4.33 -0.36,-1.04 -2.43,-2.68 -3.65,-2.68 l -56.02,0.13 c -2.02,0 -2.96,6.71 -1.16,6.79 z m 259.7,42.05 46.47,-39.1 c 2.24,-1.88 1.15,-7.32 -0.5,-9.86 l -61.43,-0.05 c -1.1,0 -3.08,2.73 -3.08,4.03 l 0.14,45.24 c 6.43,0.65 12.61,1.29 18.41,-0.26 z"
       id="path3" />
    <path
       class="cls-1"
       d="m 423.42,322.9 0.61,31.34 -42.67,35.91 0.12,16.17 48.47,-0.14 c 0.79,0 2.25,0.45 2.56,0.92 0.31,0.47 0.88,2.26 0.87,3.02 l -0.23,26.9 -51.9,0.24 -0.11,82.78 c -3.18,1.65 -6.59,1.16 -10.07,1.12 l -20.03,-0.19 c -0.45,-3.81 -1.03,-7.45 -1.02,-10.99 l 0.15,-54.96 c 0.02,-6.05 0.59,-11.96 -0.05,-17.71 l -13.47,-0.13 -144.29,-0.41 c -7.81,-0.02 -15.27,-7.59 -15.24,-14.65 l 0.39,-88.04 c 0.04,-9.52 12.79,-13.19 20.38,-13.18 l 101.15,0.18 c 6.27,0.01 16.08,5.38 16.47,11.94 1.01,16.74 0.88,32.28 0.19,49.11 -0.22,5.26 -8.24,11.66 -13.61,11.68 l -86.11,0.23 V 364 c 0,0 57.08,0.05 57.08,0.05 2.95,0 5.81,-1.65 6.72,-3.79 0.91,-2.14 0.35,-8.08 -3.05,-8.09 l -57.77,-0.2 c -3.72,-0.01 -5.15,2.64 -5.14,6 l 0.07,41.12 c 0,2.02 0.36,5.17 1.59,6.06 1.34,0.97 4.34,0.96 6.63,0.96 h 119.76 c 0,0 8.83,0.04 8.83,0.04 -0.64,-8.24 -1.02,-14.54 0.15,-22.3 l 72.57,-60.92 z"
       id="path4" />
    <g
       id="g6">
      <path
         class="cls-1"
         d="m 159.93,396.66 c 0.07,9.56 0.28,17.25 -0.26,26.59 -0.36,6.14 -8.09,13.47 -15.07,13.5 l -98.46,0.44 c -3.2,0.01 -5.99,0.17 -8.91,-0.19 -10.11,-1.25 -17.22,-7.61 -17.22,-18.02 v -37.01 c 0,-9.05 5.49,-15.02 14.52,-17.95 l 140.34,-0.03 0.2,29.96 -113.55,0.23 c -3.23,0 -6.07,5.26 -5.29,7.55 0.89,2.59 4.18,4.58 7.74,4.57 L 114,406.15 c 2.07,0 6.01,0.21 7.28,-1.34 1.27,-1.55 1.57,-4.62 1.88,-8.08 12.15,-1.06 24.43,-1 36.76,-0.08 z"
         id="path5" />
      <path
         class="cls-1"
         d="m 123.64,361.47 c -0.61,-3.41 -1.06,-7.68 -3.75,-9.44 l -99.38,-0.04 c -0.71,-10.1 -0.66,-20.13 -0.06,-31.05 l 123.18,0.2 c 7.55,0.01 15.52,7.05 16.01,13.86 0.64,9.09 0.35,16.79 0.25,26.41 -11.79,0.78 -23.75,0.79 -36.25,0.05 z"
         id="path6" />
    </g>
  </g>
</svg>
