<?xml version="1.0" encoding="UTF-8" standalone="no"?>
<svg
   id="Layer_1"
   data-name="Layer 1"
   viewBox="0 0 564.12769 401.99719"
   version="1.1"
   sodipodi:docname="apraxe.svg"
   width="564.12769"
   height="401.99719"
   inkscape:version="1.4.3 (0d15f75042, 2025-12-25)"
   xmlns:inkscape="http://www.inkscape.org/namespaces/inkscape"
   xmlns:sodipodi="http://sodipodi.sourceforge.net/DTD/sodipodi-0.dtd"
   xmlns="http://www.w3.org/2000/svg"
   xmlns:svg="http://www.w3.org/2000/svg">
  <sodipodi:namedview
     id="namedview32"
     pagecolor="#000000"
     bordercolor="#999999"
     borderopacity="1"
     inkscape:showpageshadow="0"
     inkscape:pageopacity="0"
     inkscape:pagecheckerboard="0"
     inkscape:deskcolor="#d1d1d1"
     inkscape:zoom="0.8108484"
     inkscape:cx="2.4665523"
     inkscape:cy="147.99314"
     inkscape:window-width="2560"
     inkscape:window-height="1368"
     inkscape:window-x="0"
     inkscape:window-y="0"
     inkscape:window-maximized="1"
     inkscape:current-layer="Layer_1" />
  <defs
     id="defs1">
    <style
       id="style1">
      .cls-1 {
        fill: #fff;
      }
    </style>
  </defs>
  <path
     class="cls-1"
     d="m 295.92389,212.98332 -0.05,12.94 c 0,1.08 2.49,2.14 3.95,2.94 l -8.62,0.03 c 3.14,-0.57 3.18,-16.31 -0.01,-16.68 3.59,-0.35 8.83,-0.53 12.98,1.7 2.33,1.25 2.99,5.79 2.46,8.07 -0.64,2.75 -2.49,5.45 -5.81,5.97 3.68,-3.85 3.97,-10.13 0.84,-13.62 -0.87,-0.97 -3.22,-1.26 -5.74,-1.35 z"
     id="path1" />
  <path
     class="cls-1"
     d="m 318.93389,222.59332 -3.8,-1.65 c -0.72,-0.31 -1.33,1.92 -1.43,3.17 -0.15,1.85 1.03,4.3 2.62,4.12 1.49,-0.17 2.88,-1.35 4.36,-3.02 l 0.18,3.85 -11.74,-0.11 c 2.92,-0.47 3.29,-15.66 0.15,-16.83 l 10.5,-0.1 -0.14,4.04 -1.83,-2.57 c -0.48,-0.67 -2.99,-1.04 -3.48,-0.37 -1.05,1.44 -0.52,7.82 0.89,7.05 l 3.49,-1.9 0.2,4.32 z"
     id="path2" />
  <path
     class="cls-1"
     d="m 326.37389,215.82332 -0.98,8.34 c -0.17,1.44 1.25,3.52 2.31,4.74 l -5.47,-0.02 c 3.08,-0.41 3.57,-15.5 1.25,-16.81 -0.11,0 2.94,0.16 4.13,0.22 l 4.24,9.76 c 0.35,0.81 2.38,2.56 1.89,3.26 l -2.16,3.04 -5.2,-12.54 z"
     id="path3" />
  <path
     class="cls-1"
     d="m 249.08389,228.85332 c 1.06,-1.65 1.98,-3.26 1.46,-4.06 -0.62,-0.96 -2.84,-1.54 -5.35,-2.23 l 3.91,-1.35 c -1.37,-3.36 -1.92,-6.13 0.18,-9 l 6.73,16.58 -6.94,0.06 z"
     id="path4" />
  <path
     class="cls-1"
     d="m 379.23389,228.82332 c 0.08,-1.08 0.79,-3.9 -0.12,-4.62 -0.91,-0.72 -3.02,-1.11 -5.22,-1.7 l 4.4,-1.24 c -1.68,-3.62 -2.67,-6.18 0.11,-8.9 l 5,13.04 c 0.36,0.93 1.66,2.55 2.44,3.59 l -6.62,-0.17 z"
     id="path5" />
  <path
     class="cls-1"
     d="m 283.18389,228.86332 c 0.1,-1.09 0.77,-3.88 -0.06,-4.6 -0.98,-0.84 -3.21,-1.23 -5.18,-1.8 l 3.42,-0.78 c 2.58,-0.59 -3.68,-5.6 1.07,-9.16 l 6.77,16.5 -6.01,-0.15 z"
     id="path6" />
  <path
     class="cls-1"
     d="m 342.19389,212.20332 c -2.15,1.81 -1.87,15.86 0.33,16.79 l -6.44,-0.26 c 4.48,-4.11 1.88,-10.44 1.39,-14.99 -0.05,-1.52 4.82,-2.29 4.72,-1.54 z"
     id="path7" />
  <path
     class="cls-1"
     d="m 351.17389,228.92332 -5.95,0.02 c 2.94,-0.7 3.22,-15.53 0.17,-16.84 h 5.98 c -2.08,-0.15 -2.21,15.97 -0.2,16.83 z"
     id="path8" />
  <path
     class="cls-1"
     d="m 264.37389,227.34332 c 0.79,0.59 3.87,1.02 4.48,0.27 l 2.83,-3.49 c 0.13,0.86 0.48,3.45 -0.28,3.82 -0.95,0.46 -3.18,1.02 -4.38,1.02 -4.73,0.01 -8.17,-2.63 -8.89,-6.71 -0.72,-4.08 1.43,-8.95 6.61,-9.2 -2.04,1.89 -3.62,4.05 -3.87,6.49 -0.25,2.44 1.55,6.36 3.48,7.79 z"
     id="path9" />
  <path
     class="cls-1"
     d="m 360.33389,227.33332 c 0.81,0.59 3.9,1.04 4.52,0.28 l 2.82,-3.48 c 0.14,0.87 0.51,3.45 -0.25,3.79 -0.76,0.34 -2.6,0.87 -3.5,0.94 -5.02,0.42 -8.99,-2.17 -9.79,-6.63 -0.71,-3.93 1.48,-9.11 6.63,-9.2 -2.07,1.94 -3.66,4.04 -3.88,6.53 -0.22,2.49 1.47,6.33 3.45,7.77 z"
     id="path10" />
  <g
     id="g23"
     transform="translate(-104.11611,-164.98668)">
    <path
       class="cls-1"
       d="m 170.24,444.89 -5.25,9.25 c -0.69,1.21 2.53,4.1 3.92,3.93 1.56,-0.19 3.66,-0.74 5.59,-1.34 l 2.9,-0.9 c 1.41,-0.44 2.72,3.57 1.95,7.19 -0.26,1.2 -4.27,1.24 -5.58,0.53 -8.45,-4.6 -13.21,-4.17 -13.49,-8.23 -0.1,-1.43 1.81,-3.55 3.81,-5.04 -7.9,-12.53 -0.51,-31.52 5.62,-44.73 2.1,-4.52 1.41,-10.19 -3.63,-12.62 l -5.98,-0.02 c 0.81,-1.17 2.14,-3.26 1.49,-4.14 -0.76,-1.02 -3.12,-1.52 -5.63,-2.24 l 4.23,-1.3 c -1.26,-3.49 -1.81,-6.42 0.3,-9.03 l 6.46,16.17 c -1.6,-10.32 -3.88,-17.6 0.78,-28.35 l -22.62,-0.28 c -0.82,-0.01 -2.72,-1.3 -2.68,-1.95 0.06,-0.8 1.09,-1.65 2.01,-1.99 l 2.92,-1.06 c 0.76,-0.28 0.93,-2.78 0.64,-3.6 l -4.47,-12.85 -19.48,-0.05 -3.9,11.7 c -0.3,0.9 -0.46,3.7 0.25,4.08 l 3.63,1.91 2.53,1.33 c 0.55,0.29 -1.03,2.49 -1.85,2.5 l -17.65,0.06 c -1.17,0 -2.7,-0.62 -2.86,-1.31 -0.97,-4.33 6.73,-0.87 9.8,-8.83 l 19.7,-51.07 c 0.77,-1.98 4.37,-5.75 6.1,-3.64 l 20.19,55.78 c 1.16,3.21 5.39,5.59 8.49,4.63 5.68,-11.8 14.84,-21.65 25.79,-28.79 0.54,0.8 1.37,2.46 2.29,2.36 l 5.37,-0.56 -7.98,8.69 c -3.26,3.55 -6.72,7.28 -10.92,9.93 -3.28,2.06 -9.22,4.68 -7.62,9.84 1.13,3.65 2.02,6.87 2.85,11.96 2.66,2.73 9.64,-8.63 10.05,-3.69 0.5,5.88 -1.19,1.64 -2.15,11.08 -0.14,1.41 3.99,1.05 4.88,-0.11 2.31,-3.06 7.16,-7.66 10.75,-5.92 3.59,1.74 2.05,8.13 1.54,11.15 l -2.63,15.54 -2.41,10.73 c -0.93,4.16 -0.16,7.56 1.32,11.72 1.21,3.4 -2.32,7.66 -3.2,11.16 -1.26,4.98 0.81,10.36 1.41,15.74 -2.14,10.08 -8.05,11.59 -2.38,18.1 2.01,2.31 6.14,2.76 8.58,0.78 8.54,-6.92 14.72,-2.51 10.9,-8.94 l -1.73,-2.91 c -0.47,-0.8 0.94,-2.6 1.93,-3.98 -4.24,-6.39 -7.32,-14.03 -8.72,-21.74 3.1,0.91 5.3,1.41 6.47,0.66 -6.48,-5.78 -8.01,-11.17 -3.89,-18.36 0.84,-1.47 2.31,-3.69 3.6,-3.92 1.89,-0.34 4.12,1.43 5.39,3.11 2.69,3.56 6.95,6.97 6.45,11.87 -0.21,2.06 -2.4,5.98 -2.27,7.99 l 0.87,13.21 c 0.2,3.03 0.75,6.1 1.26,9.25 0.51,3.15 -2.21,11.55 3.82,11.6 6.37,0.06 9.43,-20.86 9.15,-25.93 -0.93,-16.63 -4.18,-32.31 -10.48,-47.62 -1.53,-3.73 -2.21,-9.07 -5.32,-11.77 -2.42,-2.1 -5.92,-3.91 -6.94,-7.01 l -4.13,-12.54 -5.61,-0.11 c -1.27,-0.03 -4.03,-0.5 -4.62,-1.5 -1.58,-2.68 -1.39,-20.07 12.22,-24.54 1.09,-0.36 1.2,3.26 1.1,4.4 l -0.24,2.79 c -0.18,2.06 9.78,-1.29 13.95,0.14 l -6.85,9.61 c 6.52,1.56 10.76,-8.51 21.87,-8.04 l -5.11,3.82 8.95,-0.37 c 1.16,-0.05 3.53,-1.06 3.83,-2.05 1.38,-4.57 -3.66,-6.62 -0.65,-9.82 7.86,10.69 -0.66,8.7 11.1,25.34 -2.18,-0.14 -10.95,-13.29 -16.68,-7.41 -1.17,1.2 -2.07,4.52 -1.85,6.43 0.78,6.78 5.18,10.21 12.32,9.48 -1.95,10.81 -3.37,22.61 -7.65,32.45 -0.86,1.97 -2.79,3.77 -2.32,5.4 0.87,3 2.71,3.71 5.75,3.97 l 22.19,1.95 c 10.49,0.92 11.29,5.43 12.52,2.02 0.27,-0.75 0.25,-2.55 -0.1,-3.32 l -3.02,-6.86 c 2.34,-10.08 2.95,-19.84 2.38,-30.07 -0.13,-2.34 -0.55,-5.46 -0.53,-7.82 0.32,-30.2 -9.52,-58.14 -29.16,-80.83 -2.25,-2.6 -3.49,-6.64 -3.36,-10.24 l 11.57,16.66 8.74,11.88 c 11.49,-10.87 19.66,-23.43 25.35,-38.07 3.34,-8.6 2.41,-18.78 7.74,-15.78 -2.03,9.73 -5.46,18.11 -10.38,27.93 l 14.29,0.66 7.33,-19.15 -4.56,-6.01 c 9.51,1.92 28.13,9.87 35.54,16.25 l 1.97,9.19 c -4.65,-8.5 -10.77,-13.69 -19.98,-16.22 -1.89,-0.52 -6.27,-2.15 -7.68,-0.78 -6.65,6.52 -6.12,17.21 -12,22.57 -3.71,-0.76 -6.83,-1.32 -9.34,-1.2 0.12,4.36 2.62,5.87 6.54,7.56 l -7.59,8.92 c -6.18,7.26 -11.07,15.69 -16.29,23.53 1.93,4.98 2.52,9.95 2.92,15.2 l 1.07,14 c 1.08,14.06 1.16,27.79 0.55,41.74 -0.26,5.83 -2.11,10.73 0.34,17.21 l 14.84,-16.95 c -4.68,-3.5 -4.59,-7.95 -1.82,-12.35 1.51,-2.41 0.23,-7.18 4.73,-7.47 -2.58,6.07 -6.35,11.67 -3.06,18.22 l 6.86,3.16 -15.33,17.74 c 8.11,-0.08 14.13,-0.85 20.94,-2.1 l 16.15,-2.98 c 1.97,-0.36 4.48,2.86 3.48,4.35 -4.59,-0.43 -9.36,-0.73 -13.92,0 l -21.86,3.48 c -2.01,0.32 -5.48,0.06 -7.71,0.13 l -27.95,32.01 -11.08,13.06 c -0.59,9.53 -0.67,18.95 -2.11,28.23 -1.74,11.22 -1.45,20.02 6.63,30.25 -6.62,4.16 -13.88,8.59 -19.48,14.86 7.28,0.68 11.66,-4.69 18.12,-1.17 l -17.58,4.37 c -2.23,0.55 -6.43,1.97 -8.72,3.5 -3.44,2.3 -19.25,16.32 -14.6,19.72 1.05,0.77 4.01,1.83 5.64,1.64 21.25,-2.47 42.35,-11.43 58.56,-24.34 1.07,-0.85 2.23,-3.02 2.54,-3.87 0.31,-0.85 -2.03,-2.04 -2.94,-2.2 -3.23,-0.11 -7.12,1.57 -9.81,-0.74 12.96,1.82 17.97,-11.41 18.14,-7.41 l 0.14,3.28 c 4.54,12.64 17.88,21.17 30,26.96 9.38,4.48 18.66,6.9 29.34,6.67 1.68,-0.04 4.53,-1.39 4.87,-2.76 1.5,-6.13 -9.83,-15.45 -14.98,-19.35 -10.15,-7.7 -26.57,-2.54 -37.68,-7.16 6.85,-0.79 13.21,-1.35 19.72,-0.38 l 15.82,2.37 c 1.55,0.23 5.42,-2.3 5.42,-3.33 -2.21,-1.84 -4.2,-2.81 -5.28,-5.05 l 7.14,4.44 c 0.98,0.61 0.93,3.98 0,4.55 l -4.44,2.69 c 5.06,3.01 24.9,18.81 19.32,23.93 -3.26,3 -8.45,4.27 -12.99,3.76 -21.49,-2.43 -40.62,-12.85 -54.97,-28.87 -2.58,-0.01 -4.91,1.66 -6.84,3.37 -10.71,9.43 -23.15,16.59 -36.68,21.17 -7.97,2.7 -29.25,8.68 -33.78,0.23 -3.24,-6.05 11.78,-16.35 15.09,-20.05 l -1.15,-2.17 c -0.28,-0.53 0.87,-2.02 1.34,-2.38 l 14.64,-11.19 c 5.51,-4.21 6.05,-8.66 4.92,-15.26 -1.62,-9.42 1.6,-16.7 -0.88,-24.79 l -15.97,2.71 -26.31,29.01 c 0.06,-0.07 -10.37,11.86 -9.91,6.5 0.06,-0.67 0.49,-2.05 0.96,-2.59 l 29.65,-33.68 -3.44,-2.87 -1.57,-12.97 c -0.11,-0.87 -0.97,-2.86 -1.81,-2.95 -10.71,-1.09 1.32,8.97 -1.6,16.68 -0.57,0.57 -3.46,-0.55 -3.87,-1.8 -1.19,-3.66 -7.12,-1.6 -9.48,-2.87 l -13.06,-7.04 c -4.52,-12.54 0.25,-15.81 -7.54,-24.62 -1.38,-1.56 -3.46,-6.16 -2.17,-7.63 l 2.33,-2.65 c 0.59,-0.67 -0.83,-2.43 -1.52,-3.35 l -1.8,-2.4 c -0.47,-0.63 1.21,-2.28 2.02,-2.53 10.27,-3.15 1.86,-13.74 4.48,-22.29 l 8.97,-7.99 c 1.35,-1.21 -1.8,-4.6 -3.26,-4.99 -9.26,-2.46 -16.24,15.23 -15.51,26.51 0.91,14.04 -7.17,16.81 -8.03,23.78 2.47,-1.07 2.57,-1.29 5.01,-1.88 z M 280.57,317.64 c 7.96,-7.83 22.39,-26.83 11.84,-35.08 -5.77,9.67 -11.72,16.99 -19.71,24.41 l 7.86,10.67 z m -138.78,19.2 -7.86,-22.46 -8.33,22.64 z m 92.07,12.41 c -3.76,2.43 -9.99,5.41 -10.57,10.98 0.11,2.49 19.68,-16.86 10.57,-10.98 z m 9.19,52.48 c 0.84,-7.07 -3.41,-11.99 -6.32,-17.4 l -12.79,-18.82 c -1.36,2.1 -0.69,4.3 0.63,5.94 7.57,9.4 12.71,19.15 18.48,30.27 z m 21.7,37.45 16.99,-20.56 C 267,415.49 258.6,417.37 246.9,414.21 l 2.75,16.93 1.96,22.65 c 5.58,-4.81 8.85,-9.43 13.14,-14.62 z"
       id="path11" />
    <path
       class="cls-1"
       d="m 215.39,334.52 7.23,-6.98 c -7.62,-4.53 -14.95,1.59 -23.09,0.28 -1.67,-0.27 -1.27,-5.1 -1.55,-6.78 -2.5,-14.94 -4.29,-29.5 -1.22,-44.35 7.33,-5.87 16.33,-10.39 24.14,-15.71 3.46,-2.36 6.76,-4.89 10.8,-6.15 l 19.06,-5.92 c 2.69,-0.83 4.7,-1.82 7.24,-3.25 7.32,4.87 21.86,5.27 26.73,-2.91 4.36,-7.32 5.79,-15.65 7.48,-24.05 l -42.37,0.17 c 0.1,9.23 3.47,16.68 7.38,25.66 -2.5,-0.17 -3.59,-2.54 -5.01,-4.61 -4.67,-6.8 -8.7,-13.23 -11,-21.68 l -12.81,-1.95 c -4.64,-0.71 -11.53,-2.42 -13.97,-6.49 -1.01,-4.18 4.96,-4.64 7.69,-4.03 l 16.78,3.75 c -1.44,-19.09 2.54,-20.2 2.49,-37.4 2.71,-3.66 15.46,-5.23 16.62,-0.61 0.71,2.81 -7.74,1.94 -11,5.01 l 0.13,31.85 c 0,1.17 2.9,2.96 4.12,2.97 l 39.68,0.16 c 1.7,-2.56 1.86,-5.68 1.51,-8.56 l -1.03,-8.31 c -0.16,-1.3 -3.68,-2.47 -5.1,-2.44 -4.66,0.08 -2.07,7.94 -17.97,3.54 l 11.76,-3.09 -14.22,-1.96 c 5.03,-4.48 14.28,-0.22 21.2,-1.63 -0.25,-2.13 -1.83,-5.38 -3.39,-5.6 l -16.27,0.46 c -0.43,0.01 -1.82,-1.46 -1.57,-1.68 2.28,-2.07 8.69,-0.07 18.43,-2.38 0.86,-0.2 0.97,-3.56 0.22,-3.87 -5.66,-2.36 -12.8,3.1 -18.75,-0.77 l 13.98,-2.15 c 0.86,-0.13 2.63,-1.27 3.21,-1.72 0.73,-0.56 -2.1,-2.98 -3.21,-2.85 l -15.22,1.85 c -1.83,0.22 -3.5,-0.53 -4.37,-2.34 10.56,-2.73 20.52,-3.88 31.53,-2.29 4.15,1.72 7.57,20.44 7.98,24.36 0.71,6.74 0.38,12.89 0.55,20.18 l 22.23,-2.55 2.94,-0.42 c 0.58,-0.08 0.55,2.26 0.17,2.92 -6.7,11.53 -21.46,5.4 -25.3,8.25 -1.21,0.89 -1.93,3.5 -2.23,5.54 -2.37,15.68 -9.75,13.9 -6.32,23.16 -2.1,0.08 -13.48,4.97 -12.97,7.54 1.35,2.25 3.58,4.92 3.48,6.7 -0.19,3.39 -5.93,7.81 -7.83,8.48 -2.96,1.04 -8.87,-5.88 -10.48,-8.54 l 3.88,-7.23 -9.34,-4.75 c -3.36,-1.71 -10.14,0.36 -11.1,4.81 -1.82,8.49 5.81,15 0.39,16.6 l -4.77,-11.56 c -0.53,-1.28 -2.97,-3.29 -4.14,-3.73 -2.47,-0.94 -8.65,3.16 -10.17,4.9 -1.03,1.18 -0.52,4.93 0.22,6.65 l 5.28,12.26 c 0.43,1 -0.88,3.41 -1.84,3.58 -4.09,0.72 -1.94,-8.86 -6.77,-17.13 -3.44,-5.9 -21.22,9.39 -23.29,12.52 -5.96,13.66 -3.65,28.83 -2.77,43.32 0.12,2.01 -0.25,4.72 1.2,5.67 8.82,-4.73 17.4,-6.73 27.94,-6.06 0.58,-2.32 0.65,-5.23 0.37,-8.74 l -5.86,4.16 c -0.41,-0.75 -1.16,-2.42 -1.04,-3.14 0.15,-0.9 1.34,-2.14 2.26,-2.94 l 4.16,-3.63 -4.53,-9.61 c 1.66,-0.03 4.01,0.15 4.86,0.75 l 9.43,6.58 c -2.68,6.21 -5.02,12.32 -5.45,17.75 l 14.83,12.06 -6.46,5.62 c -0.94,0.82 -4,1.15 -4.86,0.4 -3.65,-3.16 0.5,-6.38 -2.45,-9.59 -0.85,-0.93 -3.46,-1.71 -4.84,-1.22 l -13.65,4.86 z"
       id="path12" />
    <path
       class="cls-1"
       d="m 287.17,471.2 c -0.16,23.68 9.06,20.17 0.07,50.78 -0.23,0.79 -2.13,3.08 -2.77,2.62 -5.13,-3.72 -2.6,-25.59 -1.71,-32.52 2.69,-20.84 1.85,-43.56 1.57,-63.08 0,-0.59 1.24,-2.4 1.3,-2.08 1.89,9.46 1.7,19.72 1.63,30.08 l -0.1,14.21 z"
       id="path13" />
    <path
       class="cls-1"
       d="m 341.35,324.41 c 3.59,8.97 20.71,3.78 6.94,7.47 -4.02,1.08 -7.18,2.95 -9.45,6.08 l -12.6,17.39 c -2.46,3.4 -5.4,6.39 -8.96,9.94 2.34,-8.11 7.42,-13.96 12.48,-21.12 l -2.14,-6.4 0.83,-11.53 c -7,-1.02 -6.52,2.24 -11.44,1.34 -5.78,-1.07 12.71,-18.6 16.79,-17.56 l -9.49,11.06 c -0.14,0.75 0.84,2.49 1.09,1.57 l 3.36,-2.46 c 5.81,-4.26 0.47,17.36 2.47,20.49 4.03,-3.14 6.75,-6.48 8.63,-9.53 l -5.49,-9.58 c -1.28,-2.24 -1.9,-5.77 -0.61,-7.92 4.94,1.77 6.01,6.82 7.59,10.78 z"
       id="path14" />
    <path
       class="cls-1"
       d="m 313.42,522.64 c -0.66,-0.01 -1.91,-0.84 -2.25,-1.15 -0.34,-0.31 1.47,-0.95 2.11,-1.05 l 6.29,-1.06 c -0.16,-15.48 2.72,-22.95 3.29,-39.28 l 0.76,-21.52 c 0.3,-8.6 0.58,-16.82 0.07,-25.72 -1.47,-25.66 1.84,-11.76 1.79,-14.89 l 0.04,2.15 0.83,19.89 c 0.53,12.57 0.22,24.53 0.1,37.13 l -0.43,44.38 c 2.16,1.84 3.81,3.39 5.1,5.35 -6.26,-2.02 -12.34,-4.15 -17.7,-4.23 z"
       id="path15" />
    <path
       class="cls-1"
       d="m 250.1,303.36 3.86,7.81 c -4.86,-2.33 -8.6,-6.15 -11.57,-9.77 1.91,-3.46 2.96,-6.46 2.8,-10.5 l -7.02,0.58 c -1.58,0.13 -3.98,-4.06 -3.82,-5.63 0.27,-2.58 3.55,0.08 5.03,0.61 3.27,1.18 8.94,-0.65 11.11,3.56 1.2,2.33 -1.04,7.52 -2.45,10.15 0.19,0.47 1.71,2.53 2.04,3.19 z"
       id="path16" />
    <path
       class="cls-1"
       d="m 335.9,391.85 c 3.49,1.32 -0.34,12.78 -1.53,15.36 -0.51,1.1 -3.73,2.02 -4.49,1.21 -3.46,-3.68 7.12,-8.33 -1.03,-19.22 l 7.05,2.66 z"
       id="path17" />
    <path
       class="cls-1"
       d="m 343.31,370.45 c -5.97,7.98 -1.52,14.87 -5.81,14.58 -4.29,-0.29 -0.96,-10.71 -0.65,-11.04 l 12.04,-12.56 c -1.36,3.57 -3.47,6.2 -5.59,9.03 z"
       id="path18" />
    <path
       class="cls-1"
       d="m 361.69,311.62 c -0.95,-0.97 -15.14,-26.73 -10.93,-29.1 3.95,9.9 8.21,17.75 10.93,29.1 z"
       id="path19" />
    <path
       class="cls-1"
       d="m 322.33,313.99 c -1.32,-1.59 0.98,-5.83 3.04,-7.49 l 6.14,-4.93 c 0.61,-0.49 2.31,-1.35 2.84,-0.99 l 2.3,1.57 -14.32,11.85 z"
       id="path20" />
    <path
       class="cls-1"
       d="m 272.78,327.54 -12.28,-11.12 -5.29,-3.89 c 3.21,-1.46 5.65,0.15 7.87,2.29 3.01,4.34 8.97,5.73 9.69,12.72 z"
       id="path21" />
    <path
       class="cls-1"
       d="m 321.85,378.04 c -4.28,0.39 -5.8,-3.15 -7.52,-6.3 l -1.16,-2.13 c -0.25,-0.45 1.17,-1.09 1.65,-1.43 0.55,-0.39 0.95,1.81 1.1,2.89 l 5.93,6.96 z"
       id="path22" />
    <path
       class="cls-1"
       d="m 326.72,388.2 c -2.75,3 -5.76,5.6 -9.93,6.92 l 6.23,-7.22 c 0.58,-0.67 2.24,-0.52 3.7,0.3 z"
       id="path23" />
  </g>
  <g
     id="g28"
     transform="translate(-104.11611,-164.98668)">
    <path
       class="cls-1"
       d="m 439.55,342.71 0.05,17.37 c 0,3.25 2.65,5.24 5.45,5.86 l 2.69,0.6 c 0.74,0.17 -0.31,3.2 -1.24,3.2 l -25.13,0.06 c -0.69,0 -2.04,-2.09 -1.6,-2.46 3.17,-2.66 8.98,-0.95 8.98,-7.72 v -44.26 c 0.01,-7.41 -7.99,-4.34 -8.49,-7.84 -0.12,-0.83 1.64,-2.18 2.49,-2.17 l 26.35,0.27 c 6.08,0.06 12.33,1.34 16.64,5.65 4.31,4.31 4.96,10.07 3.44,16.01 -1.24,4.86 -5.65,8.48 -11.46,11.55 4.29,7.48 8.47,14.31 13.2,21.16 4.73,6.85 10.07,5.75 8.74,9.46 -0.87,2.43 -14.23,0.68 -18.14,-3.97 -10.79,-12.83 -11.89,-26.8 -21.97,-22.77 z m -0.12,-5.22 c 5.02,1.22 10.01,0.51 13.89,-2.54 6.93,-5.46 6.13,-19.54 -1.48,-23.64 -3.62,-1.95 -9.62,-2.67 -12.09,0.29 l -0.31,25.89 z"
       id="path24" />
    <path
       class="cls-1"
       d="m 371.56,338.5 -6.73,7.51 c -4.15,4.63 -8.25,8.82 -12.97,13.49 -0.91,-5.5 8.45,-10.11 11.92,-17.79 l -8.54,-1.74 7.93,-2.71 c 11.32,-3.87 0.06,-13.95 2.25,-20.59 l 5.92,10.57 c 0.17,-6.94 2.71,-16.79 -4.96,-17.8 -0.94,-0.12 -2.08,-0.15 -2.11,-0.52 l -0.22,-3.35 c 15.58,1.09 48.27,-6.3 49.11,17.35 0.37,10.24 -5.81,18.06 -15.56,20.57 -5.13,1.32 -9.21,1.26 -15.04,-0.75 l 0.03,17.32 c 0,5.97 5.4,5.47 9.25,6.49 0.78,0.2 -0.16,3.2 -1.15,3.21 l -24.59,0.05 c -1.27,0 -2.86,-0.63 -3.01,-1.34 -0.19,-0.89 1.57,-2.66 2.48,-2.68 3.75,-0.05 6.27,-2.4 6.23,-5.9 l -0.25,-21.38 z m 11.13,-0.11 c 4.94,2.41 10.44,1.41 13.67,-1.46 6.36,-5.65 6.48,-19.64 -0.19,-24.63 -3.67,-2.74 -9.35,-3.79 -13.26,-1.18 z"
       id="path25" />
    <path
       class="cls-1"
       d="m 611.21,369.83 -25.97,-0.09 -0.29,-3.11 c -0.07,-0.72 6.69,-1.34 4.8,-4.52 l -11.68,-19.57 c -1.98,3.19 -13.48,20.18 -11.46,21.63 0.55,0.39 1.98,1.16 2.68,1.39 l 2.04,0.67 c 0.59,0.19 0.45,1.6 0.49,3.46 l -23.31,0.11 -0.18,-3.23 c -0.05,-0.9 8.14,-1.18 11.45,-5.71 5.63,-7.69 10.49,-14.81 15.64,-22.67 l -13.81,-22.67 c -4.23,-6.95 -12.17,-5.26 -11.66,-7.26 l 0.72,-2.85 26.17,0.09 c -0.01,1.71 -0.01,3.55 -0.72,3.83 l -4.14,1.64 c 2.84,6.18 6.17,11.74 10.54,18.06 l 9.19,-15.07 c 0.24,-0.39 0.7,-2.43 0.35,-2.63 l -2.21,-1.26 c -0.7,-0.4 -2.6,-0.44 -2.56,-1.05 l 0.19,-3.56 19.56,-0.13 c 0.95,0 2.48,0.66 2.83,1.29 2.33,4.23 -7.25,1.27 -12.55,8.75 l -12.42,17.52 16.25,25.98 c 5.51,8.8 12.3,5.49 12.66,8.57 0.1,0.88 -1.61,2.38 -2.57,2.37 z"
       id="path26" />
    <path
       class="cls-1"
       d="m 649.75,339.13 -13.06,-0.15 -0.05,20.1 c -0.02,9.2 16.6,6.28 19.7,5.28 3.67,-1.19 5.66,-5.53 7.17,-8.55 l 1.26,-2.52 c 0.35,-0.7 3.6,0.45 3.47,1.22 -0.65,3.79 -2.15,10.69 -3.22,15.2 l -46.15,0.1 c -0.95,0 -2.59,-0.69 -2.83,-1.41 -1.47,-4.53 9.58,-0.28 9.58,-8.78 v -44.83 c 0,-5.98 -6.2,-4.02 -8.58,-7.14 -0.41,-0.53 1.36,-2.26 2.12,-2.26 l 43.33,0.12 1.1,13.19 c 0.06,0.72 -1.7,2.22 -2.3,2.01 -3.64,-1.26 -2.75,-9.57 -8.49,-10.34 -5.74,-0.77 -10.12,-0.64 -16.06,-0.33 l -0.07,24.19 13.51,-0.24 c 3.19,-0.06 4.48,-6.8 4.88,-6.82 l 3.49,-0.12 v 17.91 c -0.01,0.66 -1.61,1.91 -2.25,1.85 -2.81,-0.26 -1.95,-7.65 -6.53,-7.7 z"
       id="path27" />
    <path
       class="cls-1"
       d="m 501.09,348.12 -4.33,13.16 c -0.52,1.6 1.84,3.91 3.27,4.33 l 3.13,0.92 c 0.64,0.19 -0.21,2.88 -0.66,3.15 l -18.61,0.19 c -0.81,0 -2.28,-0.79 -2.66,-1.38 -2.27,-3.5 6.76,-0.76 10.11,-9.46 l 19.57,-50.82 c 0.73,-1.9 5.13,-5.29 5.85,-3.3 l 19.95,55.12 c 1.07,2.95 3.82,5.01 6.44,5.74 l 2.73,0.77 c 0.72,0.2 -0.38,3.21 -1.4,3.21 l -22.45,0.05 c -0.84,0 -2.59,-1.03 -2.59,-1.69 0,-0.83 1.32,-2.06 2.18,-2.35 l 2.79,-0.96 c 0.76,-0.26 0.89,-2.94 0.53,-3.96 l -4.45,-12.5 -19.4,-0.24 z m 17.6,-5.44 -7.71,-22.43 -8.4,22.81 16.1,-0.37 z"
       id="path28" />
  </g>
  <g
     id="g32"
     transform="translate(-104.11611,-164.98668)">
    <path
       class="cls-1"
       d="m 122.92,389.12 0.03,3.93 -11.62,-0.15 c 2.89,-0.49 3.13,-16.01 0.16,-16.8 l 6.4,-0.04 c -0.57,0.77 -2.02,2.96 -1.99,4.01 l 0.3,11.27 c 0.61,0.45 3.59,1.2 4.15,0.59 l 2.58,-2.81 z"
       id="path29" />
    <path
       class="cls-1"
       d="m 149.62,376.04 c -4.18,4.37 1.46,14.27 -4.75,19.11 l 0.88,-14.44 c 0.07,-1.15 -1.15,-2.92 -2.57,-4.59 l 6.44,-0.09 z"
       id="path30" />
    <path
       class="cls-1"
       d="m 130.69,392.02 c -3.4,-0.49 -5.32,-3.74 -5.54,-6.66 -0.25,-3.33 1.19,-7.33 5.4,-8.3 -3.5,4.6 -3.28,9.29 0.14,14.96 z"
       id="path31" />
    <path
       class="cls-1"
       d="m 135.43,391.73 c 3.68,-4.01 3.09,-9.86 -0.49,-14.86 3.61,0.34 5.69,3.7 5.85,6.86 0.13,2.58 0.02,6.83 -5.36,8 z"
       id="path32" />
  </g>
</svg>
