<?xml version="1.0" encoding="UTF-8"?>
<svg id="Layer_1" xmlns="http://www.w3.org/2000/svg" version="1.1" viewBox="0 0 75 80">
  <!-- Generator: Adobe Illustrator 30.1.0, SVG Export Plug-In . SVG Version: 2.1.1 Build 136)  -->
  <defs>
    <style>
      .st0 {
        fill: #fff;
      }
    </style>
  </defs>
  <path class="st0" d="M32.6,59.8c0,1.3-.5,2.6-1.4,3.6-.5.6-1.2,1-1.9,1.3-.7.3-1.5.4-2.3.4h-3.6v-8.2c0-.5,0-1-.1-1.4,0-.2-.1-.3-.2-.5-.1-.1-.3-.2-.4-.3v-.2h4.4c.8,0,1.6,0,2.3.4.7.3,1.4.7,1.9,1.3.9,1,1.4,2.2,1.4,3.6h0ZM30.9,59.8c0-.5,0-1-.2-1.5-.2-.5-.4-.9-.8-1.3-.4-.4-.9-.8-1.5-1s-1.2-.3-1.8-.3h-1.6v8h1.6c.6,0,1.2,0,1.8-.3s1.1-.5,1.5-1c.3-.4.6-.8.8-1.3.2-.5.3-1,.2-1.5h0ZM41.1,65.1v-1.3h-4.7v-3.5h4.4v-1.2h-4.4v-3.3h4.6v-1.3h-7v.2c.2,0,.3.2.4.3.1.1.2.3.2.5,0,.5.1.9.1,1.4v8.2h6.4ZM52.3,59.9h-2.4c.2.2.3.3.4.4.1.1.2.3.2.5,0,.5.1.9.1,1.4v1.5c-.7.2-1.4.3-2.2.3-.5,0-1.1,0-1.6-.3-.5-.2-1-.5-1.3-.9-.7-.8-1.1-1.9-1.1-3s.4-2.2,1.1-3c.4-.4.8-.7,1.3-.9.5-.2,1.1-.3,1.6-.3,1.3,0,2.5.4,3.5,1.2v-1.6c-1-.6-2.2-.9-3.4-.8-1.6,0-3.1.5-4.2,1.6-.5.5-.9,1.1-1.2,1.8-.3.7-.4,1.4-.4,2.1s.1,1.5.4,2.1c.3.7.7,1.3,1.2,1.8,1.1,1.1,2.7,1.6,4.2,1.6,1.3,0,2.6-.2,3.8-.8v-4.6h0ZM17.3,54.5h-2v.2c.1,0,.2.1.3.2,0,0,.1.2.1.3,0,.4-.2.7-.3,1l-3.7,8.8h1.4l1.4-3.2h4.5l1.2,2.8c0,.1.1.2.3.3.1,0,.2.1.4.1h1.2l-4.7-10.5h0ZM15,60.7l1.7-3.9,1.7,3.9h-3.4ZM58.9,54.5h-2v.2c.1,0,.2.1.3.2,0,0,.1.2.1.3,0,.4-.2.7-.3,1l-3.8,8.8h1.4l1.4-3.2h4.5l1.2,2.8c0,.1.1.2.3.3.1,0,.2.1.4.1h1.2l-4.7-10.5h0ZM56.5,60.6l1.7-3.9,1.7,3.9h-3.4ZM10,74.5c0,1.3-.5,2.6-1.4,3.6-.5.6-1.2,1-1.9,1.3-.7.3-1.5.4-2.3.4H.7v-8.2c0-.5,0-1-.1-1.4,0-.2-.1-.3-.2-.5-.1-.1-.3-.2-.4-.3v-.2h4.4c.8,0,1.6,0,2.3.4.7.3,1.4.7,1.9,1.3.9,1,1.4,2.2,1.4,3.6h0ZM8.3,74.5c0-.5,0-1-.2-1.5-.2-.5-.4-.9-.8-1.3-.4-.4-.9-.8-1.5-1-.6-.2-1.2-.3-1.8-.3h-1.5v8h1.6c.6,0,1.2,0,1.8-.3.6-.2,1.1-.5,1.5-1,.7-.8,1.1-1.8,1-2.8h0ZM18.4,79.8v-1.3h-4.7v-3.5h4.4v-1.2h-4.4v-3.3h4.6v-1.3h-7c.2.2.3.3.4.4.1.1.2.3.2.5,0,.5.1.9.1,1.4v8.2h6.4,0ZM44.7,74.5c0,.7-.1,1.4-.4,2.1-.3.7-.7,1.3-1.2,1.8-.6.6-1.2,1-2,1.3-.7.3-1.5.4-2.3.4-.8,0-1.5,0-2.3-.4-.7-.3-1.4-.7-1.9-1.3-.5-.5-.9-1.1-1.2-1.8-.3-.7-.4-1.4-.4-2.1,0-.7.1-1.4.4-2.1.3-.7.7-1.3,1.2-1.8,1.1-1.1,2.6-1.6,4.2-1.6s3.1.6,4.2,1.6c.5.5.9,1.1,1.2,1.8.3.7.4,1.4.4,2.1ZM42.9,74.5c0-1.1-.4-2.2-1.1-3-.4-.4-.8-.7-1.3-.9-.5-.2-1-.3-1.6-.3s-1.1.1-1.6.3c-.5.2-.9.5-1.3.9-.7.8-1.1,1.9-1.1,3s.4,2.2,1.1,3c.4.4.8.7,1.3.9.5.2,1,.3,1.6.3s1.1-.1,1.6-.3c.5-.2.9-.5,1.3-.9.8-.8,1.2-1.9,1.1-3h0ZM61.3,74.1h0c.5-.1.9-.4,1.3-.8.3-.4.5-.9.4-1.4,0-.3,0-.7-.2-1-.1-.3-.4-.6-.6-.8-.7-.6-1.6-.9-2.5-.8h-3.9c.2.2.3.3.4.5.1.1.2.3.2.5,0,.5.1.9.1,1.4v8.2h3.7c1,0,2-.3,2.8-1,.3-.2.5-.5.7-.9.2-.3.2-.7.2-1.1,0-1.5-.8-2.4-2.5-2.7h0ZM61.5,78c-.5.4-1.1.6-1.8.5h-1.6v-8.2h1.4c.3,0,.5,0,.8.1.3,0,.5.2.7.4.2.1.3.3.3.5,0,.2.1.4.1.6,0,1.6-1.8,1.9-2.3,2h0c.5.2,2.9.8,2.9,2.6,0,.3,0,.5-.1.7,0,.2-.2.4-.4.6h0ZM29.4,74.1h0c.5-.1.9-.4,1.2-.8.3-.4.4-.9.4-1.4,0-.3,0-.7-.2-1-.1-.3-.3-.6-.6-.8-.7-.6-1.6-.9-2.5-.8h-4c.2.2.3.3.4.5.1.1.2.3.2.5,0,.5.1.9.1,1.4v8.2h3.7c1,0,2-.3,2.8-1,.3-.2.5-.5.7-.9.2-.3.2-.7.2-1.1,0-1.5-.8-2.4-2.5-2.7h0ZM29.5,78c-.5.4-1.1.6-1.8.5h-1.6v-8.2h1.4c.3,0,.5,0,.8.1.3,0,.5.2.7.4.2.1.3.3.3.5,0,.2.1.4.1.6,0,1.6-1.8,1.9-2.3,2h0c.5.2,2.9.8,2.9,2.6,0,.3,0,.5-.1.8,0,.2-.3.4-.5.6h0ZM51.2,74.3h0c1.4-.5,2-1.1,2-2.5,0-.3,0-.7-.2-1-.1-.3-.4-.6-.6-.8-.7-.6-1.6-.9-2.5-.8h-4c.2.2.3.3.4.5.1.1.2.3.2.5,0,.5.1.9.1,1.4v8.2h1.6v-9.3h1.4c.3,0,.5,0,.8.1.3,0,.5.2.7.4.2.1.3.3.4.5,0,.2.1.4.1.6,0,1.7-2,2-2.3,2h0s3.6,5.3,3.6,5.3c0,.1.2.2.3.3.1,0,.3.1.4.1h1.3l-3.7-5.5h0ZM70.1,69.3h-2v.2c.1,0,.2.1.3.2s.1.2.1.3c0,.4-.2.7-.3,1l-3.8,8.8h1.4l1.4-3.2h4.5l1.2,2.8c0,.1.1.2.3.3.1,0,.2.1.4.1h1.2l-4.7-10.5ZM67.7,75.4l1.7-3.9,1.7,3.9h-3.4Z"/>
  <path class="st0" d="M43.9,11.3c-.1-.4-.4-.9-.8-2.2-.6-2-.5-3.7-.9-4.8,0,0,.1.1.8.8-.6-1.8-1.2-2.6-2.2-3.4.4,0,1-.1,1-.1-.9-.2-1.8-.5-2.7-.8h-.1s.7-.2.7-.2c-1.3-.2-1.8-.3-2.4-.4-2.8-.7-4.1-.1-4.1-.1l-.2.5c-1.2.2-3.3.6-3.9,1.5-1,1.5,0,3.5,0,3.5,0-1.5,3.3-1.3,3.3-1.3h1.2c.4,0,.9.1,1,.5h-3.1c-1.5,0-1.8.5-1.8.5.8,0,1.6,0,2.4.3,2,.7,1.2,2.9.5,3.8-.3.4-.9,1.2-1.2,1.6-.1.2-.2.3-.3.5,2.1-.7,4.3-1,6.4-1,2.2,0,4.3.4,6.4,1,0,0,0-.2,0-.3h0ZM34.5,2.3h0c-.2,0-.4,0-.6,0-.2,0-.4-.2-.5-.3.2-.3.5-.5.9-.6.1,0,.3,0,.4,0,.1,0,.2.2.3.3,0,0,0,.2,0,.2,0,0,0,.2,0,.2,0,0,0,.1-.2.2,0,0-.1,0-.2,0ZM55.4,2.7c4,2.8,4.3,13.2-.7,25.2-.9,2.3-2,4.6-3.2,6.8,0,0-2.3,4.4-4.9,6.9v-1.6c0,0-1.5,3.1-4,4.8,0,0,.9-1.8.3-3.2,0,0-4.3,4.7-5.5,4.7s-5.5-4.7-5.5-4.7c-.7,1.4.3,3.2.3,3.2-2.5-1.7-4.1-4.8-4.1-4.8v1.6c-2.5-2.6-4.8-6.9-4.8-6.9-1.2-2.2-2.3-4.5-3.2-6.8-4.9-12-4.7-22.4-.7-25.2,1.6-1.1,6.1,2.9,10.3,9.4-2.2.8-4.3,1.8-6.3,3,1.7,6.9-2.7,18.4,8,22,5.2,1.8,5.9,3.9,5.9,3.9,0,0,.7-2.2,5.9-3.9,10.8-3.7,6.4-15.1,8-22-2-1.3-4.1-2.3-6.3-3.1,4.2-6.4,8.7-10.4,10.3-9.3h0ZM43.9,23.3l-.3-.7c-.2-.4-.5-.7-.8-.9l-.5-.3c.3,0,.6-.2.8-.3v-1.4h-1.4c-.1.3-.3.5-.4.8l-.3-.5c-.2-.4-.5-.7-.9-.8l-.7-.3.7-.3c.4-.2.7-.5.9-.8l.3-.5c0,.3.2.6.4.8h1.4v-1.5c-.3-.1-.5-.3-.8-.4l.5-.3c.4-.2.7-.5.8-.9l.3-.7.3.7c.2.4.5.7.8.9l.5.3c-.3,0-.6.2-.8.4v1.5h1.5c.1-.3.3-.5.3-.8l.3.5c.2.4.5.7.9.8l.7.3-.7.3c-.4.2-.7.5-.9.8l-.3.5c0-.3-.2-.6-.3-.8h-1.5v1.4c.3.1.5.3.8.3l-.5.3c-.4.2-.7.5-.8.9l-.3.7h0ZM31.6,35.3l-.3-.7c-.2-.4-.5-.7-.8-.9l-.5-.3c.3,0,.6-.2.8-.3v-1.5h-1.5c-.1.3-.3.5-.4.8l-.3-.5c-.2-.4-.5-.7-.9-.8l-.7-.3.7-.3c.4-.2.7-.5.9-.8l.3-.5c0,.3.2.6.4.8h1.4v-1.4c-.3-.1-.5-.3-.8-.4l.5-.3c.4-.2.7-.5.8-.9l.3-.7.3.7c.2.4.5.7.8.9l.5.3c-.3,0-.6.2-.8.4v1.4h1.4c.1-.3.3-.5.3-.8l.3.5c.2.4.5.7.9.8l.7.3-.7.3c-.4.2-.7.5-.9.8l-.3.5c0-.3-.2-.6-.3-.8h-1.4v1.5c.3.1.5.3.8.3l-.5.3c-.4.2-.7.5-.8.9l-.3.7h0ZM38,25.2v13.9c.9-.9,2.5-1.9,5.2-2.9,5.8-2,6.8-6.2,7-11h-12.2ZM43.7,33c-.6,0-1.1-.1-1.6-.4-.5-.3-.9-.7-1.2-1.1s-.4-1-.4-1.6c0-.6.1-1.1.4-1.6.3.5.7.9,1.1,1.1.5.3,1,.4,1.6.4s1.1-.1,1.6-.4c.5-.3.9-.7,1.1-1.1.3.5.4,1,.4,1.6,0,.6-.1,1.1-.4,1.6-.3.5-.7.9-1.2,1.1-.5.3-1,.4-1.6.4h0ZM24.9,21.8v2.5h12.2v-12.9c-5.6.1-10.9,3-12.6,4,.3,2.1.4,4.2.3,6.4h0ZM28.4,16.6c.3.5.7.9,1.2,1.2.5.3,1,.4,1.6.4s1.1-.1,1.6-.4c.5-.3.9-.7,1.2-1.2.3.5.4,1,.4,1.6,0,.5-.1,1.1-.4,1.6-.3.5-.7.9-1.1,1.1-.5.3-1,.4-1.6.4s-1.1-.1-1.6-.4c-.5-.3-.9-.7-1.1-1.1-.3-.5-.4-1-.4-1.6,0-.5.1-1.1.4-1.6Z"/>
</svg>