<?xml version="1.0" encoding="UTF-8" standalone="no"?>
<svg
   id="Layer_1"
   data-name="Layer 1"
   viewBox="0 0 339.89023 74.601781"
   version="1.1"
   sodipodi:docname="garcia.svg"
   width="339.89023"
   height="74.601784"
   inkscape:version="1.4.3 (0d15f75042, 2025-12-25)"
   xmlns:inkscape="http://www.inkscape.org/namespaces/inkscape"
   xmlns:sodipodi="http://sodipodi.sourceforge.net/DTD/sodipodi-0.dtd"
   xmlns="http://www.w3.org/2000/svg"
   xmlns:svg="http://www.w3.org/2000/svg">
  <sodipodi:namedview
     id="namedview18"
     pagecolor="#000000"
     bordercolor="#999999"
     borderopacity="1"
     inkscape:showpageshadow="0"
     inkscape:pageopacity="0"
     inkscape:pagecheckerboard="0"
     inkscape:deskcolor="#d1d1d1"
     inkscape:zoom="3.8757193"
     inkscape:cx="167.83981"
     inkscape:cy="39.476543"
     inkscape:window-width="2560"
     inkscape:window-height="1368"
     inkscape:window-x="0"
     inkscape:window-y="0"
     inkscape:window-maximized="1"
     inkscape:current-layer="Layer_1" />
  <defs
     id="defs1">
    <style
       id="style1">
      .cls-1 {
        fill: #fff;
      }
    </style>
  </defs>
  <g
     id="g12"
     transform="translate(-42.709778,-44.122065)">
    <g
       id="g7">
      <path
         class="cls-1"
         d="m 235.76,81.46 -0.03,-12.91 c 0,-1.79 -1.64,-2.78 -3.08,-3.83 h 11.26 c -0.53,1.22 -0.86,2.19 -0.86,3.33 l -0.02,12.37 c -9.15,10.37 -25.99,10.24 -35.43,0.52 -8.09,-8.33 -8.02,-21.47 0.09,-29.75 4.99,-5.1 11.86,-7.44 19.01,-7.02 4.36,0.26 8.41,1.04 12.34,3.25 l -1.19,4.15 c -4.96,-3.99 -11.59,-5.49 -17.68,-3.36 -10.59,3.71 -13.21,18.04 -8.81,27.7 1.69,3.71 4.52,6.69 8.29,8.17 5.42,2.12 11.4,1.04 16.11,-2.63 z"
         id="path1" />
      <path
         class="cls-1"
         d="m 295.84,81.32 -7.37,-13.37 -2.13,-0.41 V 81 c -0.01,1.01 0.33,1.89 0.78,2.96 h -7.65 c 0.37,-1.12 0.81,-2.07 0.81,-3.24 V 53.07 c 0,-1.04 -0.48,-1.96 -0.92,-2.99 l 10.84,0.06 c 2.76,0.02 5.43,1.31 7.1,3.42 1.67,2.11 2.24,4.9 1.54,7.73 -0.57,2.28 -2.37,4.32 -4.88,5.51 l 8.47,14.24 c 0.66,1.11 1.51,1.84 2.49,2.92 h -8.14 c -0.31,-1.05 -0.51,-1.86 -0.95,-2.64 z m -3.76,-17.76 c 1.47,-2.37 1.58,-5.29 0.5,-7.7 -1.08,-2.41 -3.71,-3.66 -6.25,-2.99 l 0.02,12.49 c 2.18,0.62 4.49,0.2 5.73,-1.8 z"
         id="path2" />
      <path
         class="cls-1"
         d="m 265.23,76.49 c -4.31,0.25 -8.3,0.4 -12.77,-0.01 l -1.72,4.61 c -0.32,0.85 -0.3,1.77 -0.33,2.89 h -4.23 c 0.67,-1.12 1.33,-1.78 1.72,-2.85 l 9.46,-25.99 c -0.37,-1.92 -1.13,-3.3 -2.48,-5.01 h 7.24 c 0,0 11.16,30.83 11.16,30.83 0.41,1.14 1.08,1.89 1.84,3.02 h -8.1 c 0.13,-1.17 0.16,-2.15 -0.19,-3.1 l -1.61,-4.38 z m -0.8,-2.21 -5.6,-15.33 -5.55,15.34 11.16,-0.02 z"
         id="path3" />
      <g
         id="g6">
        <path
           class="cls-1"
           d="m 372.69,76.49 c -4.31,0.25 -8.3,0.4 -12.76,-0.01 l -1.72,4.61 c -0.32,0.85 -0.3,1.77 -0.33,2.89 h -4.26 c 0.77,-1.15 1.43,-1.95 1.88,-3.2 l 9.33,-25.64 c -0.37,-1.93 -1.12,-3.3 -2.49,-5.02 h 7.25 c 0,0 11.36,31.35 11.36,31.35 0.33,0.92 1.07,1.53 1.65,2.49 h -8.1 c 0.13,-1.19 0.16,-2.15 -0.19,-3.09 l -1.61,-4.38 z m -0.81,-2.21 -5.62,-15.34 -5.54,15.36 z"
           id="path4" />
        <path
           class="cls-1"
           d="m 320.68,81.53 c 5.42,1.45 10.52,-0.35 14.51,-3.88 l 1.73,1.16 c -6.7,8.07 -19.39,7.52 -26.6,0.83 -7.21,-6.69 -7.41,-18.18 -0.22,-25.08 3.82,-3.66 8.86,-5.42 14.19,-5.2 3.84,0.16 7.45,0.84 10.74,2.73 l -1.12,3.55 c -3.99,-3.37 -9.38,-4.47 -14.25,-2.71 -8.03,2.9 -10.21,13.89 -6.93,21.41 1.5,3.44 4.23,6.19 7.95,7.19 z"
           id="path5" />
        <path
           class="cls-1"
           d="m 349.27,83.97 -7.62,0.02 c 0.27,-0.86 0.76,-1.69 0.76,-2.56 V 52.55 c 0,-0.83 -0.54,-1.69 -0.87,-2.45 h 7.75 c -0.42,1.01 -0.82,1.87 -0.83,2.89 v 28 c 0,1.03 0.36,1.81 0.8,2.99 z"
           id="path6" />
      </g>
    </g>
    <g
       id="g11">
      <path
         class="cls-1"
         d="m 52.65,76.09 c 4.07,8.42 12.96,10.92 21.29,7.82 2.58,-0.96 4.55,-2.45 6.78,-4.14 0.61,0.34 1.26,0.77 1.88,1.22 -4.19,4.78 -9.85,7.24 -16.16,7.23 -5.68,0 -11,-1.66 -15.45,-5.17 -5.3,-4.18 -8.31,-10.38 -8.28,-17.02 0.03,-6.64 3.13,-12.89 8.53,-17.03 4.86,-3.72 10.74,-5.23 16.87,-4.78 4.29,0.31 8.25,1.09 12.13,3.25 l -1.23,4.09 C 74.14,47.56 67.46,46.11 61.37,48.21 50.8,51.85 47.95,66.37 52.65,76.08 Z"
         id="path7" />
      <path
         class="cls-1"
         d="m 104.72,76.5 c -4.28,0.22 -8.28,0.4 -12.77,-0.03 l -1.82,4.91 c -0.26,0.71 -0.2,1.58 -0.2,2.59 h -4.26 c 0.75,-1.18 1.41,-1.99 1.86,-3.23 l 9.33,-25.62 c -0.4,-1.97 -1.21,-3.5 -2.58,-5.01 l 7.31,-0.03 11.25,31.07 c 0.36,1 0.92,1.53 1.69,2.79 L 106.52,84 c 0.15,-1.27 0.13,-2.25 -0.24,-3.26 l -1.54,-4.23 z m -0.81,-2.22 -5.62,-15.34 -5.56,15.38 c 3.81,-0.2 7.32,-0.13 11.17,-0.04 z"
         id="path8" />
      <path
         class="cls-1"
         d="m 158.68,76.5 c -4.36,0.26 -8.57,0.32 -12.83,0.03 l -1.63,4.5 c -0.32,0.89 -0.34,1.76 -0.34,2.95 l -4.25,-0.02 c 0.96,-1.35 1.56,-2.38 2.11,-3.9 l 9.07,-24.95 c -0.4,-1.97 -1.21,-3.5 -2.57,-5.01 l 7.31,-0.03 10.93,30.22 c 0.5,1.39 1.12,2.33 2.06,3.68 h -8.07 c 0.12,-1.16 0.16,-2.14 -0.17,-3.05 z m -0.83,-2.27 -5.6,-15.3 -5.56,15.38 z"
         id="path9" />
      <path
         class="cls-1"
         d="m 135.87,80.24 c -2.36,3.31 -6.03,4.65 -9.93,4.49 -3.34,-0.14 -6.39,-0.94 -8.93,-3.34 l 2.06,-4.56 c 1.32,1.5 2.33,3.04 4.03,4.13 2.02,1.3 4.8,1.6 6.99,0.57 2.58,-1.21 3.01,-4.54 1.33,-6.78 -4.62,-6.18 -14.75,-10.32 -13.36,-18.63 0.41,-2.46 1.99,-4.52 4.29,-5.61 4.21,-2.01 9.29,-1.42 12.84,1.63 l -1.63,4.04 c -1.07,-1.34 -1.91,-2.55 -3.26,-3.5 -1.82,-1.27 -5.72,-1.57 -7.06,0.6 -3.12,5.06 8.13,10.71 12.67,17.26 2.05,2.96 2.1,6.71 -0.04,9.7 z"
         id="path10" />
      <path
         class="cls-1"
         d="m 193.33,78.79 -2.13,5.89 C 189.98,84.36 188.94,84 187.78,84 l -15.52,-0.02 c 0.5,-1.15 0.86,-2.07 0.86,-3.22 V 53.47 c 0,-1.25 -0.35,-2.23 -0.89,-3.36 l 7.73,-0.02 c -0.53,1.21 -0.79,2.15 -0.79,3.38 v 27.87 c 0,0 6.21,0 6.21,0 2.87,0 5.15,-1.13 7.95,-2.55 z"
         id="path11" />
    </g>
  </g>
  <g
     id="g18"
     transform="translate(-42.709778,-44.122065)">
    <g
       id="g14">
      <path
         class="cls-1"
         d="m 159.45,118.02 c -3.01,1.32 -6.57,0.72 -9.07,-1.27 l 1.38,-1.97 c 2.04,1.99 7.22,2.46 7.34,0.12 0.02,-0.41 -0.62,-1.2 -1.06,-1.25 l -3.73,-0.4 c -1.02,-0.11 -2.32,-0.47 -2.92,-1.38 -1.14,-1.71 -0.12,-4.03 1.8,-4.67 2.7,-0.89 5.5,-0.34 7.88,1.29 l -1.25,1.91 c -1.67,-1.34 -6.3,-2.15 -6.51,-0.27 -0.03,0.3 0.54,0.79 0.85,0.83 l 4.3,0.53 c 1.53,0.19 2.8,1.42 2.99,2.73 0.2,1.43 -0.42,3.1 -1.99,3.79 z"
         id="path12" />
      <path
         class="cls-1"
         d="m 181.81,118.28 c -0.33,0.2 -1.28,0.22 -1.53,-0.06 l -5.96,-6.63 -0.1,6.84 -2.3,-0.04 v -11.21 c 0.44,-0.11 1.38,-0.18 1.69,0.16 l 5.87,6.54 0.1,-6.79 2.24,0.02 v 11.17 z"
         id="path13" />
      <polygon
         class="cls-1"
         points="209.38,118.43 199.81,118.43 199.81,107.07 208.93,107.07 208.96,109.28 202.18,109.28 202.18,111.23 206.24,111.25 206.31,113.44 202.18,113.47 202.16,116.23 209.41,116.23 "
         id="polygon13" />
      <path
         class="cls-1"
         d="m 194.6,114.21 1.85,1.31 c -1.06,2.17 -2.98,3.17 -5.27,3.19 -3.51,0.04 -5.96,-2.6 -5.87,-6.09 0.08,-3.25 2.32,-5.73 5.62,-5.82 2.19,-0.06 4.23,0.7 5.39,2.68 l -1.86,1.34 c -1.06,-1.49 -2.51,-2.1 -4.23,-1.67 -1.46,0.37 -2.51,1.76 -2.56,3.48 -0.05,1.72 0.97,3.35 2.5,3.69 1.77,0.39 3.33,-0.15 4.42,-2.12 z"
         id="path14" />
      <rect
         class="cls-1"
         x="165.21001"
         y="107.07"
         width="2.3299999"
         height="11.37"
         id="rect14" />
    </g>
    <g
       id="g17">
      <path
         class="cls-1"
         d="m 262.57,115.39 c 2.32,1.52 6.74,1.72 7.51,-1.34 -2.32,1.09 -4.87,1.37 -7.2,0.34 -1.28,-0.57 -1.96,-1.84 -2,-3.07 -0.04,-1.23 0.52,-2.59 1.67,-3.35 2.14,-1.42 4.93,-1.47 7.19,-0.32 2.04,1.04 3.02,3 2.96,5.23 -0.08,3.15 -2.31,5.61 -5.5,5.78 -2.11,0.11 -4.09,-0.09 -5.85,-1.55 l 1.21,-1.7 z m 7.6,-3.85 c -1.31,-2.63 -4.01,-2.98 -6.2,-1.91 -0.41,0.44 -0.78,1.09 -0.71,1.61 0.28,2.23 5.51,1.9 6.91,0.3 z"
         id="path15" />
      <path
         class="cls-1"
         d="m 232.81,115.4 c 2.25,1.53 6.76,1.68 7.46,-1.33 -2.3,1.06 -4.87,1.36 -7.2,0.3 -1.27,-0.57 -1.93,-1.88 -1.97,-3.06 -0.04,-1.32 0.51,-2.61 1.69,-3.38 2.15,-1.41 4.95,-1.44 7.21,-0.27 2.14,1.1 3.07,3.22 2.9,5.55 -0.22,2.99 -2.39,5.25 -5.44,5.43 -2.12,0.13 -4.06,-0.08 -5.86,-1.5 0.32,-0.55 0.69,-1.07 1.2,-1.74 z m 7.51,-3.7 c -0.73,-2.48 -3.82,-3.33 -6.11,-2.04 -0.48,0.27 -0.8,1.09 -0.73,1.6 0.31,2.09 4.88,1.92 6.84,0.43 z"
         id="path16" />
      <path
         class="cls-1"
         d="m 247.22,114.58 c 2.12,2.23 7.57,2.69 7.99,0.29 0.27,-1.56 -2.47,-1.55 -3.68,-1.58 v -2.1 c 0,0 1.96,-0.12 1.96,-0.12 0.31,-0.02 0.9,-0.46 0.96,-0.75 0.34,-1.77 -4.45,-1.72 -6.52,0.04 -0.42,-0.57 -0.81,-1.17 -1.18,-1.83 2.56,-2.17 9.03,-2.74 10,0.82 0.26,0.94 -0.07,1.92 -0.64,2.73 0.3,0.27 0.97,0.81 1.14,1.17 0.92,1.92 -0.09,4.15 -2.07,4.87 -3.19,1.17 -6.71,0.57 -9.34,-1.75 0.38,-0.64 0.87,-1.25 1.39,-1.8 z"
         id="path17" />
      <rect
         class="cls-1"
         x="225.36"
         y="107.07"
         width="2.3299999"
         height="11.38"
         id="rect17" />
    </g>
  </g>
</svg>
