<?xml version="1.0" encoding="UTF-8" standalone="no"?>
<svg
   id="Layer_1"
   data-name="Layer 1"
   viewBox="0 0 339.95998 52.791197"
   version="1.1"
   sodipodi:docname="dei.svg"
   width="339.95999"
   height="52.791199"
   inkscape:version="1.4.3 (0d15f75042, 2025-12-25)"
   xmlns:inkscape="http://www.inkscape.org/namespaces/inkscape"
   xmlns:sodipodi="http://sodipodi.sourceforge.net/DTD/sodipodi-0.dtd"
   xmlns="http://www.w3.org/2000/svg"
   xmlns:svg="http://www.w3.org/2000/svg"
   xmlns:rdf="http://www.w3.org/1999/02/22-rdf-syntax-ns#"
   xmlns:cc="http://creativecommons.org/ns#"
   xmlns:dc="http://purl.org/dc/elements/1.1/">
  <sodipodi:namedview
     id="namedview74"
     pagecolor="#000000"
     bordercolor="#999999"
     borderopacity="1"
     inkscape:showpageshadow="0"
     inkscape:pageopacity="0"
     inkscape:pagecheckerboard="0"
     inkscape:deskcolor="#d1d1d1"
     inkscape:zoom="3.3484643"
     inkscape:cx="153.95117"
     inkscape:cy="39.421056"
     inkscape:window-width="2560"
     inkscape:window-height="1368"
     inkscape:window-x="0"
     inkscape:window-y="0"
     inkscape:window-maximized="1"
     inkscape:current-layer="Layer_1" />
  <defs
     id="defs1">
    <style
       id="style1">.cls-1,.cls-2{fill:#fff;}.cls-1{isolation:isolate;}</style>
  </defs>
  <title
     id="title1">LOGO_DEI e feup</title>
  <polygon
     class="cls-1"
     points="4.85,42.83 9.04,42.83 9.04,44.06 4.85,44.06 4.85,49.23 3.41,49.23 3.41,37.66 9.91,37.66 9.91,38.87 4.85,38.87 "
     id="polygon1"
     transform="translate(-3.41,-2.92)" />
  <polygon
     class="cls-1"
     points="11.1,37.66 17.6,37.66 17.6,38.87 12.54,38.87 12.54,42.72 16.73,42.72 16.73,43.94 12.54,43.94 12.54,48.02 17.76,48.02 17.76,49.23 11.1,49.23 "
     id="polygon2"
     transform="translate(-3.41,-2.92)" />
  <path
     class="cls-1"
     d="m 24.4,42.35 a 3.87,3.87 0 0 1 -1.34,3.22 4.77,4.77 0 0 1 -3.17,1.07 5,5 0 0 1 -3.21,-1.08 3.88,3.88 0 0 1 -1.33,-3.21 v -7.61 h 1.43 v 7.17 a 6.48,6.48 0 0 0 0.13,1.54 2.1,2.1 0 0 0 0.54,0.91 3.07,3.07 0 0 0 2.42,1 3.07,3.07 0 0 0 2.42,-1 2.1,2.1 0 0 0 0.54,-0.91 6,6 0 0 0 0.13,-1.54 v -7.17 h 1.44 z"
     id="path2" />
  <path
     class="cls-1"
     d="m 33.8,38.16 a 4.45,4.45 0 0 1 -0.29,1.62 3.4,3.4 0 0 1 -0.82,1.24 3.92,3.92 0 0 1 -1.3,0.78 5.11,5.11 0 0 1 -1.71,0.27 h -0.67 l -1.12,-0.1 v 4.38 H 26.46 V 34.74 h 3.63 a 3.81,3.81 0 0 1 2.82,0.91 3.45,3.45 0 0 1 0.89,2.51 m -1.49,0.08 a 2.4,2.4 0 0 0 -0.65,-1.8 2.49,2.49 0 0 0 -1.79,-0.49 h -2 v 4.77 a 14.9,14.9 0 0 0 1.55,0.1 3.93,3.93 0 0 0 1.5,-0.23 2,2 0 0 0 1,-0.88 2.82,2.82 0 0 0 0.37,-1.47"
     id="path3" />
  <path
     class="cls-1"
     d="m 44.37,50.38 a 2.19,2.19 0 0 1 -0.78,1.81 2.73,2.73 0 0 1 -1.79,0.6 2.78,2.78 0 0 1 -1.8,-0.61 2.17,2.17 0 0 1 -0.75,-1.8 v -4.3 h 0.81 v 4 a 3.54,3.54 0 0 0 0.07,0.87 1.23,1.23 0 0 0 0.3,0.51 1.94,1.94 0 0 0 2.73,0 1.23,1.23 0 0 0 0.3,-0.51 3.54,3.54 0 0 0 0.07,-0.87 v -4 h 0.81 z"
     id="path4" />
  <path
     class="cls-1"
     d="m 51.69,52.67 h -0.94 l -3.29,-5.09 a 0.41,0.41 0 0 0 0,-0.09 c 0,0 0,-0.08 -0.07,-0.13 a 2.74,2.74 0 0 1 -0.18,-0.4 v 5.65 H 46.4 v -6.53 h 1.05 l 3.14,5 0.05,0.08 a 0.16,0.16 0 0 1 0,0.07 v 0.11 a 1.6,1.6 0 0 0 0.07,0.19 c 0,0 0,0 0,0 v 0.06 -5.51 h 0.81 z"
     id="path5" />
  <rect
     class="cls-1"
     x="53.830002"
     y="46.09"
     width="0.81"
     height="6.52"
     id="rect5" />
  <path
     class="cls-1"
     d="m 61.39,46.08 -2.53,6.68 H 58.37 L 55.8,46.08 h 0.87 l 1.92,5.09 a 2.21,2.21 0 0 1 0.07,0.32 1,1 0 0 1 0.06,-0.32 l 1.87,-5.09 z"
     id="path6" />
  <polygon
     class="cls-1"
     points="65.97,49.01 69.64,49.01 69.64,49.69 66.78,49.69 66.78,51.87 69.14,51.87 69.14,52.55 66.78,52.55 66.78,54.84 69.73,54.84 69.73,55.53 65.97,55.53 "
     id="polygon6"
     transform="translate(-3.41,-2.92)" />
  <path
     class="cls-1"
     d="m 72.28,52.61 h -0.93 l -1.76,-2.8 h -0.9 v 2.8 h -0.81 v -6.53 h 2 a 3.94,3.94 0 0 1 0.52,0 1.57,1.57 0 0 1 0.4,0.08 1,1 0 0 1 0.32,0.14 1.58,1.58 0 0 1 0.3,0.24 1.7,1.7 0 0 1 0.51,1.27 1.78,1.78 0 0 1 -0.57,1.35 1.93,1.93 0 0 1 -1,0.49 z m -1.23,-4.75 a 1.08,1.08 0 0 0 -0.36,-0.9 1.66,1.66 0 0 0 -0.95,-0.19 h -1.05 v 2.36 h 1.05 a 1.14,1.14 0 0 0 1.31,-1.27"
     id="path7" />
  <path
     class="cls-1"
     d="M 77.3,46.52 76.93,47.2 76.59,46.98 76.3,46.86 a 3.13,3.13 0 0 0 -0.9,-0.14 1.56,1.56 0 0 0 -0.91,0.25 0.81,0.81 0 0 0 -0.34,0.67 0.82,0.82 0 0 0 0.31,0.63 7.63,7.63 0 0 0 1.3,0.8 6.2,6.2 0 0 1 1,0.66 1.48,1.48 0 0 1 0.5,1.19 1.64,1.64 0 0 1 -0.58,1.33 2.35,2.35 0 0 1 -1.56,0.49 3.21,3.21 0 0 1 -1.2,-0.22 4,4 0 0 1 -0.84,-0.49 l 0.41,-0.64 a 3.63,3.63 0 0 0 0.42,0.27 2.39,2.39 0 0 0 0.33,0.16 2.7,2.7 0 0 0 0.94,0.17 1.43,1.43 0 0 0 0.91,-0.26 A 0.87,0.87 0 0 0 76.41,51 0.85,0.85 0 0 0 76.31,50.54 1.3,1.3 0 0 0 75.76,50 3.72,3.72 0 0 0 75.37,49.79 l -0.69,-0.37 c -0.93,-0.5 -1.39,-1.07 -1.39,-1.71 a 1.53,1.53 0 0 1 0.59,-1.26 2.44,2.44 0 0 1 1.56,-0.47 3.62,3.62 0 0 1 1.09,0.16 4.22,4.22 0 0 1 0.79,0.38"
     id="path8" />
  <rect
     class="cls-1"
     x="78.909996"
     y="46.09"
     width="0.81"
     height="6.52"
     id="rect8" />
  <path
     class="cls-1"
     d="m 87.33,49.32 a 3.51,3.51 0 0 1 -0.88,2.34 2.61,2.61 0 0 1 -1,0.73 4,4 0 0 1 -1.4,0.22 h -2.17 v -6.53 h 2.17 a 3.2,3.2 0 0 1 2.35,0.91 3.08,3.08 0 0 1 0.93,2.32 m -0.85,0 a 2.51,2.51 0 0 0 -2.56,-2.54 h -1.24 v 5.15 h 1.24 a 2.31,2.31 0 0 0 1.76,-0.59 1.78,1.78 0 0 0 0.32,-0.43 4.74,4.74 0 0 0 0.26,-0.5 5,5 0 0 0 0.16,-0.55 2.48,2.48 0 0 0 0.06,-0.54"
     id="path9" />
  <path
     class="cls-1"
     d="m 93.59,52.61 h -0.87 l -0.67,-1.93 h -2.62 l -0.67,1.93 h -0.87 l 2.43,-6.71 h 0.87 z m -1.8,-2.67 -1.06,-3 -1.06,3 z"
     id="path10" />
  <path
     class="cls-1"
     d="m 100.21,49.32 a 3.51,3.51 0 0 1 -0.88,2.34 2.66,2.66 0 0 1 -1,0.73 4.05,4.05 0 0 1 -1.41,0.22 h -2.16 v -6.53 h 2.17 a 3.2,3.2 0 0 1 2.35,0.91 3.08,3.08 0 0 1 0.93,2.32 m -0.85,0 A 2.45,2.45 0 0 0 98.63,47.5 2.52,2.52 0 0 0 96.8,46.77 h -1.21 v 5.15 h 1.23 a 2.31,2.31 0 0 0 1.76,-0.59 1.78,1.78 0 0 0 0.32,-0.43 3.4,3.4 0 0 0 0.26,-0.5 5,5 0 0 0 0.16,-0.55 2.48,2.48 0 0 0 0.06,-0.54"
     id="path11" />
  <polygon
     class="cls-1"
     points="105.18,49.01 108.84,49.01 108.84,49.69 105.99,49.69 105.99,51.87 108.35,51.87 108.35,52.55 105.99,52.55 105.99,54.84 108.93,54.84 108.93,55.53 105.18,55.53 "
     id="polygon11"
     transform="translate(-3.41,-2.92)" />
  <path
     class="cls-1"
     d="m 115,49.32 a 3.46,3.46 0 0 1 -0.88,2.34 2.51,2.51 0 0 1 -1,0.73 4,4 0 0 1 -1.41,0.22 h -2.12 v -6.53 h 2.18 a 3.16,3.16 0 0 1 2.34,0.91 3,3 0 0 1 0.93,2.32 m -0.85,0 a 2.45,2.45 0 0 0 -0.73,-1.81 2.48,2.48 0 0 0 -1.82,-0.73 h -1.24 v 5.15 h 1.19 a 2.29,2.29 0 0 0 1.75,-0.59 2.12,2.12 0 0 0 0.33,-0.43 3.33,3.33 0 0 0 0.25,-0.5 2.66,2.66 0 0 0 0.16,-0.55 2.48,2.48 0 0 0 0.06,-0.54"
     id="path12" />
  <path
     class="cls-1"
     d="m 122.53,49.35 a 3.35,3.35 0 0 1 -0.94,2.43 3.08,3.08 0 0 1 -2.34,0.95 3.12,3.12 0 0 1 -2.35,-0.95 3.63,3.63 0 0 1 0,-4.85 3.13,3.13 0 0 1 2.35,-1 3.09,3.09 0 0 1 2.34,1 3.28,3.28 0 0 1 0.93,2.42 m -0.89,0 a 2.74,2.74 0 0 0 -0.7,-1.88 2.19,2.19 0 0 0 -3.37,0 2.79,2.79 0 0 0 -0.7,1.88 2.76,2.76 0 0 0 0.7,1.89 2.21,2.21 0 0 0 3.37,0 2.71,2.71 0 0 0 0.7,-1.89"
     id="path13" />
  <path
     class="cls-1"
     d="m 130.7,48.02 a 2.42,2.42 0 0 1 -0.16,0.91 2,2 0 0 1 -0.47,0.7 2.08,2.08 0 0 1 -0.72,0.44 3,3 0 0 1 -1,0.15 h -0.38 l -0.62,-0.06 v 2.47 h -0.76 v -6.55 h 2 a 2.17,2.17 0 0 1 1.59,0.51 2,2 0 0 1 0.5,1.42 m -0.84,0.05 a 1.38,1.38 0 0 0 -0.36,-1 1.45,1.45 0 0 0 -1,-0.28 h -1.11 v 2.69 a 8.27,8.27 0 0 0 0.86,0.06 2.33,2.33 0 0 0 0.85,-0.13 1.2,1.2 0 0 0 0.57,-0.5 1.66,1.66 0 0 0 0.2,-0.82"
     id="path14" />
  <path
     class="cls-1"
     d="m 138.01,49.35 a 3.35,3.35 0 0 1 -0.93,2.43 3.08,3.08 0 0 1 -2.34,0.95 3.14,3.14 0 0 1 -2.35,-0.95 3.66,3.66 0 0 1 0,-4.85 3.14,3.14 0 0 1 2.35,-1 3.09,3.09 0 0 1 2.34,1 3.28,3.28 0 0 1 0.93,2.42 m -0.89,0 a 2.74,2.74 0 0 0 -0.7,-1.88 2.18,2.18 0 0 0 -3.36,0 2.75,2.75 0 0 0 -0.71,1.88 2.72,2.72 0 0 0 0.71,1.89 2.2,2.2 0 0 0 3.36,0 2.71,2.71 0 0 0 0.7,-1.89"
     id="path15" />
  <path
     class="cls-1"
     d="m 143.98,52.61 h -0.93 l -1.8,-2.8 h -0.86 v 2.8 h -0.8 v -6.53 h 2 a 3.94,3.94 0 0 1 0.52,0 1.67,1.67 0 0 1 0.4,0.08 1,1 0 0 1 0.32,0.14 1.58,1.58 0 0 1 0.3,0.24 1.7,1.7 0 0 1 0.51,1.27 1.78,1.78 0 0 1 -0.57,1.35 1.94,1.94 0 0 1 -1,0.49 z m -1.24,-4.75 a 1.07,1.07 0 0 0 -0.35,-0.9 1.66,1.66 0 0 0 -1,-0.19 h -1 v 2.36 h 1 a 1.13,1.13 0 0 0 1.3,-1.27"
     id="path16" />
  <polygon
     class="cls-1"
     points="150.73,55.53 149.93,55.53 149.93,49.69 147.75,49.69 147.75,49.01 152.91,49.01 152.91,49.69 150.73,49.69 "
     id="polygon16"
     transform="translate(-3.41,-2.92)" />
  <path
     class="cls-1"
     d="m 156.59,49.35 a 3.39,3.39 0 0 1 -0.93,2.43 3.37,3.37 0 0 1 -4.69,0 3.63,3.63 0 0 1 0,-4.85 3.34,3.34 0 0 1 4.69,0 3.32,3.32 0 0 1 0.93,2.42 m -0.89,0 a 2.75,2.75 0 0 0 -0.71,-1.88 2.17,2.17 0 0 0 -1.67,-0.79 2.21,2.21 0 0 0 -1.69,0.79 2.74,2.74 0 0 0 -0.7,1.88 2.71,2.71 0 0 0 0.7,1.89 2.2,2.2 0 0 0 3.36,0 2.72,2.72 0 0 0 0.71,-1.89"
     id="path17" />
  <polygon
     class="cls-1"
     points="43.91,40.39 46.2,40.39 46.2,41.44 43.91,41.44 43.91,44.17 42.67,44.17 42.67,37.66 46.71,37.66 46.71,38.72 43.91,38.72 "
     id="polygon17"
     transform="translate(-3.41,-2.92)" />
  <path
     class="cls-1"
     d="m 49.37,41.25 h -1.31 l -0.47,-1.61 h -2.22 l -0.53,1.61 h -1.31 l 2.36,-6.51 h 1.12 z m -2.16,-2.66 -0.76,-2.36 -0.75,2.36 z"
     id="path18" />
  <path
     class="cls-1"
     d="m 55.14,35.24 -0.47,1 a 2.54,2.54 0 0 0 -1.5,-0.46 2.11,2.11 0 0 0 -1.58,0.6 2,2 0 0 0 -0.61,1.52 2.24,2.24 0 0 0 0.65,1.68 2.27,2.27 0 0 0 1.7,0.64 3.86,3.86 0 0 0 1.44,-0.31 l 0.22,1.05 a 4,4 0 0 1 -0.87,0.31 4.5,4.5 0 0 1 -0.51,0.08 4.63,4.63 0 0 1 -0.54,0 3.38,3.38 0 0 1 -2.36,-0.81 3.35,3.35 0 0 1 -1.1,-2.6 3.29,3.29 0 0 1 1,-2.44 3.73,3.73 0 0 1 4.5,-0.29"
     id="path19" />
  <path
     class="cls-1"
     d="m 61.59,38.71 a 3.81,3.81 0 0 1 -0.23,1.37 1.9,1.9 0 0 1 -0.7,0.83 3.84,3.84 0 0 1 -3.68,0 1.8,1.8 0 0 1 -0.7,-0.82 3.79,3.79 0 0 1 -0.19,-1.38 v -4 h 1.23 v 4 c 0,1 0.51,1.45 1.54,1.45 a 1.28,1.28 0 0 0 1.45,-1.45 v -4 h 1.28 z"
     id="path20" />
  <polygon
     class="cls-1"
     points="66.57,37.66 67.82,37.66 67.82,43.12 70.48,43.12 70.48,44.17 66.57,44.17 "
     id="polygon20"
     transform="translate(-3.41,-2.92)" />
  <path
     class="cls-1"
     d="m 73.93,37.98 a 3.26,3.26 0 0 1 -0.9,2.32 3.48,3.48 0 0 1 -2.64,1 h -2.41 v -6.56 h 2.42 a 3.41,3.41 0 0 1 2.64,1 3.23,3.23 0 0 1 0.89,2.29 m -1.35,0 a 2.07,2.07 0 0 0 -0.75,-1.77 2.57,2.57 0 0 0 -1.55,-0.38 h -1 v 4.32 h 1 a 2.42,2.42 0 0 0 1.7,-0.56 2.12,2.12 0 0 0 0.6,-1.61"
     id="path21" />
  <path
     class="cls-1"
     d="m 80.03,41.25 h -1.31 l -0.51,-1.61 h -2.18 l -0.53,1.61 h -1.31 l 2.4,-6.51 h 1.12 z m -2.16,-2.66 -0.76,-2.36 -0.75,2.36 z"
     id="path22" />
  <path
     class="cls-1"
     d="m 86.83,37.98 a 3.26,3.26 0 0 1 -0.9,2.32 3.48,3.48 0 0 1 -2.64,1 h -2.41 v -6.56 h 2.42 a 3.43,3.43 0 0 1 2.64,1 3.23,3.23 0 0 1 0.89,2.29 m -1.35,0 a 2,2 0 0 0 -0.75,-1.77 2.56,2.56 0 0 0 -1.56,-0.38 h -1 v 4.32 h 1 a 2.43,2.43 0 0 0 1.71,-0.56 2.12,2.12 0 0 0 0.6,-1.61"
     id="path23" />
  <polygon
     class="cls-1"
     points="91.37,37.66 95.34,37.66 95.34,38.71 92.61,38.71 92.61,40.32 94.84,40.32 94.84,41.38 92.61,41.38 92.61,43.12 95.47,43.12 95.47,44.17 91.37,44.17 "
     id="polygon23"
     transform="translate(-3.41,-2.92)" />
  <path
     class="cls-1"
     d="m 101.59,37.98 a 3.26,3.26 0 0 1 -0.89,2.32 3.49,3.49 0 0 1 -2.64,1 h -2.38 v -6.56 h 2.42 a 3.4,3.4 0 0 1 2.63,1 3.19,3.19 0 0 1 0.86,2.24 m -1.34,0 A 2.07,2.07 0 0 0 99.5,36.21 2.6,2.6 0 0 0 97.94,35.83 h -1 v 4.32 h 1 a 2.43,2.43 0 0 0 1.71,-0.56 2.12,2.12 0 0 0 0.6,-1.61"
     id="path24" />
  <polygon
     class="cls-1"
     points="106.17,37.66 110.14,37.66 110.14,38.71 107.41,38.71 107.41,40.32 109.64,40.32 109.64,41.38 107.41,41.38 107.41,43.12 110.26,43.12 110.26,44.17 106.17,44.17 "
     id="polygon24"
     transform="translate(-3.41,-2.92)" />
  <polygon
     class="cls-1"
     points="113.94,37.66 117.91,37.66 117.91,38.71 115.19,38.71 115.19,40.32 117.42,40.32 117.42,41.38 115.19,41.38 115.19,43.12 118.04,43.12 118.04,44.17 113.94,44.17 "
     id="polygon25"
     transform="translate(-3.41,-2.92)" />
  <path
     class="cls-1"
     d="m 121.5,41.31 h -1.3 l -2.8,-4.23 a 0.89,0.89 0 0 1 0,-0.1 c 0,0 -0.05,-0.09 -0.09,-0.16 a 0.16,0.16 0 0 0 0,-0.07 v -0.07 a 2,2 0 0 1 -0.09,-0.22 v 4.77 h -1.18 v -6.49 h 1.43 l 2.74,4.28 a 0.52,0.52 0 0 0 0.06,0.14 l 0.07,0.13 v 0.17 l 0.06,0.12 v -4.84 h 1.18 z"
     id="path25" />
  <path
     class="cls-1"
     d="m 128.73,41.01 -0.3,0.07 -0.36,0.08 a 6.94,6.94 0 0 1 -1.64,0.22 3.77,3.77 0 0 1 -2.65,-0.94 3.19,3.19 0 0 1 -1,-2.45 3.23,3.23 0 0 1 1.08,-2.49 3.62,3.62 0 0 1 2.55,-0.87 5.72,5.72 0 0 1 1.36,0.15 l 0.44,0.13 0.53,0.21 -0.3,1 -0.25,-0.04 -0.3,-0.11 a 4.15,4.15 0 0 0 -1.34,-0.23 2.59,2.59 0 0 0 -1.79,0.61 2,2 0 0 0 -0.69,1.58 2.22,2.22 0 0 0 0.74,1.68 2.68,2.68 0 0 0 1.83,0.67 3.32,3.32 0 0 0 0.84,-0.14 v -1.8 h 1.25 z"
     id="path26" />
  <polygon
     class="cls-1"
     points="133.75,37.66 137.72,37.66 137.72,38.71 135,38.71 135,40.32 137.23,40.32 137.23,41.38 135,41.38 135,43.12 137.85,43.12 137.85,44.17 133.75,44.17 "
     id="polygon26"
     transform="translate(-3.41,-2.92)" />
  <path
     class="cls-1"
     d="M 141.31,41.31 H 140 l -2.79,-4.23 -0.06,-0.1 c 0,0 -0.05,-0.09 -0.08,-0.16 a 0.43,0.43 0 0 0 0,-0.07 v -0.07 a 0.65,0.65 0 0 1 -0.08,-0.22 v 4.77 h -1.19 v -6.49 h 1.43 l 2.73,4.28 0.07,0.14 0.06,0.13 0.06,0.17 0.06,0.12 v -4.84 h 1.18 z"
     id="path27" />
  <polygon
     class="cls-1"
     points="151.15,41.38 147.81,41.38 147.81,44.17 146.57,44.17 146.57,37.66 147.81,37.66 147.81,40.26 151.15,40.26 151.15,37.66 152.4,37.66 152.4,44.17 151.15,44.17 "
     id="polygon27"
     transform="translate(-3.41,-2.92)" />
  <path
     class="cls-1"
     d="m 155.73,41.25 h -1.31 l -0.51,-1.61 h -2.18 l -0.54,1.61 h -1.3 l 2.36,-6.51 h 1.12 z m -2.14,-2.66 -0.77,-2.36 -0.75,2.36 z"
     id="path28" />
  <path
     class="cls-1"
     d="M 161.36,41.25 H 160 l -1.49,-2.6 h -0.62 v 2.6 h -1.25 v -6.51 h 2.17 0.63 l 0.47,0.08 a 1.94,1.94 0 0 1 0.36,0.15 1.66,1.66 0 0 1 0.31,0.23 1.82,1.82 0 0 1 0.54,1.41 1.92,1.92 0 0 1 -0.36,1.23 1.81,1.81 0 0 1 -1,0.6 z m -1.53,-4.59 a 0.78,0.78 0 0 0 -0.26,-0.67 1.45,1.45 0 0 0 -0.87,-0.19 h -0.81 v 1.79 h 0.81 c 0.75,0 1.13,-0.31 1.13,-0.93"
     id="path29" />
  <rect
     class="cls-1"
     x="162.39"
     y="34.740002"
     width="1.24"
     height="6.52"
     id="rect29" />
  <path
     class="cls-1"
     d="m 170.35,41.25 h -1.31 l -0.51,-1.61 h -2.18 l -0.53,1.61 h -1.31 l 2.36,-6.51 h 1.12 z m -2.15,-2.66 -0.77,-2.36 -0.74,2.36 z"
     id="path30" />
  <path
     class="cls-1"
     d="M 39.26,5.47 H 36.51 V 5.08 h 7.94 a 9.78,9.78 0 0 1 5.36,1.28 4.57,4.57 0 0 1 2,4.16 4.53,4.53 0 0 1 -2.1,4.09 9,9 0 0 1 -5,1.36 5.84,5.84 0 0 1 -2.61,-0.48 v 8.78 h 2.84 v 0.45 h -8.43 v -0.45 h 2.75 z m 2.85,9.42 a 4.11,4.11 0 0 0 0.93,0.4 4,4 0 0 0 1.21,0.18 5,5 0 0 0 3.15,-1.1 4.38,4.38 0 0 0 1.39,-3.65 5.52,5.52 0 0 0 -1.24,-4 5,5 0 0 0 -3.75,-1.27 h -1.69 z"
     id="path31" />
  <path
     class="cls-1"
     d="m 63.11,4.61 a 8,8 0 0 1 6.17,3 10.59,10.59 0 0 1 2.63,7.24 10.62,10.62 0 0 1 -2.6,7.23 7.88,7.88 0 0 1 -12.37,0 10.61,10.61 0 0 1 -2.63,-7.23 10.63,10.63 0 0 1 2.6,-7.25 8,8 0 0 1 6.2,-3 m 0,20 a 4.27,4.27 0 0 0 3.48,-1.52 8.56,8.56 0 0 0 1.69,-3.73 23.5,23.5 0 0 0 0.43,-4.49 24.1,24.1 0 0 0 -0.41,-4.54 8.28,8.28 0 0 0 -1.65,-3.69 4.33,4.33 0 0 0 -3.54,-1.55 4.27,4.27 0 0 0 -3.52,1.54 8.62,8.62 0 0 0 -1.69,3.73 23.53,23.53 0 0 0 -0.43,4.5 24.07,24.07 0 0 0 0.41,4.53 8.4,8.4 0 0 0 1.71,3.7 4.33,4.33 0 0 0 3.57,1.57"
     id="path32" />
  <path
     class="cls-1"
     d="M 76.68,5.47 H 73.9 V 5.08 h 8.55 a 9.83,9.83 0 0 1 4.83,1 c 1.24,0.69 1.86,2 1.86,3.91 a 3.46,3.46 0 0 1 -1.84,3.27 11.49,11.49 0 0 1 -4.13,1.29 7.62,7.62 0 0 1 3.83,1.18 c 0.79,0.6 1.29,1.78 1.5,3.52 l 0.38,3.4 a 2.28,2.28 0 0 0 0.55,1.43 1.36,1.36 0 0 0 0.9,0.35 3.12,3.12 0 0 0 1.14,-0.35 l 0.17,0.36 a 6.16,6.16 0 0 1 -1,0.27 8,8 0 0 1 -1.29,0.09 c -1.54,0 -2.53,-0.35 -3,-1.07 a 11,11 0 0 1 -1,-3.94 l -0.19,-1.67 a 4.29,4.29 0 0 0 -0.93,-2.48 3.83,3.83 0 0 0 -2.92,-0.87 h -1.79 v 9.42 h 2.84 v 0.45 H 73.9 v -0.45 h 2.78 z m 2.84,8.89 h 1.4 a 6.3,6.3 0 0 0 3.9,-1 4,4 0 0 0 1.31,-3.37 5,5 0 0 0 -1,-3.26 C 84.46,5.91 83.23,5.49 81.43,5.49 h -1.9 z"
     id="path33" />
  <path
     class="cls-1"
     d="m 99.7,5.47 h -0.58 c -2.53,0 -4.17,0.32 -4.94,1 -0.77,0.68 -1.14,2.1 -1.14,4.36 H 92.59 V 5.08 h 17 v 5.76 h -0.45 c 0,-2.24 -0.38,-3.69 -1.14,-4.34 -0.76,-0.65 -2.4,-1 -4.9,-1 h -0.51 v 18.72 h 2.87 v 0.45 h -8.58 v -0.45 h 2.87 z"
     id="path34" />
  <path
     class="cls-1"
     d="m 120.49,4.61 a 8,8 0 0 1 6.17,3 10.59,10.59 0 0 1 2.63,7.24 10.62,10.62 0 0 1 -2.6,7.23 7.88,7.88 0 0 1 -12.37,0 10.56,10.56 0 0 1 -2.63,-7.23 10.68,10.68 0 0 1 2.6,-7.25 8,8 0 0 1 6.2,-3 m 0,20 a 4.24,4.24 0 0 0 3.51,-1.52 8.56,8.56 0 0 0 1.69,-3.73 23.5,23.5 0 0 0 0.43,-4.49 25,25 0 0 0 -0.4,-4.54 8.41,8.41 0 0 0 -1.66,-3.69 4.33,4.33 0 0 0 -3.57,-1.55 4.27,4.27 0 0 0 -3.51,1.57 8.62,8.62 0 0 0 -1.69,3.73 23.53,23.53 0 0 0 -0.43,4.5 24.07,24.07 0 0 0 0.41,4.53 8.4,8.4 0 0 0 1.65,3.67 4.33,4.33 0 0 0 3.57,1.57"
     id="path35" />
  <path
     class="cls-1"
     d="m 28.45,24.3 a 2,2 0 1 1 0,-2.8 2,2 0 0 1 0,2.8 M 24.03,5.5 h -0.72 a 1.19,1.19 0 0 0 -1.1,0.57 3.51,3.51 0 0 0 -0.35,1.77 v 10.4 a 6.72,6.72 0 0 1 -1.82,5 q -1.83,1.84 -5.53,1.84 a 7.89,7.89 0 0 1 -5.48,-1.85 6.52,6.52 0 0 1 -2,-5.08 V 5.5 H 4.81 V 5 h 8.78 v 0.5 h -2.26 v 12.24 a 8.77,8.77 0 0 0 1,4.67 3.86,3.86 0 0 0 3.88,1.67 4.59,4.59 0 0 0 3.29,-1.45 5.72,5.72 0 0 0 1.42,-4.17 V 7.84 A 3.06,3.06 0 0 0 20.51,6.08 1.19,1.19 0 0 0 19.33,5.54 h -0.81 v -0.5 h 5.51 z m -24,24.2 H 33.76 V 0 H 0 Z"
     id="path36" />
  <path
     class="cls-2"
     d="M 207.89,22.2 V 0.73 h 6 a 9.44,9.44 0 0 1 4.88,1.24 8.32,8.32 0 0 1 3.27,3.52 11.66,11.66 0 0 1 1.17,5.25 v 1.34 a 11.79,11.79 0 0 1 -1.15,5.33 8.24,8.24 0 0 1 -3.3,3.51 10.05,10.05 0 0 1 -5,1.25 z m 2.79,-19.12 v 16.81 h 2.91 a 6.32,6.32 0 0 0 5,-2 8.53,8.53 0 0 0 1.79,-5.8 v -1.3 a 8.64,8.64 0 0 0 -1.66,-5.71 6,6 0 0 0 -4.79,-2 z"
     id="path37" />
  <path
     class="cls-2"
     d="m 239.32,12.28 h -9.16 v 7.61 H 240.8 V 22.2 H 227.38 V 0.73 h 13.27 V 3.08 H 230.16 V 10 h 9.16 z"
     id="path38" />
  <path
     class="cls-2"
     d="m 247.25,22.2 h -2.78 V 0.73 h 2.78 z"
     id="path39" />
  <path
     class="cls-2"
     d="m 208.59,40.08 v -7.24 h 2 a 3.36,3.36 0 0 1 1.67,0.41 2.8,2.8 0 0 1 1.12,1.19 3.75,3.75 0 0 1 0.4,1.77 v 0.46 a 3.94,3.94 0 0 1 -0.39,1.8 2.86,2.86 0 0 1 -1.13,1.18 3.6,3.6 0 0 1 -1.67,0.43 z m 1,-6.45 v 5.67 h 1 a 2.19,2.19 0 0 0 1.72,-0.69 2.85,2.85 0 0 0 0.61,-2 v -0.42 a 2.88,2.88 0 0 0 -0.58,-1.92 2.05,2.05 0 0 0 -1.64,-0.69 z"
     id="path40" />
  <path
     class="cls-2"
     d="m 219.36,36.73 h -3.13 v 2.56 h 3.64 v 0.79 h -4.6 v -7.24 h 4.55 v 0.78 h -3.59 v 2.33 h 3.13 z"
     id="path41" />
  <path
     class="cls-2"
     d="m 222.01,37.24 v 2.84 h -0.95 v -7.24 h 2.67 a 2.7,2.7 0 0 1 1.86,0.6 2.1,2.1 0 0 1 0.67,1.61 2,2 0 0 1 -0.66,1.62 2.8,2.8 0 0 1 -1.88,0.57 z m 0,-0.78 h 1.72 a 1.71,1.71 0 0 0 1.17,-0.36 1.33,1.33 0 0 0 0.41,-1 1.37,1.37 0 0 0 -0.41,-1 1.61,1.61 0 0 0 -1.12,-0.4 h -1.77 z"
     id="path42" />
  <path
     class="cls-2"
     d="m 230.79,38.18 h -3 l -0.72,1.9 h -1 l 2.76,-7.23 h 0.84 l 2.78,7.23 h -1 z m -2.75,-0.78 h 2.46 l -1.23,-3.39 z"
     id="path43" />
  <path
     class="cls-2"
     d="m 236.08,37.14 h -1.7 v 2.94 h -1 v -7.24 h 2.4 a 2.85,2.85 0 0 1 1.88,0.55 2,2 0 0 1 0.66,1.62 1.91,1.91 0 0 1 -0.37,1.18 2.09,2.09 0 0 1 -1,0.75 l 1.69,3.07 v 0.07 h -1 z m -1.7,-0.78 h 1.47 a 1.68,1.68 0 0 0 1.13,-0.36 1.26,1.26 0 0 0 0.42,-1 1.33,1.33 0 0 0 -0.4,-1 1.68,1.68 0 0 0 -1.16,-0.36 h -1.46 z"
     id="path44" />
  <path
     class="cls-2"
     d="m 244.29,33.62 h -2.32 v 6.46 h -0.95 v -6.46 h -2.32 v -0.78 h 5.59 z"
     id="path45" />
  <path
     class="cls-2"
     d="m 248.97,38.18 h -3 l -0.71,1.9 h -1 l 2.77,-7.23 h 0.83 l 2.78,7.23 h -1 z m -2.74,-0.78 h 2.46 l -1.24,-3.39 z"
     id="path46" />
  <path
     class="cls-2"
     d="m 252.85,32.84 2.36,5.9 2.37,-5.9 h 1.23 v 7.24 h -1 v -2.83 l 0.09,-3 -2.31,5.83 h -0.73 l -2.37,-5.84 0.1,3 v 2.84 h -1 v -7.24 z"
     id="path47" />
  <path
     class="cls-2"
     d="m 264.59,36.73 h -3.14 v 2.56 h 3.64 v 0.79 h -4.59 v -7.24 h 4.54 v 0.78 h -3.59 v 2.33 h 3.14 z"
     id="path48" />
  <path
     class="cls-2"
     d="m 271.84,40.08 h -1 l -3.64,-5.57 v 5.57 h -1 v -7.24 h 1 l 3.65,5.6 v -5.6 h 0.95 z"
     id="path49" />
  <path
     class="cls-2"
     d="m 278.39,33.62 h -2.33 v 6.46 h -1 v -6.46 h -2.27 v -0.78 h 5.6 z"
     id="path50" />
  <path
     class="cls-2"
     d="m 284.89,36.69 a 4.42,4.42 0 0 1 -0.36,1.85 2.67,2.67 0 0 1 -2.55,1.63 2.74,2.74 0 0 1 -1.51,-0.42 2.83,2.83 0 0 1 -1,-1.2 4.25,4.25 0 0 1 -0.37,-1.8 v -0.52 a 4.41,4.41 0 0 1 0.36,-1.84 2.67,2.67 0 0 1 2.54,-1.65 2.82,2.82 0 0 1 1.54,0.42 2.71,2.71 0 0 1 1,1.21 4.54,4.54 0 0 1 0.36,1.86 z m -0.95,-0.47 a 3.17,3.17 0 0 0 -0.52,-2 1.7,1.7 0 0 0 -1.45,-0.69 1.69,1.69 0 0 0 -1.42,0.69 3.19,3.19 0 0 0 -0.53,1.91 v 0.53 a 3.26,3.26 0 0 0 0.52,2 1.85,1.85 0 0 0 2.88,0 3.31,3.31 0 0 0 0.52,-1.93 z"
     id="path51" />
  <path
     class="cls-2"
     d="m 288.84,40.08 v -7.24 h 2 a 3.39,3.39 0 0 1 1.67,0.41 2.92,2.92 0 0 1 1.12,1.19 4,4 0 0 1 0.4,1.77 v 0.46 a 3.82,3.82 0 0 1 -0.4,1.8 2.83,2.83 0 0 1 -1.04,1.18 3.6,3.6 0 0 1 -1.71,0.42 z m 0.95,-6.45 v 5.67 h 1 a 2.18,2.18 0 0 0 1.72,-0.69 2.8,2.8 0 0 0 0.61,-2 v -0.42 a 2.93,2.93 0 0 0 -0.57,-1.92 2.08,2.08 0 0 0 -1.65,-0.69 z"
     id="path52" />
  <path
     class="cls-2"
     d="m 299.59,36.73 h -3.14 v 2.56 h 3.65 v 0.79 h -4.6 v -7.24 h 4.55 v 0.78 h -3.6 v 2.33 h 3.14 z"
     id="path53" />
  <path
     class="cls-2"
     d="m 212.73,49.08 h -3 v 2.2 h 3.48 v 1 h -4.73 v -7.2 h 4.69 v 1 h -3.44 v 2 h 3 z"
     id="path54" />
  <path
     class="cls-2"
     d="m 219.99,52.28 h -1.26 l -3.22,-5.13 v 5.13 h -1.26 v -7.2 h 1.26 l 3.23,5.15 v -5.15 h 1.25 z"
     id="path55" />
  <path
     class="cls-2"
     d="m 227.02,51.34 a 2.47,2.47 0 0 1 -1.09,0.78 4.55,4.55 0 0 1 -1.58,0.26 3.16,3.16 0 0 1 -1.61,-0.41 2.75,2.75 0 0 1 -1.08,-1.18 4.17,4.17 0 0 1 -0.39,-1.79 v -0.57 a 3.84,3.84 0 0 1 0.78,-2.56 2.69,2.69 0 0 1 2.19,-0.92 2.87,2.87 0 0 1 1.92,0.6 2.56,2.56 0 0 1 0.85,1.72 h -1.23 a 1.39,1.39 0 0 0 -1.51,-1.31 1.49,1.49 0 0 0 -1.29,0.61 3.11,3.11 0 0 0 -0.45,1.78 v 0.56 a 2.94,2.94 0 0 0 0.49,1.82 1.64,1.64 0 0 0 1.38,0.65 1.82,1.82 0 0 0 1.37,-0.44 v -1.42 h -1.49 v -0.95 h 2.74 z"
     id="path56" />
  <path
     class="cls-2"
     d="m 232.59,49.08 h -3 v 2.2 h 3.47 v 1 h -4.73 v -7.2 h 4.7 v 1 h -3.44 v 2 h 3 z"
     id="path57" />
  <path
     class="cls-2"
     d="m 239.89,52.28 h -1.25 l -3.23,-5.13 v 5.13 h -1.26 v -7.2 h 1.26 l 3.24,5.15 v -5.15 h 1.24 z"
     id="path58" />
  <path
     class="cls-2"
     d="m 247.12,52.28 h -1.25 v -3.2 h -3.23 v 3.2 h -1.26 v -7.2 h 1.26 v 3 h 3.23 v -3 h 1.25 z"
     id="path59" />
  <path
     class="cls-2"
     d="m 252.75,50.6 h -2.81 l -0.58,1.68 h -1.31 l 2.73,-7.2 h 1.13 l 2.74,7.23 h -1.31 z m -2.45,-1 h 2.09 l -1.05,-3 z"
     id="path60" />
  <path
     class="cls-2"
     d="m 258.13,49.5 h -1.4 v 2.78 h -1.26 v -7.2 h 2.54 a 3,3 0 0 1 1.94,0.56 2,2 0 0 1 0.68,1.62 2.07,2.07 0 0 1 -0.35,1.22 2.19,2.19 0 0 1 -1,0.75 l 1.62,3 v 0.06 h -1.31 z m -1.4,-1 h 1.29 a 1.41,1.41 0 0 0 1,-0.33 1.1,1.1 0 0 0 0.36,-0.87 1.19,1.19 0 0 0 -0.33,-0.9 1.43,1.43 0 0 0 -1,-0.33 h -1.32 z"
     id="path61" />
  <path
     class="cls-2"
     d="m 263.14,52.28 h -1.25 v -7.2 h 1.25 z"
     id="path62" />
  <path
     class="cls-2"
     d="m 268.83,50.6 h -2.8 l -0.59,1.68 h -1.31 l 2.74,-7.2 h 1.12 l 2.74,7.23 h -1.31 z m -2.45,-1 h 2.1 l -1.05,-3 z"
     id="path63" />
  <path
     class="cls-2"
     d="m 275.41,52.28 h -1.25 v -7.2 h 1.25 z"
     id="path64" />
  <path
     class="cls-2"
     d="m 282.7,52.28 h -1.26 l -3.23,-5.13 v 5.13 h -1.25 v -7.2 h 1.25 l 3.24,5.15 v -5.15 h 1.25 z"
     id="path65" />
  <path
     class="cls-2"
     d="m 288.35,49.22 h -2.91 v 3.06 h -1.26 v -7.2 h 4.6 v 1 h -3.34 v 2.15 h 2.91 z"
     id="path66" />
  <path
     class="cls-2"
     d="m 295.59,48.85 a 4.55,4.55 0 0 1 -0.36,1.87 2.76,2.76 0 0 1 -2.64,1.66 2.82,2.82 0 0 1 -2.63,-1.65 4.44,4.44 0 0 1 -0.38,-1.84 v -0.4 a 4.4,4.4 0 0 1 0.38,-1.87 2.76,2.76 0 0 1 1.06,-1.24 2.81,2.81 0 0 1 1.56,-0.43 2.93,2.93 0 0 1 1.57,0.42 2.81,2.81 0 0 1 1.06,1.22 4.35,4.35 0 0 1 0.37,1.86 z m -1.25,-0.37 a 3.12,3.12 0 0 0 -0.46,-1.85 1.6,1.6 0 0 0 -2.56,0 3.1,3.1 0 0 0 -0.47,1.81 v 0.41 a 3.16,3.16 0 0 0 0.46,1.85 1.51,1.51 0 0 0 1.29,0.65 1.47,1.47 0 0 0 1.29,-0.64 3.19,3.19 0 0 0 0.45,-1.86 z"
     id="path67" />
  <path
     class="cls-2"
     d="m 299.45,49.5 h -1.4 v 2.78 h -1.25 v -7.2 h 2.54 a 2.9,2.9 0 0 1 1.93,0.56 2,2 0 0 1 0.68,1.62 2,2 0 0 1 -0.35,1.22 2.16,2.16 0 0 1 -1,0.75 l 1.62,3 v 0.06 h -1.34 z m -1.4,-1 h 1.3 a 1.41,1.41 0 0 0 1,-0.33 1.1,1.1 0 0 0 0.36,-0.87 1.19,1.19 0 0 0 -0.33,-0.9 1.43,1.43 0 0 0 -1,-0.33 h -1.33 z"
     id="path68" />
  <path
     class="cls-2"
     d="m 304.78,45.08 2.08,5.54 2.08,-5.54 h 1.65 v 7.2 h -1.25 V 49.9 l 0.12,-3.19 -2.14,5.57 h -0.89 l -2.14,-5.57 0.13,3.19 v 2.38 h -1.25 v -7.2 z"
     id="path69" />
  <path
     class="cls-2"
     d="m 316.19,50.6 h -2.8 l -0.58,1.68 h -1.31 l 2.73,-7.2 h 1.13 l 2.74,7.23 h -1.32 z m -2.45,-1 h 2.1 l -1.05,-3 z m 1.43,-6.52 h 1.42 l -1.38,1.5 h -1 z"
     id="path70" />
  <path
     class="cls-2"
     d="m 323.59,46.08 h -2.3 v 6.2 h -1.25 v -6.2 h -2.23 v -1 h 5.78 z"
     id="path71" />
  <path
     class="cls-2"
     d="m 325.82,52.28 h -1.23 v -7.2 h 1.25 z"
     id="path72" />
  <path
     class="cls-2"
     d="m 332.89,49.93 a 2.62,2.62 0 0 1 -0.86,1.8 2.9,2.9 0 0 1 -2,0.65 2.83,2.83 0 0 1 -1.52,-0.41 2.69,2.69 0 0 1 -1,-1.16 4.22,4.22 0 0 1 -0.37,-1.76 v -0.67 a 4.27,4.27 0 0 1 0.36,-1.81 2.72,2.72 0 0 1 1,-1.2 2.93,2.93 0 0 1 1.57,-0.42 2.77,2.77 0 0 1 1.93,0.65 2.73,2.73 0 0 1 0.85,1.83 h -1.25 a 1.79,1.79 0 0 0 -0.46,-1.12 1.5,1.5 0 0 0 -1.07,-0.35 1.46,1.46 0 0 0 -1.26,0.6 3.06,3.06 0 0 0 -0.45,1.76 v 0.64 a 3.18,3.18 0 0 0 0.42,1.79 1.4,1.4 0 0 0 1.23,0.62 1.59,1.59 0 0 0 1.11,-0.34 1.74,1.74 0 0 0 0.48,-1.1 z"
     id="path73" />
  <path
     class="cls-2"
     d="m 338.06,50.6 h -2.8 l -0.59,1.68 h -1.31 l 2.74,-7.2 h 1.13 l 2.73,7.23 h -1.31 z m -2.45,-1 h 2.1 l -1.05,-3 z"
     id="path74" />
  <metadata
     id="metadata74">
    <rdf:RDF>
      <cc:Work
         rdf:about="">
        <dc:title>LOGO_DEI e feup</dc:title>
      </cc:Work>
    </rdf:RDF>
  </metadata>
</svg>
