<?xml version="1.0" encoding="UTF-8" standalone="no"?>
<svg
   id="Layer_1"
   data-name="Layer 1"
   viewBox="0 0 602.97864 539.9765"
   version="1.1"
   sodipodi:docname="editorial.svg"
   inkscape:version="1.4.3 (0d15f75042, 2025-12-25)"
   width="602.97864"
   height="539.9765"
   xmlns:inkscape="http://www.inkscape.org/namespaces/inkscape"
   xmlns:sodipodi="http://sodipodi.sourceforge.net/DTD/sodipodi-0.dtd"
   xmlns="http://www.w3.org/2000/svg"
   xmlns:svg="http://www.w3.org/2000/svg">
  <sodipodi:namedview
     id="namedview6"
     pagecolor="#000000"
     bordercolor="#999999"
     borderopacity="1"
     inkscape:showpageshadow="0"
     inkscape:pageopacity="0"
     inkscape:pagecheckerboard="0"
     inkscape:deskcolor="#d1d1d1"
     inkscape:zoom="1.526178"
     inkscape:cx="276.1801"
     inkscape:cy="676.8542"
     inkscape:window-width="2560"
     inkscape:window-height="1368"
     inkscape:window-x="0"
     inkscape:window-y="0"
     inkscape:window-maximized="1"
     inkscape:current-layer="Layer_1" />
  <defs
     id="defs1">
    <style
       id="style1">
      .cls-1 {
        fill: #fff;
      }
    </style>
  </defs>
  <g
     id="g3"
     transform="translate(-105.79498,-98.160815)">
    <path
       class="cls-1"
       d="m 500.28,502.99 c -3.74,-0.45 2.55,-14.93 3.85,-22.77 0.74,-4.47 1.98,-8.42 3.06,-12.79 0.56,-2.25 4.16,-25.01 4.36,-27.61 l 1.92,-25.14 c 0.46,-6 0.04,-11.83 -0.38,-17.82 l -1.39,-19.8 c -0.4,-5.75 -1.84,-11.21 -2.8,-16.84 -2.44,-14.21 -6.57,-27.73 -12.11,-40.99 l -6.23,-14.93 -6.02,-11.77 -4.46,-6.59 c -4.66,-6.89 -6.17,-11.87 -14.26,-21.7 l -7.23,-8.79 c -5.2,-6.33 -10.14,-12.35 -16.2,-17.86 l -9.48,-8.62 c -8,-7.28 -16.15,-13.83 -25.18,-19.87 -1.51,-1.01 -1.92,-2.9 -1.2,-4.46 3.72,-8.07 9.47,-15.76 13.43,-24.77 1.53,-3.48 3.6,-6.23 5.4,-9.5 L 439.88,144 c 1.96,-3.56 3.93,-6.7 5.87,-10.26 l 7.79,-14.28 c 2.9,-5.31 7.8,-13.42 10.09,-18.95 0.46,-1.11 1.33,-2.04 2.18,-2.29 0.85,-0.25 2.58,0.31 3.53,1.34 l 11.53,12.55 13.34,15.65 12.53,16.47 c 2.45,3.22 4.88,6.37 7.18,9.7 l 13.46,19.56 7.83,12.13 8.54,14.62 c 3.26,5.59 17.77,34.47 20.09,40.23 0.42,1.03 0.02,2.56 -1.03,3.07 -4.96,2.42 -9.13,5.54 -13.83,8.39 l -18.1,10.98 c -3.83,2.32 -7.38,4.67 -11.43,6.66 -2.19,1.07 -2.96,3.31 -1.97,5.68 l 3.97,9.45 c 6.57,15.65 7.67,18.71 11.64,35.24 1.27,5.29 2.79,10.11 3.51,15.63 l 1.99,15.09 c 0.64,4.83 1.52,9.3 1.27,14.3 -0.35,7.01 0.6,13.88 -0.22,20.85 l -2.11,17.93 c -1.32,11.16 -7.43,36.35 -11.36,46.37 l -5.91,15.07 c -3.54,9.03 -7.34,17.42 -12.22,25.79 -1.02,1.76 -5.76,12.24 -7.79,12 z"
       id="path1" />
    <path
       class="cls-1"
       d="m 475.53,576.23 c -12.89,9.53 -26.01,17.26 -39.99,24.24 -1.08,0.54 -2.23,1.02 -3.47,0.26 l 17.75,-18.01 c 17.25,-17.5 32.45,-36.43 45.6,-57.2 l 10.12,-16 6.08,-10.95 c 15.97,-28.77 30.07,-68.03 32.94,-100.71 l 1.23,-14 c 1.77,-20.24 -2.61,-57.25 -9.22,-76.54 -2.89,-8.42 -7.22,-22.5 -11.01,-30.07 -1.16,-2.31 0.21,-3.54 2.03,-4.64 l 45.36,-27.6 14.89,-9.32 44.51,-27.28 c 0.68,-0.42 1.91,-0.35 1.81,0.7 -0.51,5.54 0.52,10.57 0.68,15.98 0.27,9.05 0.26,17.82 -0.01,26.87 -0.16,5.43 -1.12,10.56 -0.74,16.06 0.27,3.88 -0.41,7.52 -0.64,11.34 -1.98,32.42 -9.39,79.6 -18.59,110.49 l -5.5,18.47 c -0.57,1.91 -2.26,2.86 -4.21,2.84 L 585.98,411 c -1.26,-0.01 -2.68,0.73 -2.99,1.98 -2.24,8.93 -4.84,17.35 -7.92,26.07 -7.63,21.55 -22.83,54.9 -36.26,72.71 l -11.22,14.88 c -2.48,3.28 -4.86,6.28 -7.67,9.25 l -11.19,11.84 c -4.67,4.94 -19.09,18.53 -24.29,21.8 -3.07,1.93 -5.62,4.29 -8.91,6.72 z"
       id="path2" />
    <path
       class="cls-1"
       d="m 500.47,596.06 -10.39,5.06 -14.12,5.82 c -37.77,15.58 -75.2,25.51 -115.89,30.04 -4.44,0.49 -8.57,1.73 -13.24,0.85 -0.95,-0.18 -1.04,-1.54 -0.02,-1.66 5.38,-0.64 10.11,-2.05 15.24,-3.11 31.32,-6.49 68.46,-20.61 95.59,-37.36 9.25,-5.71 23.95,-15.31 31.92,-22.09 l 15.72,-13.36 c 18.15,-15.43 40.98,-46.69 53,-67.99 5.63,-9.97 13.07,-25.19 17.1,-35.8 l 4.44,-11.7 c 3.07,-8.09 5.75,-15.85 7.73,-24.31 0.45,-1.93 2.38,-3.51 4.57,-3.51 l 75.74,-0.02 9.13,1.03 31.11,0.03 c 2.31,0 -1.96,4.57 -3.23,6.75 -1.98,3.42 -4.48,6.12 -6.87,9.2 l -8.71,11.23 c -4.64,5.98 -17.38,20.15 -22.97,26.21 l -9.11,9.87 -16.02,15.94 -8.86,8.19 c -8.92,8.24 -17.52,16.35 -27.09,23.8 l -11.32,8.82 -14.22,10.76 -11.26,7.83 c -5.57,3.88 -10.87,7.57 -16.68,11.13 l -18.66,11.43 -10.4,5.71 c -7.25,3.98 -14.42,7.39 -22.25,11.2 z"
       id="path3" />
  </g>
  <g
     id="g6"
     transform="translate(-105.79498,-98.160815)">
    <path
       class="cls-1"
       d="m 504.05,446.93 c -0.48,4.23 -1.4,5.8 -2.74,4.72 -1.17,-10.75 -2.96,-21.32 -5.36,-31.71 -9.21,-42.88 -26.84,-86.51 -57.2,-118.7 -35.31,-37.45 -79.93,-53.78 -130.96,-55.92 -1.56,-0.07 -2.88,-0.11 -4.18,-0.76 -0.47,-1.58 -0.13,-2.96 -0.12,-4.77 l 0.19,-90.7 c 0.02,-11.77 0.5,-22.65 -0.1,-34.29 -0.2,-3.95 11.68,-1.37 15.49,-0.77 29.49,4.66 59.92,15.64 84.92,31.85 6.03,3.91 11.69,7.5 17.29,12 1.64,1.32 2.13,3.05 0.98,5.08 l -7.01,12.35 -17.58,31.58 c -0.74,1.33 -0.42,2.77 0.86,3.62 18.89,12.55 43.33,33.96 57.38,51.63 l 6.23,7.83 c 23.48,29.54 40.79,74.37 43.61,112.14 l 1.04,13.96 c 0.55,7.36 0.51,14.53 0.01,21.88 l -1.07,15.85 c -0.32,4.68 -1.27,8.94 -1.66,13.15 z"
       id="path4" />
    <path
       class="cls-1"
       d="m 504.05,446.93 c -0.41,4.46 -0.98,7.91 -1.13,11.95 -0.88,0.05 -1.04,-0.68 -2.02,-1.06 -0.15,-6.53 -1.05,-12.93 -2.1,-19.6 l -2.86,-18.28 c 1.47,-1.08 2.96,12.12 3.49,14.63 1.1,5.22 1.66,10.11 1.62,15.22 0,0.43 1.51,1.05 1.68,1.15 0.52,-0.44 0.77,-5.91 1.32,-4.01 z"
       id="path5" />
    <path
       class="cls-1"
       d="m 173.18,469.98 249.8,0.06 c 1.04,0 2.24,-0.32 2.23,-1.16 l -0.36,-27.81 -1.11,-13.94 c -1.39,-17.64 -4.68,-33.21 -9.9,-49.99 -1.94,-6.22 -4.5,-11.88 -7.22,-17.8 -9.48,-20.65 -22.69,-38.21 -40.36,-52.64 -12.29,-10.04 -25.64,-17.94 -40.55,-23.46 -12.37,-4.58 -29.56,-8.48 -42.71,-9.2 -3.62,-0.2 -7.05,0.23 -10.6,-0.49 -3.31,-0.67 -6.49,-0.73 -9.8,-0.02 -3.55,0.75 -6.98,0.28 -10.59,0.5 -18.91,1.16 -40.91,6.55 -57.72,15.25 -5.53,2.86 -10.97,5.33 -16.08,8.96 -12.41,8.8 -19,14.13 -29.36,25.62 -26.06,28.89 -38.24,66.85 -41.59,105.27 -1.05,12.11 -2.03,32.27 -1.08,43.8 l 1.13,13.85 c 1.43,17.53 5.62,35.8 11.67,52.2 12.03,32.63 34.55,60.08 65.03,77.03 23.14,12.87 44.5,17.74 70.95,20.08 l 31.06,-0.06 c 3.15,-0.01 6.03,-0.54 9.16,-0.88 38.05,-4.13 69.5,-18.16 95.01,-47.01 15.3,-17.29 24.96,-37.25 31.63,-59.32 0.59,-1.96 1.29,-3.54 1.17,-5.92 -4.36,0.14 -8.41,-0.54 -13.26,-1.18 l -37.45,-4.91 c -4.03,-0.53 -7.66,-0.91 -11.05,-2.18 -8.16,25.93 -23.39,50.6 -47.64,62.99 -10.41,5.31 -21.74,8.6 -33.55,9.25 -21.5,1.18 -37.01,-0.78 -56.22,-10.7 -10.83,-5.6 -21.58,-15.27 -29.44,-24.54 -18.3,-21.61 -26.21,-53.8 -27.29,-81.5 2.18,-0.57 3.58,-0.15 6.09,-0.15 z m 20.02,-112.73 13.65,-13.46 c 14.03,-13.83 40.81,-21.41 61.04,-21.34 19.7,0.06 42.33,6.33 57.21,19.5 5.52,4.88 10.71,9.88 15.38,15.62 14.05,17.25 19.06,41.46 21.41,63.44 h -192 c 2.33,-24.93 8.11,-43.8 23.31,-63.76 z"
       id="path6" />
  </g>
</svg>
