<?xml version="1.0" encoding="UTF-8" standalone="no"?>
<!-- Created with Inkscape (http://www.inkscape.org/) -->

<svg
   version="1.1"
   id="svg2"
   width="729.87201"
   height="411.91467"
   viewBox="0 0 729.87201 411.91467"
   sodipodi:docname="pc_logo.svg"
   inkscape:version="1.2.2 (b0a8486541, 2022-12-01)"
   xmlns:inkscape="http://www.inkscape.org/namespaces/inkscape"
   xmlns:sodipodi="http://sodipodi.sourceforge.net/DTD/sodipodi-0.dtd"
   xmlns="http://www.w3.org/2000/svg"
   xmlns:svg="http://www.w3.org/2000/svg">
  <defs
     id="defs6">
    <clipPath
       clipPathUnits="userSpaceOnUse"
       id="clipPath18">
      <path
         d="M 0,308.936 H 547.404 V 0 H 0 Z"
         id="path16" />
    </clipPath>
  </defs>
  <sodipodi:namedview
     id="namedview4"
     pagecolor="#ffffff"
     bordercolor="#000000"
     borderopacity="0.25"
     inkscape:showpageshadow="2"
     inkscape:pageopacity="0.0"
     inkscape:pagecheckerboard="0"
     inkscape:deskcolor="#d1d1d1"
     showgrid="false"
     inkscape:zoom="1.8037716"
     inkscape:cx="324.32044"
     inkscape:cy="189.04833"
     inkscape:window-width="2560"
     inkscape:window-height="1367"
     inkscape:window-x="0"
     inkscape:window-y="0"
     inkscape:window-maximized="1"
     inkscape:current-layer="g10">
    <inkscape:page
       x="0"
       y="0"
       id="page8"
       width="729.87201"
       height="411.91467" />
  </sodipodi:namedview>
  <g
     id="g10"
     inkscape:groupmode="layer"
     inkscape:label="Page 1"
     transform="matrix(1.3333333,0,0,-1.3333333,0,411.91467)">
    <g
       id="g12">
      <g
         id="g14"
         clip-path="url(#clipPath18)">
        <g
           id="g20"
           transform="translate(490.2527,135.4674)">
          <path
             d="M 0,0 C 0.829,0.612 1.766,1.888 2.51,3.542 2.968,4.562 3.48,5.585 3.395,6.829 1.981,5.413 0.208,1.813 0,0 m -125.229,-5.996 c -1.556,-0.492 -3.497,-1.825 -5.472,-3.757 -2.132,-2.085 -4.046,-4.619 -4.499,-5.955 3.355,1.205 9.04,6.543 9.971,9.712 m 60.312,54.178 c -0.967,0.006 -1.391,-0.493 -1.787,-1.16 -1.713,-2.881 -3.461,-5.74 -5.218,-8.594 -1.28,-2.079 -2.605,-4.131 -3.889,-6.208 -2.04,-3.301 -3.961,-6.668 -5.583,-10.197 -0.26,-0.565 -0.529,-1.128 -0.738,-1.712 -0.577,-1.618 -1.073,-3.267 -1.696,-4.866 -0.982,-2.526 -1.358,-5.173 -1.698,-7.831 -0.076,-0.593 -0.133,-1.202 -0.045,-1.799 0.428,-0.018 0.571,0.258 0.752,0.45 2.24,2.366 4.498,4.715 6.699,7.117 2.235,2.439 4.327,4.999 6.247,7.695 2.005,2.816 3.77,5.767 5.138,8.951 1.944,4.525 2.821,9.23 2.457,14.152 -0.099,1.337 -0.293,2.661 -0.639,4.002 M -311.689,117.1 c -1.942,-4.672 -3.819,-9.234 -5.735,-13.779 -2.401,-5.695 -4.823,-11.382 -6.832,-17.229 -6.055,-17.62 -12.219,-35.204 -17.847,-52.969 -1.446,-4.566 -2.94,-9.117 -4.412,-13.675 -0.158,-0.488 -0.399,-0.963 -0.285,-1.536 0.412,0 0.794,-0.049 1.16,0.008 3.031,0.467 6.076,0.868 9.086,1.451 8.708,1.688 17.284,3.928 25.755,6.544 10.764,3.323 21.325,7.208 31.616,11.806 9.336,4.172 18.352,8.932 26.866,14.615 9.021,6.022 17.235,12.97 24.414,21.124 2.328,2.646 3.447,5.728 3.487,9.203 0.037,3.286 -0.842,6.346 -2.546,9.163 -0.272,0.451 -0.573,0.889 -0.804,1.36 -2.553,5.221 -6.38,9.298 -11.193,12.491 -3.05,2.024 -6.329,3.595 -9.751,4.875 -6.541,2.447 -13.337,3.856 -20.217,4.901 -3.269,0.496 -6.547,0.952 -9.831,1.339 -3.139,0.37 -6.27,0.892 -9.453,0.736 -0.574,-0.028 -1.152,0.004 -1.726,0.04 -3.255,0.204 -6.51,0.409 -9.764,0.632 -2.689,0.184 -5.373,0.138 -8.043,-0.208 -1.326,-0.171 -2.653,-0.393 -3.945,-0.892 m 39.62,-133.196 c 0.157,0.164 0.291,0.36 0.473,0.487 6.258,4.37 11.382,9.821 15.498,16.235 0.155,0.241 0.271,0.527 0.477,0.715 0.787,0.72 1.069,1.677 1.338,2.654 0.216,0.784 0.426,1.575 0.72,2.331 0.95,2.441 3.031,3.107 5.09,2.702 0.499,-0.098 0.869,-0.299 1.201,-0.686 2.397,-2.791 3.031,-5.935 1.797,-9.389 -0.481,-1.345 -1.139,-2.637 -1.814,-3.902 -0.767,-1.436 -1.673,-2.797 -2.462,-4.222 -0.579,-1.046 -1.079,-2.136 -1.584,-3.22 -0.133,-0.286 -0.15,-0.625 -0.231,-0.989 0.46,-0.162 0.855,-0.301 1.203,-0.424 0.148,0.092 0.251,0.124 0.305,0.194 1.655,2.142 3.675,3.908 5.753,5.618 1.259,1.036 2.546,2.045 3.734,3.158 1.012,0.946 1.974,1.966 2.827,3.056 1.366,1.744 2.06,3.778 2.142,5.996 0.071,1.945 0.933,3.505 2.332,4.766 1.49,1.344 3.219,1.569 5.095,0.859 0.487,-0.184 0.786,-0.482 1.015,-0.938 0.706,-1.407 1,-2.886 0.913,-4.453 -0.095,-1.707 -0.606,-3.303 -1.374,-4.804 -0.719,-1.406 -1.539,-2.761 -2.331,-4.129 -0.744,-1.286 -1.565,-2.531 -2.245,-3.848 -0.525,-1.016 -0.901,-2.11 -1.303,-3.184 -0.089,-0.236 -0.013,-0.534 -0.013,-0.84 2.268,0.535 4.22,1.53 6.043,2.801 1.618,1.128 3.092,2.429 4.503,3.802 1.41,1.371 2.759,2.808 4.222,4.12 0.901,0.807 1.474,1.735 1.753,2.883 0.068,0.279 0.155,0.554 0.235,0.83 0.44,1.518 0.863,3.041 1.326,4.552 0.493,1.608 1.149,3.146 2.055,4.574 1.281,2.019 3.109,3.381 5.257,4.316 2.016,0.876 4.361,0.121 5.374,-1.745 0.813,-1.497 1.183,-3.122 0.965,-4.854 -0.178,-1.419 -0.742,-2.676 -1.558,-3.82 -0.667,-0.936 -1.419,-1.811 -2.111,-2.73 -0.548,-0.727 -1.112,-1.448 -1.581,-2.225 -1.304,-2.159 -1.352,-4.367 -0.018,-6.526 0.678,-1.098 1.476,-2.123 2.232,-3.172 0.126,-0.175 0.317,-0.302 0.558,-0.524 0.053,0.328 0.087,0.51 0.111,0.693 0.513,3.951 1.288,7.847 2.401,11.675 2.086,7.173 5.177,13.906 8.898,20.363 2.852,4.949 6.047,9.673 9.4,14.294 0.274,0.379 0.596,0.731 0.766,1.136 -0.075,0.098 -0.101,0.159 -0.122,0.157 -0.763,-0.061 -1.526,-0.125 -2.288,-0.194 -4.682,-0.425 -9.332,-1.099 -13.967,-1.862 -8.323,-1.369 -16.58,-3.08 -24.794,-4.999 -6.811,-1.591 -13.619,-3.189 -20.428,-4.789 -1.585,-0.373 -3.199,-0.665 -4.742,-1.17 -4.622,-1.513 -8.507,-4.143 -11.584,-7.934 -1.918,-2.362 -3.402,-4.983 -4.614,-7.763 -1.478,-3.391 -2.57,-6.913 -3.466,-10.494 -1.082,-4.322 -2.117,-8.655 -3.175,-12.983 -0.137,-0.558 -0.312,-1.108 -0.419,-1.671 -0.028,-0.143 0.138,-0.323 0.214,-0.486 -0.027,0.086 -0.052,0.172 -0.085,0.256 -0.004,0.009 -0.053,0.001 -0.081,0.002 0.055,-0.086 0.11,-0.171 0.164,-0.256 m 230.544,26.747 c 0.156,0.085 0.349,0.136 0.463,0.259 3.893,4.179 7.745,8.394 11.192,12.958 2.665,3.529 5.047,7.232 6.909,11.256 1.476,3.191 2.556,6.508 3.222,9.959 0.2,1.043 0.307,2.095 -0.128,3.113 -0.082,0.192 -0.235,0.354 -0.426,0.633 -0.691,-0.829 -1.304,-1.558 -1.91,-2.294 -3.511,-4.258 -6.939,-8.579 -9.99,-13.186 -2.867,-4.329 -5.363,-8.853 -7.173,-13.735 -0.902,-2.431 -1.599,-4.922 -2.082,-7.468 -0.093,-0.492 -0.345,-1.011 -0.054,-1.528 -0.061,-0.002 -0.122,-0.004 -0.184,-0.007 0.009,-0.039 0.017,-0.079 0.025,-0.118 0.045,0.052 0.091,0.105 0.136,0.158 m -220.042,27.316 c -0.154,-0.409 -0.567,-0.483 -0.887,-0.658 -3.617,-1.972 -7.237,-3.936 -10.864,-5.889 -0.504,-0.271 -1.039,-0.488 -1.571,-0.704 -3.016,-1.223 -6.036,-2.439 -9.055,-3.657 -0.627,-0.079 -1.172,-0.335 -1.811,-0.787 0.743,-0.063 1.267,0.125 1.792,0.302 3.229,0.641 6.466,1.243 9.685,1.934 3.646,0.782 7.196,1.889 10.592,3.45 0.467,0.215 0.915,0.469 1.315,0.675 0.085,0.916 0.164,1.721 0.236,2.527 0.073,0.824 0.392,1.567 0.72,2.313 0.054,0.121 -0.092,0.331 -0.148,0.498 0.017,-0.078 0.028,-0.158 0.054,-0.233 0.01,-0.032 0.051,-0.053 0.079,-0.08 0.017,0.049 0.063,0.118 0.045,0.142 -0.046,0.066 -0.12,0.112 -0.182,0.167 m 135.538,-58.578 c 0.142,0.071 0.285,0.141 0.428,0.211 1.026,0.5 2.054,0.994 3.073,1.508 0.099,0.05 0.136,0.223 0.224,0.379 -0.292,0.252 -0.567,0.491 -0.887,0.768 -0.839,-0.742 -1.621,-1.434 -2.402,-2.126 -0.209,-0.175 -0.418,-0.351 -0.628,-0.526 -0.08,-0.075 -0.16,-0.15 -0.241,-0.225 0.11,-0.018 0.218,-0.043 0.328,-0.051 0.033,-0.003 0.07,0.04 0.105,0.062 m -254.369,-110.688 c -0.189,0.52 -0.794,0.421 -1.155,0.788 -0.27,0.381 -0.186,0.88 -0.192,1.346 -0.057,4.461 -0.163,8.923 -0.121,13.384 0.04,4.316 0.153,8.636 0.387,12.946 0.238,4.404 0.614,8.803 1.019,13.196 0.352,3.82 0.741,7.64 1.27,11.437 0.742,5.316 1.588,10.619 2.464,15.915 1.118,6.762 2.539,13.465 4.042,20.152 2.334,10.381 5.018,20.671 7.971,30.891 1.861,6.442 3.834,12.851 5.756,19.276 0.067,0.225 0.119,0.454 0.167,0.639 -0.246,0.354 -0.553,0.249 -0.811,0.226 -2.388,-0.212 -4.779,-0.4 -7.16,-0.677 -4,-0.464 -7.989,-1.024 -11.991,-1.467 -1.232,-0.136 -2.491,-0.035 -3.737,-0.023 -9.019,0.084 -18.037,0.169 -27.055,0.262 -3.07,0.032 -6.14,0.067 -9.209,0.145 -0.758,0.019 -1.515,0.193 -2.267,0.332 -4.146,0.767 -8.294,1.529 -12.435,2.324 -4.663,0.895 -9.278,1.978 -13.707,3.737 -2.501,0.994 -4.9,2.187 -7.134,3.698 -0.313,0.211 -0.611,0.445 -0.98,0.714 0.3,0.631 0.58,1.227 0.868,1.82 0.269,0.557 0.547,1.109 0.848,1.717 0.278,-0.057 0.504,-0.093 0.724,-0.151 5.465,-1.44 10.93,-2.883 16.395,-4.324 0.648,-0.171 1.302,-0.322 1.945,-0.51 2.679,-0.784 5.432,-1.177 8.19,-1.525 2.949,-0.371 5.897,-0.768 8.857,-1.031 3.343,-0.297 6.696,-0.522 10.05,-0.663 5.369,-0.227 10.745,-0.228 16.114,0.009 3.688,0.163 7.374,0.429 11.051,0.761 3.772,0.34 7.54,0.75 11.293,1.253 3.894,0.521 7.768,1.191 11.65,1.797 0.045,0.007 0.085,0.04 0.225,0.11 0.172,0.46 0.374,0.994 0.572,1.53 5.706,15.46 10.87,31.109 16.112,46.73 2.774,8.264 5.556,16.525 8.334,24.787 0.107,0.318 0.246,0.631 0.304,0.958 0.357,2.006 1.187,3.838 2.045,5.661 0.509,1.084 1.002,2.163 1.086,3.4 0.03,0.441 0.349,0.876 0.58,1.289 2.541,4.528 4.628,9.253 6.186,14.208 0.071,0.228 0.142,0.457 0.197,0.689 0.021,0.089 -0.006,0.188 -0.016,0.385 -0.249,0.02 -0.514,0.075 -0.773,0.057 -3.541,-0.245 -7.084,-0.458 -10.619,-0.765 -2.865,-0.249 -5.727,-0.566 -8.579,-0.939 -3.564,-0.465 -7.127,-0.954 -10.672,-1.547 -6.997,-1.171 -13.935,-2.638 -20.816,-4.371 -13.354,-3.363 -26.38,-7.717 -39.14,-12.889 -3.151,-1.277 -6.363,-2.404 -9.513,-3.683 -10.194,-4.14 -19.97,-9.091 -29.139,-15.2 -6.005,-4.001 -11.634,-8.462 -16.673,-13.645 -4.404,-4.529 -8.214,-9.499 -11.176,-15.096 -0.112,-0.212 -0.232,-0.419 -0.359,-0.622 -0.05,-0.079 -0.129,-0.14 -0.239,-0.256 -1.826,0 -3.695,0.003 -5.565,-0.003 -0.283,-0.001 -0.612,0.387 -0.845,-0.089 v 0.576 c 0.22,-0.113 0.384,-0.017 0.399,0.195 0.081,1.086 0.136,2.173 0.201,3.26 0.071,0.225 0.175,0.446 0.209,0.677 0.375,2.54 1.224,4.924 2.401,7.192 1.674,3.225 3.938,6.006 6.527,8.533 3.24,3.163 6.838,5.878 10.64,8.312 7.145,4.572 14.364,9.03 21.761,13.186 23.125,12.99 47.633,22.402 73.477,28.353 6.445,1.484 12.924,2.798 19.467,3.773 4.55,0.679 9.109,1.303 13.671,1.899 3.8,0.497 7.635,0.673 11.433,1.228 1.605,0.234 3.251,0.179 4.876,0.288 1.003,0.067 2.013,0.132 2.998,0.315 1.143,0.212 1.617,0.814 1.757,1.973 0.023,0.189 0.04,0.385 0.021,0.574 -0.057,0.557 0.144,1.013 0.445,1.473 1.393,2.129 2.6,4.363 3.667,6.67 1.447,3.131 2.861,6.276 4.292,9.414 1.631,3.576 3.346,7.109 5.423,10.454 3.1,4.992 6.923,9.297 11.85,12.566 0.219,0.146 0.371,0.395 0.554,0.596 h 0.576 c -0.026,-0.331 0.268,-0.353 0.459,-0.449 0.598,-0.303 1.222,-0.556 1.81,-0.876 1.47,-0.8 2.223,-2.072 2.317,-3.728 0.037,-0.667 0.006,-1.338 0.006,-2.06 -1.635,-0.731 -3.377,-0.607 -5.111,-0.727 -0.101,-0.317 -0.232,-0.576 -0.261,-0.846 -0.218,-2.039 -0.917,-3.921 -1.917,-5.684 -0.732,-1.29 -1.565,-2.525 -2.389,-3.76 -0.719,-1.077 -1.499,-2.112 -2.237,-3.177 -1.094,-1.58 -2.055,-3.227 -2.683,-5.063 -0.607,-1.777 -1.54,-3.404 -2.524,-4.995 -1.034,-1.672 -2.14,-3.301 -3.136,-4.995 -0.824,-1.401 -1.568,-2.853 -2.285,-4.313 -0.507,-1.033 -0.808,-2.147 -0.97,-3.273 0.3,-0.497 0.779,-0.339 1.182,-0.35 4.364,-0.121 8.73,-0.193 13.093,-0.344 5.034,-0.173 10.071,-0.338 15.098,-0.642 5.697,-0.344 11.373,-0.952 16.998,-1.959 7.15,-1.28 14.115,-3.178 20.678,-6.366 7.797,-3.787 14.255,-9.136 19.107,-16.374 2.515,-3.752 4.281,-7.812 5.183,-12.231 0.698,-3.421 0.758,-6.852 -0.07,-10.275 -0.832,-3.437 -2.496,-6.411 -4.905,-8.983 -0.984,-1.05 -1.966,-2.101 -2.938,-3.162 -4.263,-4.65 -9.008,-8.759 -14.064,-12.516 -5.434,-4.039 -11.15,-7.645 -17.003,-11.039 -0.456,-0.264 -0.91,-0.532 -1.362,-0.804 -0.08,-0.048 -0.141,-0.126 -0.295,-0.267 0.813,-0.36 1.71,-0.366 2.377,-0.9 0.632,-0.506 1.248,-1.033 1.924,-1.595 -0.164,-1.206 -0.323,-2.374 -0.499,-3.669 0.392,0.051 0.679,0.031 0.918,0.129 1.969,0.806 4.063,1.108 6.123,1.544 2.86,0.604 5.716,1.234 8.591,1.758 2.64,0.481 5.31,0.797 7.955,1.254 4.533,0.784 9.066,1.578 13.584,2.448 8.706,1.674 17.395,3.435 26.103,5.099 4.849,0.926 9.718,1.74 14.584,2.574 0.668,0.114 1.116,0.425 1.537,0.929 3.974,4.751 8.162,9.306 12.628,13.601 6.695,6.439 13.902,12.222 21.883,17.006 5.608,3.362 11.485,6.148 17.665,8.295 0.888,0.309 1.714,0.426 2.654,0.23 1.222,-0.256 2.445,-0.488 3.605,-0.957 1.902,-0.768 3.315,-2.067 4.199,-3.937 0.278,-0.589 0.345,-1.132 0.142,-1.787 -0.578,-1.857 -1.629,-3.348 -3.185,-4.496 -1.329,-0.979 -2.811,-1.677 -4.394,-2.083 -2.132,-0.548 -4.298,-0.967 -6.454,-1.419 -0.321,-0.067 -0.67,-0.029 -1.003,-0.008 -3.082,0.191 -6.002,-0.453 -8.818,-1.669 -2.793,-1.206 -5.323,-2.842 -7.724,-4.692 -3.392,-2.613 -6.467,-5.575 -9.429,-8.655 -2.927,-3.043 -5.812,-6.126 -8.713,-9.194 -0.096,-0.101 -0.165,-0.228 -0.296,-0.414 0.281,-0.464 0.588,-0.937 0.863,-1.428 0.979,-1.75 1.354,-3.573 0.617,-5.58 -2.657,-1.823 -5.623,-2.739 -8.957,-2.674 -0.271,-0.293 -0.563,-0.602 -0.848,-0.918 -4.959,-5.491 -9.583,-11.243 -13.576,-17.484 -3.448,-5.39 -6.36,-11.042 -8.365,-17.138 -1.842,-5.604 -2.824,-11.345 -2.685,-17.253 0.072,-3.075 0.464,-6.118 1.093,-9.13 0.134,-0.641 0.425,-1.141 0.88,-1.601 2.62,-2.648 5.75,-4.446 9.273,-5.583 2.567,-0.828 5.207,-1.269 7.893,-1.494 4.666,-0.391 9.302,-0.073 13.921,0.548 3.324,0.448 6.634,1.008 9.95,1.518 0.095,0.014 0.193,0.017 0.284,0.043 2.705,0.761 5.408,1.525 8.211,2.316 -1.038,0.483 -1.042,0.479 -1.624,1.266 -1.22,1.649 -2.026,3.465 -2.261,5.522 -0.215,1.894 0.153,3.615 1.357,5.135 0.476,0.6 0.892,1.248 1.326,1.88 2.912,4.237 6.032,8.307 9.646,11.978 2.906,2.952 6.058,5.597 9.691,7.629 0.251,0.14 0.505,0.274 0.847,0.46 1.002,-0.238 2.083,-0.439 3.131,-0.754 2.608,-0.785 3.752,-2.372 3.75,-5.088 0,-0.095 0.019,-0.189 0.029,-0.283 0.061,-0.069 0.108,-0.161 0.183,-0.203 1.728,-0.974 2.44,-2.517 2.423,-4.428 -0.008,-0.956 -0.121,-1.911 -0.197,-2.866 -0.027,-0.334 -0.09,-0.665 -0.127,-0.999 -0.131,-1.18 -0.128,-2.395 -1.011,-3.386 1.239,-0.728 2.522,-0.832 3.819,-0.789 1.058,0.035 2.085,0.264 3.093,0.608 1.506,0.513 2.92,1.213 4.294,1.998 1.456,0.833 2.886,1.711 4.344,2.542 1.33,0.758 2.682,1.48 4.102,2.26 0.014,0.33 0.045,0.704 0.041,1.077 -0.031,3.221 0.226,6.426 0.672,9.611 0.846,6.053 2.411,11.923 4.683,17.6 1.785,4.462 3.965,8.723 6.516,12.795 0.358,0.573 0.757,1.091 1.29,1.526 1.202,0.981 2.135,2.209 2.917,3.536 0.828,1.402 1.583,2.847 2.361,4.278 0.779,1.431 1.523,2.882 2.328,4.298 0.712,1.253 1.562,2.415 2.539,3.48 2.418,2.637 5.406,3.932 8.983,3.707 2.643,-0.167 1.996,0.196 3.815,-1.773 2.807,-3.037 4.224,-6.697 4.532,-10.796 0.299,-3.979 -0.385,-7.84 -1.511,-11.634 -0.942,-3.173 -2.19,-6.235 -3.507,-9.269 -0.114,-0.263 -0.257,-0.514 -0.399,-0.764 -5.711,-10.074 -12.576,-19.268 -20.886,-27.356 -0.825,-0.803 -1.685,-1.57 -2.529,-2.353 -0.211,-0.195 -0.437,-0.376 -0.633,-0.586 -0.396,-0.422 -0.355,-0.845 0.114,-1.225 0.185,-0.15 0.381,-0.303 0.596,-0.399 1.225,-0.543 2.452,-1.084 3.692,-1.592 0.252,-0.103 0.567,-0.102 0.847,-0.081 5.463,0.416 10.872,1.141 16.076,2.958 3.985,1.392 7.6,3.416 10.658,6.366 0.276,0.266 0.546,0.539 0.81,0.817 0.131,0.137 0.242,0.294 0.299,0.364 0.119,1.908 0.203,3.728 0.351,5.543 0.39,4.806 1.5,9.461 3.063,14.01 2.08,6.058 4.971,11.728 8.305,17.181 3.432,5.614 7.291,10.929 11.269,16.162 1.421,1.869 2.855,3.729 4.296,5.611 1.195,-0.01 2.298,0.283 3.38,0.683 0.223,0.082 0.466,0.113 0.699,0.169 1.901,0.459 3.496,-0.025 4.791,-1.512 2.042,-2.346 3.216,-5.077 3.706,-8.132 0.581,-3.621 0.142,-7.176 -0.702,-10.696 -0.74,-3.085 -1.834,-6.051 -3.206,-8.91 -0.331,-0.69 -0.71,-1.36 -1.11,-2.013 -3.567,-5.825 -7.721,-11.214 -12.159,-16.394 -3.935,-4.594 -8.087,-8.987 -12.259,-13.364 -0.265,-0.277 -0.523,-0.561 -0.801,-0.825 -0.299,-0.283 -0.426,-0.61 -0.411,-1.024 0.076,-2.014 0.112,-4.035 0.703,-5.984 0.221,-0.729 0.497,-1.455 0.848,-2.129 0.813,-1.562 2.106,-2.599 3.779,-3.125 1.607,-0.505 3.26,-0.778 4.944,-0.879 5.384,-0.32 10.476,0.883 15.39,2.976 2.295,0.978 4.493,2.147 6.581,3.518 0.226,0.528 0.062,1.055 0.039,1.571 -0.484,10.816 3.685,19.4 12.41,25.764 2.796,2.04 6.148,1.256 7.847,-1.771 0.441,-0.787 0.761,-1.653 1.051,-2.512 0.321,-0.952 0.556,-1.934 0.802,-2.91 0.092,-0.368 0.131,-0.754 0.157,-1.134 C 12.288,6.999 11.624,3.646 10.183,0.439 8.873,-2.475 7.079,-5.073 4.941,-7.432 4.04,-8.426 3.063,-9.351 2.125,-10.312 c -0.228,-0.233 -0.441,-0.481 -0.696,-0.76 1.108,-0.887 2.342,-1.255 3.638,-1.299 1.578,-0.055 3.17,-0.057 4.74,0.09 2.194,0.205 4.372,0.577 6.559,0.862 0.679,0.089 1.288,0.294 1.858,0.696 0.625,0.441 1.288,0.839 1.972,1.18 1.679,0.836 3.337,0.752 4.924,-0.263 0.767,-0.491 1.515,-1.011 2.265,-1.527 0.068,-0.046 0.09,-0.159 0.134,-0.241 -0.043,-0.078 -0.066,-0.181 -0.13,-0.23 -2.593,-1.978 -5.196,-3.944 -8.017,-5.596 -2.868,-1.681 -5.866,-3.036 -9.138,-3.742 -3.901,-0.841 -7.717,-0.574 -11.471,0.757 -0.607,0.215 -1.065,0.552 -1.426,1.114 -0.385,0.598 -0.865,1.156 -1.385,1.644 -0.944,0.887 -2.086,1.181 -3.328,0.746 -0.855,-0.3 -1.708,-0.642 -2.502,-1.075 -1.176,-0.642 -2.288,-1.403 -3.45,-2.074 -1.369,-0.789 -2.734,-1.595 -4.153,-2.285 -1.788,-0.868 -3.692,-1.294 -5.705,-1.251 -1.148,0.025 -2.299,-0.112 -3.449,-0.147 -2.205,-0.067 -4.413,-0.215 -6.614,-0.145 -3.92,0.125 -7.527,1.237 -10.732,3.607 -2.334,1.726 -4.157,3.827 -5.33,6.473 -0.504,1.137 -0.912,2.317 -1.362,3.477 -0.119,0.309 -0.235,0.62 -0.388,1.022 -0.414,-0.232 -0.783,-0.416 -1.129,-0.636 -3.773,-2.395 -7.699,-4.486 -11.891,-6.06 -4.116,-1.546 -8.357,-2.486 -12.758,-2.629 -2.843,-0.093 -5.654,0.216 -8.422,0.856 -1.481,0.342 -2.757,1.112 -3.843,2.162 -0.722,0.698 -1.38,1.465 -2.048,2.218 -0.442,0.498 -0.85,1.026 -1.28,1.548 -0.177,-0.041 -0.328,-0.041 -0.439,-0.107 -6.862,-4.051 -14.051,-7.454 -21.309,-10.718 -6.118,-2.751 -12.261,-5.446 -18.271,-8.431 -0.385,-0.191 -0.79,-0.35 -1.199,-0.48 -6.396,-2.024 -12.808,-3.987 -19.367,-5.43 -6.482,-1.427 -13.022,-2.374 -19.671,-2.345 -6.427,0.027 -12.712,0.957 -18.72,3.342 -1.779,0.705 -3.513,1.526 -5.252,2.328 -1.124,0.519 -1.976,1.386 -2.561,2.451 -0.574,1.046 -1.045,2.152 -1.499,3.258 -0.418,1.018 -0.74,2.074 -1.131,3.104 -0.148,0.39 -0.367,0.753 -0.579,1.178 -0.98,-0.335 -1.648,-0.958 -2.257,-1.607 -0.6,-0.64 -1.248,-0.911 -2.136,-0.948 -2.351,-0.096 -4.655,-0.601 -6.972,-0.986 -2.553,-0.424 -5.103,-0.89 -7.672,-1.186 -2.287,-0.264 -4.597,-0.272 -6.89,0.077 -0.426,0.065 -0.857,0.101 -1.314,0.153 -0.384,0.562 -0.165,1.202 -0.192,1.804 -0.028,0.624 0.042,1.242 0.32,1.824 0.443,0.925 1.184,1.478 2.13,1.806 0.626,0.218 1.303,0.257 1.881,0.664 0.242,0.17 0.646,0.126 0.978,0.151 5.086,0.388 9.713,2.093 13.971,4.858 0.195,0.126 0.355,0.306 0.558,0.484 -1.385,2.581 -3.346,4.71 -5.005,7.149 -0.275,-0.145 -0.542,-0.236 -0.749,-0.403 -1.79,-1.447 -3.563,-2.916 -5.355,-4.363 -1.94,-1.567 -3.862,-3.158 -5.85,-4.662 -1.994,-1.508 -4.147,-2.766 -6.479,-3.693 -0.534,-0.212 -1.084,-0.383 -1.62,-0.588 -1.893,-0.721 -3.7,-0.362 -5.403,0.544 -1.77,0.942 -2.715,2.471 -2.786,4.61 -0.236,-0.098 -0.457,-0.148 -0.63,-0.268 -1.498,-1.038 -2.984,-2.092 -4.479,-3.133 -2.049,-1.427 -4.167,-2.727 -6.432,-3.796 -1.561,-0.737 -3.068,-0.647 -4.573,0.033 -0.559,0.252 -1.083,0.621 -1.554,1.018 -0.921,0.777 -1.461,1.764 -1.415,3.014 0.017,0.474 0.002,0.949 0.002,1.381 -0.363,0.222 -0.486,-0.03 -0.647,-0.186 -1.41,-1.37 -2.775,-2.79 -4.242,-4.095 -1.837,-1.633 -3.901,-2.943 -6.17,-3.914 -2.235,-0.956 -4.572,-1.396 -7.07,-1.417 -0.151,0.277 -0.327,0.552 -0.458,0.846 -1.066,2.398 -1.587,4.906 -1.633,7.535 -0.057,3.295 0.492,6.5 1.353,9.654 0.882,3.234 1.901,6.431 2.799,9.662 0.566,2.037 1.287,4.007 2.106,5.953 2.156,5.121 4.285,10.255 6.204,15.472 0.132,0.356 0.252,0.717 0.417,1.191 -0.354,0 -0.624,0.038 -0.879,-0.006 -5.858,-1.003 -11.716,-2.012 -17.572,-3.025 -5.762,-0.998 -11.519,-2.02 -17.284,-2.998 -5.01,-0.85 -10.022,-1.686 -15.042,-2.468 -3.221,-0.501 -6.459,-0.895 -9.689,-1.334 -0.184,-0.025 -0.372,-0.024 -0.623,-0.039 -0.248,0.696 -0.486,1.362 -0.743,2.083 -0.308,0 -0.64,0.051 -0.95,-0.007 -5.041,-0.942 -10.08,-1.897 -15.117,-2.853 -0.47,-0.09 -0.933,-0.215 -1.444,-0.334 -0.143,-0.338 -0.308,-0.681 -0.435,-1.037 -0.809,-2.254 -1.665,-4.494 -2.398,-6.773 -0.704,-2.187 -1.296,-4.411 -1.906,-6.628 -2.748,-9.976 -5.511,-19.949 -8.207,-29.94 -0.685,-2.541 -1.159,-5.14 -1.702,-7.718 -1.601,-7.597 -3.188,-15.196 -4.781,-22.795 -0.324,-1.548 -0.689,-3.088 -0.962,-4.645 -0.231,-1.32 -0.387,-2.655 -0.521,-3.989 -0.342,-3.389 -0.645,-6.781 -0.979,-10.169 -0.335,-3.389 -0.696,-6.775 -1.031,-10.164 -0.334,-3.389 -0.643,-6.78 -0.977,-10.169 -0.334,-3.389 -0.689,-6.775 -1.026,-10.164 -0.233,-2.338 -0.453,-4.678 -0.678,-7.018 -0.22,-2.291 -0.447,-4.582 -0.655,-6.875 -0.06,-0.655 -0.285,-1.176 -0.834,-1.583 -0.68,-0.507 -1.312,-1.077 -1.966,-1.619 z"
             style="fill:#ffffff;fill-opacity:1;fill-rule:nonzero;stroke:none"
             id="path22" />
        </g>
        <g
           id="g24"
           transform="translate(153.9019,111.2829)">
          <path
             d="M 0,0 C 0.171,0.063 0.367,0.092 0.51,0.195 2.734,1.796 4.794,3.576 6.492,5.744 7.227,6.682 7.886,7.666 8.393,8.881 8.046,8.935 7.794,8.974 7.521,9.016 6.349,6.871 4.717,5.188 3.025,3.555 2.44,2.99 1.854,2.423 1.295,1.832 0.835,1.347 0.408,0.83 -0.014,0.31 -0.065,0.247 0.007,0.084 0.022,-0.032 c -0.071,0.009 -0.143,0.019 -0.214,0.028 0.016,-0.064 0.033,-0.128 0.05,-0.193 C -0.095,-0.131 -0.047,-0.066 0,0 m 36.772,2.725 c 0.472,-0.618 0.99,-0.612 1.499,-0.379 0.477,0.218 0.917,0.516 1.365,0.793 0.734,0.453 1.442,0.952 2.194,1.371 1.752,0.975 3.598,1.269 5.549,0.668 0.682,-0.21 1.372,-0.395 2.134,-0.613 -1.205,-2.846 -2.807,-5.265 -5.4,-6.932 -1.504,-0.967 -3.122,-1.681 -4.815,-2.223 -1.277,-0.408 -2.574,-0.752 -3.866,-1.114 -1.703,-0.478 -3.409,-0.945 -5.218,-1.446 -1.308,1.403 -2.333,3.039 -2.856,4.968 -0.516,1.905 -0.388,3.799 0.145,5.68 0.461,1.625 1.175,3.141 1.989,4.61 0.65,1.174 1.346,2.322 2.015,3.486 0.235,0.407 0.448,0.826 0.65,1.2 C 31.962,13.158 31.709,13.056 31.503,13 30.025,12.594 28.53,12.238 27.082,11.745 24.001,10.696 20.945,9.572 17.784,8.446 17.57,8.071 17.307,7.617 17.051,7.158 15.383,4.177 13.463,1.372 11.216,-1.204 9.251,-3.456 7.069,-5.467 4.549,-7.091 c -2.403,-1.547 -4.986,-2.648 -7.823,-3.118 -1.812,-0.3 -3.622,-0.277 -5.418,-0.108 -0.95,1.102 -1.689,2.274 -2.177,3.588 -0.749,2.018 -0.697,4.038 0.068,6.045 0.482,1.265 1.15,2.429 1.975,3.494 0.822,1.061 1.698,2.08 2.559,3.11 0.677,0.81 1.384,1.595 2.045,2.417 0.539,0.67 1.07,1.353 1.439,2.259 -1.161,1.586 -2.346,3.204 -3.548,4.846 0.44,1.156 0.54,2.34 0.631,3.537 0.065,0.85 0.258,1.708 0.519,2.523 0.482,1.507 1.509,2.561 3.022,3.044 1.744,0.557 3.371,1.364 5.014,2.147 1.473,0.701 2.97,1.35 4.581,1.667 2.233,0.439 4.397,0.266 6.411,-0.878 0.408,-0.232 0.826,-0.521 1.111,-0.884 1.14,-1.456 0.941,-1.295 2.797,-2.124 1.132,-1.883 2.265,-3.766 3.404,-5.661 1.9,0.118 3.674,0.47 5.432,0.939 3.358,0.897 6.512,2.282 9.487,4.055 1.934,1.152 3.793,2.43 5.682,3.657 0.478,0.31 0.941,0.643 1.462,1.001 2.096,-3.253 3.054,-6.622 1.826,-10.385 -0.434,-1.329 -1.021,-2.589 -1.777,-3.76 -0.937,-1.449 -1.94,-2.855 -2.885,-4.299 -0.84,-1.282 -1.676,-2.569 -2.443,-3.896 -0.6,-1.038 -1.042,-2.156 -1.171,-3.4"
             style="fill:#ffffff;fill-opacity:1;fill-rule:nonzero;stroke:none"
             id="path26" />
        </g>
        <g
           id="g28"
           transform="translate(503.0765,224.7124)">
          <path
             d="m 0,0 c 1.436,0.037 2.681,0.087 3.925,0.094 0.912,0.005 1.822,-0.062 2.696,-0.362 0.271,-0.093 0.543,-0.188 0.803,-0.307 2.442,-1.118 2.325,-3.927 0.83,-5.391 -0.639,-0.626 -1.381,-0.827 -2.24,-0.563 -0.183,0.056 -0.363,0.122 -0.542,0.191 -1.893,0.73 -3.835,0.701 -5.807,0.426 -2.717,-0.378 -5.33,-1.154 -7.933,-1.977 -0.32,-0.101 -0.628,-0.244 -0.953,-0.319 -0.416,-0.098 -0.845,-0.206 -1.268,-0.205 -1.708,0.002 -3.403,2.483 -2.759,4.068 0.23,0.567 0.579,1.109 0.972,1.58 0.551,0.66 1.169,1.269 1.8,1.855 3.519,3.262 7.258,6.261 11.045,9.201 1.741,1.352 3.497,2.687 5.205,4.08 1.075,0.877 2.11,1.812 3.093,2.791 0.57,0.569 1.032,1.256 1.484,1.929 0.353,0.527 0.463,1.15 0.436,1.788 -0.047,1.109 -0.685,1.759 -1.812,1.82 C 8.241,20.738 7.535,20.572 6.896,20.228 6.14,19.82 5.404,19.37 4.693,18.888 3.979,18.405 3.315,17.85 2.614,17.347 2.226,17.069 1.824,16.799 1.399,16.584 c -1.618,-0.818 -3.309,0.195 -3.3,2.013 0.003,0.554 0.162,1.151 0.41,1.648 0.317,0.634 0.718,1.265 1.218,1.761 3.121,3.104 6.867,4.815 11.307,4.862 0.616,0.006 1.251,-0.064 1.849,-0.211 3.452,-0.853 6.038,-3.845 5.217,-8.32 C 17.683,16.065 16.589,14.113 15.054,12.403 13.769,10.973 12.361,9.669 10.848,8.488 8.921,6.985 6.959,5.527 5.014,4.048 3.64,3.004 2.265,1.962 0.898,0.91 0.61,0.687 0.285,0.49 0,0"
             style="fill:#ffffff;fill-opacity:1;fill-rule:nonzero;stroke:none"
             id="path30" />
        </g>
        <g
           id="g32"
           transform="translate(536.5993,237.617)">
          <path
             d="M 0,0 C 2.293,-1.641 2.761,-3.86 2.612,-6.331 2.513,-7.98 2.107,-9.546 1.446,-11.048 c -1.761,-3.999 -4.535,-7.074 -8.398,-9.138 -2.125,-1.135 -4.39,-1.66 -6.798,-1.368 -2.445,0.296 -4.472,1.397 -5.95,3.386 -1.308,1.761 -1.75,3.732 -1.027,5.843 0.524,1.527 1.497,2.676 3.178,3.021 0.966,0.198 1.804,-0.072 2.495,-0.774 0.423,-0.428 0.644,-0.944 0.628,-1.554 -0.015,-0.576 -0.051,-1.152 -0.029,-1.726 0.071,-1.852 1.564,-2.868 3.278,-2.204 0.573,0.222 1.139,0.524 1.627,0.896 2.391,1.825 4.051,4.181 4.982,7.047 0.242,0.745 0.307,1.504 0.235,2.272 -0.123,1.31 -0.929,2.111 -2.233,2.186 -0.522,0.03 -1.052,-0.044 -1.576,-0.091 -1.447,-0.133 -2.414,0.651 -2.537,2.087 -0.088,1.033 0.251,1.922 1.107,2.508 0.625,0.428 1.326,0.76 2.026,1.06 1.143,0.491 2.327,0.887 3.464,1.391 0.695,0.309 1.365,0.702 1.986,1.142 0.377,0.267 0.706,0.658 0.937,1.061 0.54,0.943 0.198,1.918 -0.771,2.412 C -2.419,8.658 -2.946,8.754 -3.466,8.61 -4.154,8.42 -4.841,8.198 -5.493,7.908 -6.367,7.519 -7.2,7.038 -8.062,6.622 -8.448,6.436 -8.852,6.251 -9.268,6.173 c -1.326,-0.251 -2.499,0.681 -2.612,2.021 -0.063,0.749 0.149,1.416 0.549,2.042 0.554,0.865 1.298,1.536 2.138,2.104 1.939,1.311 4.089,2.086 6.397,2.416 1.138,0.162 2.273,0.254 3.436,0.102 C 5.205,14.264 7.467,10.023 5.756,5.745 5.285,4.567 4.569,3.54 3.621,2.714 2.721,1.93 1.732,1.248 0.779,0.525 0.593,0.384 0.392,0.263 0,0"
             style="fill:#ffffff;fill-opacity:1;fill-rule:nonzero;stroke:none"
             id="path34" />
        </g>
      </g>
    </g>
  </g>
</svg>
