<?xml version="1.0" encoding="UTF-8" standalone="no"?>
<svg
   id="Layer_1"
   data-name="Layer 1"
   viewBox="0 0 2252.2864 1253.03"
   version="1.1"
   sodipodi:docname="pc26.svg"
   width="2252.2864"
   height="1253.03"
   inkscape:version="1.4.3 (0d15f75042, 2025-12-25)"
   xmlns:inkscape="http://www.inkscape.org/namespaces/inkscape"
   xmlns:sodipodi="http://sodipodi.sourceforge.net/DTD/sodipodi-0.dtd"
   xmlns="http://www.w3.org/2000/svg"
   xmlns:svg="http://www.w3.org/2000/svg">
  <sodipodi:namedview
     id="namedview4"
     pagecolor="#000000"
     bordercolor="#999999"
     borderopacity="1"
     inkscape:showpageshadow="0"
     inkscape:pageopacity="0"
     inkscape:pagecheckerboard="0"
     inkscape:deskcolor="#d1d1d1"
     inkscape:export-bgcolor="#ffffff00"
     inkscape:zoom="0.38554416"
     inkscape:cx="1072.5101"
     inkscape:cy="702.90262"
     inkscape:window-width="2560"
     inkscape:window-height="1368"
     inkscape:window-x="0"
     inkscape:window-y="0"
     inkscape:window-maximized="1"
     inkscape:current-layer="Layer_1" />
  <defs
     id="defs1">
    <style
       id="style1">
      .cls-1 {
        fill: #fff;
      }
    </style>
  </defs>
  <path
     class="cls-1"
     d="m 2243.4279,291.29 c 5,35.91 -33.35,81.35 -73.81,73.79 -15.83,-2.96 -27.4,-15.09 -29.41,-31.19 -5.77,-46.37 46.36,-90.82 83.81,-109.37 8.36,-4.14 23.65,-9.11 27.64,2 3.43,9.55 -7.97,15.07 -15.08,19.19 -12.4,7.19 -24.21,14.41 -35.3,24.14 8.24,-0.79 14.77,-1.97 21.94,-0.25 10.71,2.57 18.66,10.56 20.21,21.7 z m -29.51,15.76 c 1.01,-4.46 -0.15,-9.15 -3.04,-12.44 -7.86,-8.92 -26.65,-2.94 -33.28,3.18 -8.65,7.98 -17.11,31.47 -3.82,39.97 15,9.59 35.59,-10.64 40.14,-30.71 z"
     id="path1" />
  <path
     class="cls-1"
     d="m 2024.0179,362.3 c -3.15,-4.73 -4.09,-9.96 -0.36,-14.65 12.26,-15.42 48.88,-43.54 65.97,-56.7 8.83,-6.8 40.05,-28.96 29.45,-40.6 -5.21,-5.72 -16.07,-0.09 -21.73,4.01 l -13.97,10.13 c -2.63,1.91 -7.06,2.38 -9.51,1.02 -2.73,-1.52 -5.24,-4.93 -5.2,-8.56 0.22,-21.48 54.5,-50.17 76.67,-23.68 6.47,7.73 7.56,17.19 5.21,26.75 -5.25,21.43 -26.39,36.25 -43.41,49.26 l -31.97,24.43 c 11.38,-0.52 33.84,-3.13 38.6,8.81 2.1,5.27 0.85,10.3 -2.16,14.24 -7.75,10.16 -12.22,-2.33 -34.9,0.85 -13.16,1.85 -25.73,5.42 -38.23,9.74 -5.97,2.06 -10.77,0.51 -14.46,-5.04 z"
     id="path2" />
  <g
     id="g4"
     transform="translate(-268.19214)">
    <path
       class="cls-1"
       d="m 1095.64,787.15 c -15.4,38.8 -46.42,37.71 -80.31,49.31 -27.44,-30 -7.88,-55.39 8.29,-84.72 -10.72,1.82 -19.23,4.93 -28.47,8.19 l -31.79,11.22 c -22.04,40.97 -58.98,84.23 -110.13,78.42 -12.94,-13.32 -15.48,-32.24 -5.57,-48.13 10.49,-16.83 19.2,-22 30.01,-38.74 L 862.73,742 c 4.33,-11.59 -0.21,-31.26 15.62,-37.26 6.83,-2.59 13.29,-5.2 19.88,-8.36 7.13,-3.42 13.84,-6.63 21.77,-8.28 10.29,-2.14 23.46,-1.11 30.75,6.91 13.73,15.11 7.2,-1.48 26.8,32.75 34.24,-2.39 64.02,-20.2 91.84,-40.35 20.6,32.88 5.67,52.44 -13.47,79.55 -3.99,5.65 -15.68,23.71 -12.67,29.13 0.62,1.12 4,1.34 5.15,0.63 l 14.29,-8.84 c 11.45,-7.08 21.06,-4.37 32.95,-0.72 z m -171.88,-17.13 -2.23,-1.32 c -0.32,-0.19 -1.05,0.88 -1.32,1.31 -4.85,7.54 -10.43,14.06 -16.87,20.33 -5.19,5.05 -10.82,9.46 -14.05,15.81 13.61,-8.05 28.43,-23.37 34.48,-36.13 z"
       id="path3" />
    <path
       class="cls-1"
       d="m 1086,0 c 1.21,1.17 3,2.25 4.98,3.13 13.29,5.86 14.83,12.14 14.19,27.19 -7.1,1.49 -13.7,2.15 -21.64,2.52 -2.9,20.94 -10.6,31.34 -22.54,48.31 -4.94,7.02 -10.48,13.96 -13.75,21.98 -4.55,11.15 -9.35,21.3 -15.74,31.49 l -14.64,23.34 c -5.04,8.04 -8.07,16.59 -10.03,26.31 l 82.97,2.35 c 28.56,0.81 56.07,2.67 84.43,6.2 46.43,5.79 94.59,17.49 134.39,42.7 28.7,18.19 52.17,42.87 67.61,73.13 8.1,15.88 12.49,32.76 13.76,50.11 1.99,27.1 -8.7,49.66 -26.64,68.64 -20.8,22 -41.74,42.47 -66.42,60.47 -25.57,18.65 -51.61,35.24 -79.17,50.82 8.27,1.23 13.86,4.83 18.76,10.88 l -2.18,15.08 10.78,-3.33 51.22,-10.64 75.48,-12.82 88.5,-17.38 102.16,-18.76 c 60.83,-72.86 134.18,-137.24 225.49,-166.85 7.25,0.62 14.13,2.06 20.93,4.81 7.79,3.16 18.05,10.9 18.05,20.34 0,12.89 -11.58,23.07 -22.91,27.73 -37.96,15.61 -49.3,2.99 -78.31,16.91 -12.27,5.88 -23.51,13.05 -34.17,21.79 -13.7,11.22 -26.05,22.92 -38.2,35.87 l -35.07,37.37 c 5.69,7.8 11.85,19.84 6.03,28.14 -8.34,9.42 -23.54,11.82 -36.66,11.95 -64.67,70 -125.73,161.83 -100.87,262 25.61,28.54 65.88,34.56 102.3,32.66 24.51,-1.28 48.01,-4.56 72.05,-9.36 10.99,-2.19 21.12,-5.94 32.02,-8.75 0.99,-0.56 2.37,-1.33 1.53,-0.86 -9.37,-4.8 -14.51,-20.76 -15.42,-29.24 -1,-9.27 2.47,-15.64 7.43,-22.7 24.46,-34.81 49.93,-68.66 88.14,-89.16 l 14.31,3.52 c 11.14,2.74 13.87,12.36 15.31,22.11 4.26,4.49 11.11,9.72 10.39,18.2 l -1.7,19.84 c -0.37,4.28 -1.29,7.77 -4.2,11.64 19.03,8.94 37.29,-2.57 53.77,-11.89 l 28.04,-15.86 c 0.06,-62.66 17.92,-123.73 52.82,-175.35 4.01,-5.93 10.67,-9.51 14.22,-16.18 l 13.12,-24.64 c 4.71,-8.86 8.51,-16.04 15.28,-24.29 10.5,-12.79 32.45,-24.11 48.83,-14.96 17.16,9.6 24.06,32.95 25.48,51.16 1.17,15.07 -1.08,28.21 -5.03,42.2 -4.31,15.25 -9.11,30.22 -16.59,44.44 -16.95,32.25 -38.19,61.12 -61.82,88.81 -12.52,14.67 -26.21,27.82 -40.28,40.82 -4.49,4.15 19.37,12.69 21.11,12.47 41.41,-2.19 89.15,-11.38 117.87,-43.91 -0.46,-95.03 57.91,-171.93 113.38,-243.44 10.53,0.32 23.41,-9.52 33.6,-0.63 18.12,15.8 22.53,43.46 18.93,66.56 -3.18,20.44 -9.07,40.3 -19.52,58.31 -26.84,46.28 -70.4,92.45 -107.87,131.51 -0.79,16.43 1.35,42.41 20.37,48.85 37.01,12.54 80.64,-2.29 112.8,-22.22 0.7,-0.43 1.27,-2.6 1.17,-3.55 -4.27,-43.35 14.94,-84.79 50.05,-110.13 6.27,-4.53 12.49,-6.83 20.8,-4.63 5.8,1.53 11.94,6.51 14.82,13.62 3.15,7.79 6.11,16.27 6.94,24.81 3.35,34.56 -18.36,66.49 -43.06,88.74 l -0.68,2.11 c 14.84,9.35 40.48,3.21 58.56,1.09 5.22,-0.61 9.21,-1.78 13.46,-4.95 14.54,-10.83 24.75,-4.44 37.06,5.25 -36.2,28.45 -77.24,54.88 -124.48,35.2 -5.4,-8.24 -12.18,-17.16 -23.49,-12.6 -13.41,5.4 -24.68,14.73 -40.5,22.46 -8.67,4.23 -17.57,4.8 -27.06,5.16 -13.24,0.51 -25.76,1.59 -39.04,1.1 -23.47,-0.87 -45.03,-11.06 -59.32,-29.64 -6.43,-8.36 -9.77,-17.95 -13.25,-27.82 l -0.97,-2.74 c -0.27,-0.76 -2.64,0.59 -3.45,1.11 -40.31,26.04 -85.04,43.62 -133.88,34.83 -9.55,-1.72 -17.9,-5.29 -24.25,-12.79 l -11.35,-13.42 c -28.72,16.42 -57.96,30.62 -88.22,44.35 l -80.93,36.72 c -20.47,9.29 -42.32,13.41 -63.93,19.4 -23.05,6.38 -45.63,10.33 -69.41,12.87 -22.44,2.39 -43.92,2.13 -66.11,-0.89 -22.77,-3.1 -43.32,-10.27 -63.79,-20.27 -7.36,-3.6 -12.73,-9.15 -15.81,-17.22 l -9.83,-25.71 c -5.47,3.02 -8.83,6.42 -12.62,10.12 -29.72,2.25 -72.8,15.84 -101.38,8.82 -1.03,-0.25 -0.45,-3.64 -0.65,-4.82 -1.54,-9.13 4.32,-17.52 13.28,-18.57 1.54,-0.18 4.62,-2.02 5.97,-2.31 21.68,-1.34 41.93,-8.17 60.1,-19.83 0.95,-0.61 2.16,-1.51 2.7,-2.04 0.67,-0.66 -0.35,-3.21 -1.06,-4.18 l -19.39,-26.46 c -26.55,19.3 -54.14,50.53 -86.95,58.44 -7.64,1.84 -16.09,-0.93 -22.06,-5.35 -10.43,-7.72 -6.62,-18.03 -9.98,-16.66 L 1251.11,798 c -8.15,5.67 -16.89,11.14 -26.51,14.04 -10.06,3.03 -21.69,-3.15 -25.97,-12.25 -1.72,-3.66 -0.82,-13.72 -2.01,-12.55 l -2.17,2.14 c -9.07,8.96 -17.61,17.67 -28.16,24.71 -13.52,9.01 -28.6,14.21 -44.73,13.7 -14.43,-28.96 -7.61,-58.38 0.66,-87.76 l 12.5,-40.62 32.16,-81.67 -128.66,22.25 -121.86,19.24 c -1.11,0.18 -2.71,0.24 -3.38,0.23 -0.67,-0.01 -1.49,-1.68 -1.67,-2.37 l -1.39,-5.05 c -0.23,-0.85 -1.6,-1.85 -3.31,-1.53 l -67.88,12.82 c -1.09,0.21 -2.99,1.58 -3.33,2.53 l -12.23,34.64 -41.14,152.38 c -13.02,48.21 -23.17,97.53 -30.34,147.04 -11.71,80.81 -15.26,161.78 -25.6,242.79 -2.58,4.26 -7.28,7.39 -11.24,10.32 h -8.54 c -1.65,-1.13 -3.45,-2.08 -6.08,-3.39 -5.78,-138.1 13.22,-271.45 46.13,-405.54 14.52,-59.16 31.34,-116.57 49.49,-175.41 -21.99,-0.68 -67.09,8.78 -83.97,8.65 l -168.71,-1.35 -53.2,-10.09 c -33.91,-6.43 -67.53,-14.13 -96.58,-34.84 l 7.38,-15.26 40.78,11.07 50.19,12.77 c 105.27,18 206.08,12.87 311.06,-5.49 l 28.59,-80.13 76.73,-227.93 c 1.89,-8.98 4.96,-16.32 8.61,-24.51 3.88,-4.01 2.68,-10.65 5.03,-15.1 11.45,-21.76 22.28,-43.29 29.13,-68.17 -68.84,3 -135.94,13.13 -202.41,28.87 -61.14,14.47 -119.96,34.52 -178.17,57.59 -29.51,11.69 -58.26,22.41 -86.58,36.64 -74.09,37.24 -151.03,88.61 -189.83,164.57 l -25.7,-0.06 c -0.3,-25.67 8,-47.65 22.9,-66.99 11.86,-15.65 26.2,-27.93 41.97,-39.81 17.69,-13.33 36.52,-23.86 55.35,-35.75 164.74,-104.04 343.37,-160.99 537.24,-177.53 7.36,-0.63 13.51,-2.2 20.65,-2.24 10.67,-0.06 28.41,1.36 27.66,-10.61 -0.19,-3.12 1.04,-5.91 2.66,-8.49 8.01,-12.72 14.36,-25.75 20.61,-39.45 l 18.8,-41.25 c 5.48,-12.03 11.84,-22.85 18.96,-33.97 12.98,-20.29 29.72,-36.36 49.06,-49.77 h 2 z m 253.96,400.61 c 8.55,-9.53 13.28,-19.6 15.05,-31.63 2.66,-18.06 -3.16,-33.78 -11.57,-49.27 -11.53,-21.25 -25.78,-39.49 -46.27,-53.07 -34.02,-22.55 -74.47,-33.55 -114.77,-40.18 -27.22,-4.48 -53.73,-9.34 -81.33,-10.41 l -35.13,-1.36 c -25.41,-0.98 -47.02,-5.28 -73.92,2.69 l -25.46,61.35 c -9.09,21.9 -18.2,42.7 -25.93,65.27 L 889.4,493.61 844.68,631.25 c 20.57,-2.23 39.18,-5.31 58.87,-9.65 82.76,-18.27 163.1,-45.1 240.03,-80.84 36.62,-17.01 71.45,-36.64 104.58,-59.48 33.87,-23.35 64.12,-49.84 91.78,-80.67 z m 869.14,114.36 c 0.8,-4.51 0.08,-8.74 -2.42,-13.12 -36.93,44.52 -81.8,99.48 -88.95,159.93 40.98,-43.1 80.92,-87.79 91.38,-146.82 z m -274.94,167.55 c 46.6,-47.55 102.87,-105.25 86.27,-177.61 -3.95,-0.22 -5.44,1.86 -7.1,4.55 l -32.82,53.2 c -11.4,18.48 -21.97,36.42 -31.01,56.11 l -9.87,29.02 c -3.74,11.01 -4.71,22.41 -5.47,34.74 z m -616.72,-13.38 c 5.61,-6.19 18.67,-9.79 25.06,-2.65 8.12,9.07 6.6,23.76 2.49,34.57 -8.19,21.53 -23.34,34.53 -27.77,55.9 14.59,-3.26 27.01,-10.98 37.55,-21.24 l 29.41,-28.64 c 9.95,-27.24 8.66,-49.46 35.95,-64.85 10.17,-5.74 22.52,-2.82 27.22,8.13 5.48,12.78 3.14,25.9 -5.59,36.69 -10.23,12.63 -23.77,26.25 -14.78,42.92 3.44,6.38 7.56,12.05 12.66,17.55 3.49,-28.76 10.2,-55.04 20.6,-81.38 17.7,-44.38 41.65,-81.1 69.99,-120.2 -31.39,2.99 -61.11,6.46 -91.29,12.81 l -88.29,18.59 -93.97,22.36 c -25.3,6.02 -45.6,23.16 -59.5,44.55 -7.78,11.97 -12.72,24.21 -17.78,37.45 -4.82,15.09 -8.75,29.83 -12.49,45.31 l -11,45.51 c 28.47,-18.82 50.88,-43.62 69.11,-71.57 2.85,-4.37 5.26,-7.72 6.41,-12.97 1.25,-5.75 2.79,-11.21 7.09,-15.79 3.75,-4 13.75,-7.22 19.09,-3.37 12.79,9.23 15.59,26.89 10.44,41.28 -7.14,19.98 -18.8,30.72 -25.4,49.9 0.24,1.49 4.03,3.19 5.38,2.78 14.83,-18.81 32.44,-28.01 48.45,-45.29 8.49,-9.17 12.2,-20.1 12.84,-32.5 0.31,-6.03 3.98,-11.25 8.13,-15.82 z M 1197.8,569.31 c -0.37,-7.78 0.94,-13.36 3.37,-21.1 l -49.93,26.72 -44.54,19.11 c 29,-3.73 64.98,-11.14 91.09,-24.73 z m 1093.04,136.96 c 7.37,-8.54 13.47,-17.89 14.25,-29.69 -6.55,9.12 -11.79,18.34 -14.25,29.69 z m -522.21,26.31 c 0.31,-0.52 -0.66,-2.07 -1.05,-1.86 l -1.81,0.96 c -16.46,8.78 -29.55,23.12 -38.71,39.71 18.01,-9.09 31.46,-21.91 41.57,-38.81 z m 12.63,50.97 -3.88,-3.79 -10.79,10.31 c 5.95,-1.7 9.17,-3.52 14.67,-6.52 z"
       id="path4" />
  </g>
</svg>
