<?xml version="1.0" encoding="UTF-8"?>
<!DOCTYPE svg PUBLIC "-//W3C//DTD SVG 1.1//EN" "http://www.w3.org/Graphics/SVG/1.1/DTD/svg11.dtd">
<!-- Creator: CorelDRAW 2017 -->
<svg xmlns="http://www.w3.org/2000/svg" xml:space="preserve" width="141.626mm" height="54.2694mm" version="1.1" style="shape-rendering:geometricPrecision; text-rendering:geometricPrecision; image-rendering:optimizeQuality; fill-rule:evenodd; clip-rule:evenodd"
viewBox="0 0 11702.69 4484.35"
 xmlns:xlink="http://www.w3.org/1999/xlink">
 <defs>
  <style type="text/css">
   <![CDATA[
    .fil2 {fill:none}
    .fil0 {fill:#FEFEFE}
    .fil1 {fill:#FEFEFE;fill-rule:nonzero}
   ]]>
  </style>
 </defs>
 <g id="Camada_x0020_1">
  <metadata id="CorelCorpID_0Corel-Layer"/>
  <g id="_2600200750400">
   <path class="fil0" d="M544.85 2015.72c0,799.42 650.33,1449.81 1449.69,1449.81l0 0c799.4,0 1449.75,-650.4 1449.75,-1449.81l0 0c0,-799.39 -650.35,-1449.72 -1449.75,-1449.72l0 0c-799.36,0 -1449.69,650.32 -1449.69,1449.72zm1460.49 -1414.22c-26.13,16.71 -50.99,34.35 -74.22,52.49l0 0 -318.84 0c127.54,-35.84 260.09,-53.4 393.06,-52.49zm-501.9 88l440.08 0 4.81 -3.89c37.37,-29.71 78.52,-57.32 122.43,-82.13l0 0c63.36,3.37 127.05,11.2 189.51,23.09l0 0c-33.75,12.18 -66.83,26.15 -98.59,41.79l0 0c-78.85,38.88 -150.58,89.47 -213.39,150.56l0 0 -15.82 -29.29 -642.06 0c68.15,-39.29 139.69,-72.97 213.04,-100.13zm453.28 171.16c63.87,-65.86 138.12,-119.86 220.61,-160.55l0 0c49.17,-24.18 100.12,-43.92 151.52,-58.64l0 0c70.43,17.15 139.75,39.81 206.64,67.63l0 0c-107.08,3.78 -212.49,30.91 -313.87,80.9l0 0c-122.56,60.42 -224.44,155.04 -295.13,274.24l0 0 -74.94 -139.04 -756.36 0c43.86,-36.25 89.82,-69.86 136.98,-100.17l0 0 679.16 0 28.53 52.98 16.86 -17.34zm-15 248.66c67.53,-126.16 169.77,-225.57 295.51,-287.52l0 0c104.73,-51.63 213.84,-77.77 324.43,-77.77l0 0c18.1,0 36.56,0.83 56.49,2.57l0 0c276.43,136.41 504.5,363.28 642.39,639.18l0 0c7.91,55.39 10.36,111.73 7.24,167.42l0 0c-5.86,105.08 -16.83,300.65 -235.24,666.34l0 0 -709.41 1171.93c-43.89,10.45 -88.29,18.87 -132.26,24.99l0 0 755.63 -1248.12c205.83,-344.63 215.92,-524.23 221.28,-620.73l0 0c11.04,-196.1 -54.84,-384.9 -180.66,-517.96l0 0c-113.09,-119.6 -264.21,-185.47 -425.46,-185.47l0 0c-95.09,0 -189.32,22.72 -280.14,67.44l0 0c-187.75,92.51 -309.73,281.77 -322.84,498.25l0 0 -188.13 -349.13 -818.16 0c32.02,-34.89 66.08,-68.52 101.54,-100.11l0 0 776.44 0 95.78 177.73 15.58 -29.04zm51.91 369.06c-11.13,-228.63 107.97,-438.65 303.51,-535.05l0 0c85.9,-42.21 174.86,-63.7 264.51,-63.7l0 0c151.43,0 293.42,61.92 399.73,174.32l0 0c119.14,126.03 181.54,305.27 171.04,491.65l0 0c-5.23,93.48 -14.99,267.43 -216.3,604.45l0 0 -769.93 1271.88c-39.97,4.2 -80.75,6.8 -121.52,7.71l0 0 457.5 -754.7 2.18 -3.55 -789.73 -1465.73 -5 -9.3 -847.09 0c24.68,-34.62 51.01,-68.29 78.32,-100.17l0 0 828.56 0 248.04 460.36 -3.83 -78.16zm-66.94 1950.04l-1149.14 -2132.36c13.13,-22.15 26.76,-43.79 40.46,-64.28l0 0 850.45 0 775.11 1438.6 -460.53 759.55c-19.83,-0.14 -38.32,-0.64 -56.35,-1.51zm-163.45 -17.39l-1061.13 -1969.21c16.57,-37.17 34.94,-73.93 54.7,-109.61l0 0 1128.17 2093.51c-40.55,-3.12 -81.46,-8.03 -121.74,-14.69zm1299.66 -1173.2c222.92,-373.2 234.21,-574.51 240.25,-682.67l0 0c1.41,-24.1 1.71,-48.58 1.05,-73.18l0 0c33.99,83.14 59.98,169.58 77.54,257.68l0 0c-33.55,163.59 -109.74,343.42 -232.75,549.41l0 0 -629.61 1039.94c-48.09,19.32 -97.55,36.04 -147.22,49.77l0 0 690.74 -1140.95zm-1475.64 1132.32l-947.93 -1758.95c13.01,-43.51 28.1,-86.38 44.96,-127.76l0 0 1034.37 1919.54c-44.12,-8.78 -88.27,-19.82 -131.4,-32.83zm-194.23 -74.6l-798.33 -1481.35c7.47,-51.82 17.82,-103.45 30.9,-153.84l0 0 913 1694.16c-49.59,-16.96 -98.46,-36.7 -145.56,-58.97zm1786.26 -988.18c103.75,-173.69 176.69,-334.48 217.21,-478.53l0 0c8.2,61.93 12.35,124.7 12.35,186.89l0 0c0,24.19 -0.64,48.97 -1.92,73.76l0 0c-38.53,85.83 -86.19,176.35 -141.56,269.15l0 0 -516.37 852.94c-55.48,35.03 -113.81,66.54 -173.8,93.65l0 0 604.08 -997.85zm-2012.37 854.51l-585.31 -1086.17c-0.89,-21.4 -1.34,-41.08 -1.34,-59.99l0 0c0,-46.37 2.35,-93.57 7.02,-140.58l0 0 750.69 1392.95c-59.2,-31.17 -116.67,-66.83 -171.05,-106.21zm-579.14 -1000.08l510.35 947c-288.09,-236.73 -472.2,-578.39 -510.35,-947zm2707.88 215.06c37.85,-63.3 72.2,-125.67 102.27,-185.82l0 0c-48.42,390.61 -257.14,741.71 -578.85,973.07l0 0 476.58 -787.25zm-954.24 -1343.61c-165.96,81.76 -264.88,267.89 -246.16,463.27l0 0c18.04,188.72 143.55,337.14 327.38,387.37l0 0c107.45,29.36 121.1,125 122.68,143.37l0 0 7.65 535.48 277.1 -463.97c188.75,-315.98 197.58,-473.88 202.33,-558.74l0 0c8.91,-159.09 -43.51,-311.16 -143.83,-417.26l0 0c-87.2,-92.18 -203.31,-143.01 -326.94,-143.01l0 0c-74.14,0 -148.22,18.01 -220.23,53.5zm239.27 992.19c-1.97,-23.06 -18.34,-140.15 -148.73,-175.71l0 0c-169.25,-46.28 -284.76,-182.9 -301.45,-356.58l0 0c-17.3,-180.85 73.72,-352.85 226.61,-428.2l0 0c67.05,-33.02 135.82,-49.77 204.53,-49.77l0 0c113.74,0 220.73,46.82 301.17,131.89l0 0c93.69,99.1 142.61,241.6 134.19,390.92l0 0c-4.53,81.83 -13.06,234.11 -197.32,542.66l0 0 -213.05 356.71 -5.96 -411.92zm-130.25 371.9l-5.21 -362.82 -0.12 -1.87c-3.96,-26.9 -20.41,-44.4 -48.88,-52.13l0 0c-64.43,-17.58 -123.88,-45.36 -176.61,-82.39l0 0 -61.33 -43.2 292.13 542.41zm-194 -434.84c40.79,22.15 84.57,39.65 130.49,52.21l0 0c7.62,2.04 20.26,5.49 22.96,21.48l0 0 3.07 216.82 -156.52 -290.51z"/>
   <path class="fil1" d="M2450.3 465.7c0,13.91 -0.73,28.42 -2.13,43.03l-0.5 5.98 5.73 1.74c6.45,1.92 12.86,4.03 19.36,6.11l9.97 3.19 0.91 -9.02c1.78,-16.93 2.73,-34.18 2.73,-51.03 0,-154.32 -70.68,-296.7 -193.82,-390.85l-1.48 -1.17 -1.93 -0.24c-15.49,-2.33 -31.14,-4.5 -46.78,-6.45l-32.55 -4.11 27.71 17.54c133.21,84.29 212.77,228.38 212.77,385.27z"/>
   <path class="fil1" d="M1505.42 516.74l0.9 9.01 11.22 -3.59c6.07,-1.96 12.11,-3.83 18.23,-5.71l5.66 -1.74 -0.5 -5.97c-1.43,-15.01 -2.12,-29.07 -2.12,-43.03 0,-156.88 79.55,-300.98 212.78,-385.26l27.7 -17.56 -32.58 4.12c-15.61,1.94 -31.23,4.12 -46.76,6.45l-1.88 0.24 -1.48 1.17c-123.21,94.15 -193.82,236.53 -193.82,390.85 0,16.81 0.91,33.98 2.65,51.04z"/>
   <path class="fil1" d="M1621.23 465.7c0,6.13 0.17,12.15 0.45,18.2l0.42 8.84 8.6 -2.07c7.02,-1.63 14.08,-3.29 21.14,-4.85l5.96 -1.4 -0.24 -6.06c-0.16,-4.21 -0.3,-8.43 -0.3,-12.66 0,-185.99 151.34,-337.29 337.27,-337.29 186.02,0 337.34,151.31 337.34,337.29 0,3.78 -0.12,7.49 -0.3,11.24l-0.28 7.58 5.99 1.3c7,1.56 14.12,3.16 21.12,4.85l8.57 2.07 0.45 -8.84c0.29,-6.05 0.5,-12.06 0.5,-18.2 0,-205.84 -167.52,-373.29 -373.39,-373.29 -205.83,0 -373.3,167.44 -373.3,373.29z"/>
   <path class="fil1" d="M1775.62 463.38l0.29 -6.11c4.5,-117.96 100.52,-210.45 218.63,-210.45 118.14,0 214.17,92.5 218.71,210.45l0.21 6.11 6.06 0.89c7.16,1.03 14.2,2.06 21.3,3.14l8.68 1.37 -0.19 -8.78c-3.06,-137.34 -117.28,-249.16 -254.78,-249.16 -137.42,0 -251.74,111.82 -254.73,249.2l-0.21 8.74 8.68 -1.32c7.09,-1.13 14.22,-2.16 21.34,-3.19l5.99 -0.89z"/>
   <path class="fil1" d="M2484.04 3513.83l-0.89 -9.06 -8.7 2.77c-6.92,2.24 -13.84,4.45 -20.83,6.6l-5.65 1.71 0.51 5.92c1.26,14.3 1.83,27.08 1.83,39.3 0,160.5 -82.3,306.32 -220.15,389.9l-29.13 17.69 33.8 -4.13c16.08,-1.97 32.07,-4.11 48.03,-6.4l1.78 -0.36 1.48 -1.07c125.35,-92.62 200.27,-240.54 200.27,-395.64 0,-15.4 -0.83,-31.23 -2.35,-47.25z"/>
   <path class="fil1" d="M1538.81 3561.08c0,-12.11 0.61,-24.98 1.8,-39.36l0.54 -5.88 -5.69 -1.7c-5.8,-1.8 -11.58,-3.64 -17.37,-5.46l-12.11 -3.9 -0.88 9.05c-1.55,16.02 -2.31,31.85 -2.31,47.25 0,155.16 74.86,303.02 200.17,395.65l1.47 1.06 1.8 0.36c15.96,2.3 31.97,4.45 48.04,6.37l33.74 4.16 -29.07 -17.69c-137.85,-83.58 -220.13,-229.39 -220.13,-389.9z"/>
   <path class="fil1" d="M2367.93 3561.08c0,-4.57 -0.21,-9.02 -0.4,-14.28l-0.36 -8.94 -8.7 2.07c-6.99,1.67 -14.01,3.26 -21.11,4.85l-5.94 1.29 0.33 8.89c0.06,2.02 0.12,4.03 0.12,6.11 0,185.97 -151.32,337.24 -337.35,337.24 -185.93,0 -337.26,-151.27 -337.26,-337.24 0,-2.23 0.1,-4.39 0.14,-6.61l0.26 -8.4 -5.91 -1.29c-7.1,-1.59 -14.15,-3.18 -21.16,-4.85l-8.66 -2.07 -0.36 8.94c-0.17,4.7 -0.34,9.43 -0.34,14.28 0,205.78 167.47,373.29 373.29,373.29 205.88,0 373.4,-167.5 373.4,-373.29z"/>
   <path class="fil1" d="M1739.89 3570.73c5.17,137.5 117.1,245.19 254.64,245.19 137.61,0 249.51,-107.69 254.65,-245.19l0.41 -8.85 -8.8 1.34c-7.12,1.07 -14.28,2.13 -21.42,3.21l-5.95 0.83 -0.37 5.99c-6.44,115.88 -102.44,206.65 -218.53,206.65 -116.11,0 -212.04,-90.77 -218.41,-206.65l-0.38 -5.99 -5.97 -0.83c-7.11,-1.02 -14.26,-2.13 -21.42,-3.21l-8.81 -1.42 0.35 8.93z"/>
   <path class="fil1" d="M3542.23 1521.62c-16.5,0 -33.23,0.82 -49.74,2.45l-9.08 0.94 2.81 8.63c2.24,6.96 4.45,13.84 6.6,20.8l1.73 5.69 5.95 -0.51c14.82,-1.38 28.47,-2.02 41.74,-2.02 158.48,0 303.28,80.73 387.36,215.97l17.67 28.45 -4.18 -33.23c-1.99,-15.86 -4.19,-31.68 -6.58,-47.49l-0.26 -1.86 -1.11 -1.49c-94.01,-124.81 -237.28,-196.35 -392.9,-196.35z"/>
   <path class="fil1" d="M3930.08 2252.28c-83.9,135.75 -228.93,216.77 -387.85,216.77 -12.96,0 -26.24,-0.57 -40.6,-1.83l-5.92 -0.55 -1.75 5.69c-2.1,6.97 -4.31,13.96 -6.53,20.81l-2.77 8.68 9.04 0.89c16.31,1.61 32.67,2.39 48.53,2.39 156.08,0 299.57,-71.93 393.54,-197.24l1.12 -1.5 0.25 -1.81c2.39,-15.83 4.54,-31.67 6.5,-47.6l4.02 -33.13 -17.58 28.43z"/>
   <path class="fil1" d="M3525.8 2350.21l-1.34 5.97c-1.55,7 -3.13,14.08 -4.79,21.12l-2.02 8.64 8.83 0.3c5.21,0.26 10.46,0.41 15.77,0.41 205.84,0 373.31,-167.46 373.31,-373.32 0,-205.81 -167.47,-373.33 -373.31,-373.33 -5.64,0 -11.17,0.2 -16.72,0.47l-8.84 0.38 2.04 8.6c1.63,7.06 3.34,14.1 4.91,21.16l1.36 5.95 7.47 -0.29c3.25,-0.11 6.49,-0.21 9.78,-0.21 185.97,0 337.28,151.32 337.28,337.26 0,186.03 -151.31,337.28 -337.28,337.28 -2.67,0 -5.34,-0.06 -7.97,-0.15l-8.46 -0.26z"/>
   <path class="fil1" d="M3552.8 2231.96l-6.02 0.29 -1.34 9.21c-0.87,6.07 -1.69,12.14 -2.69,18.1l-1.36 8.75 8.86 -0.26c138.42,-4.27 246.87,-116.13 246.87,-254.7 0,-136.54 -111.03,-250.78 -247.52,-254.67l-8.87 -0.26 1.4 8.72c1.14,7.11 2.17,14.2 3.21,21.34l0.91 5.99 6.07 0.28c117.05,5.34 208.78,101.36 208.78,218.59 0,117.01 -91.48,213.02 -208.28,218.62z"/>
   <path class="fil1" d="M446.89 1557.61c13.25,0 26.91,0.64 41.73,2.02l5.96 0.51 1.7 -5.69c2.17,-6.96 4.39,-13.84 6.62,-20.8l2.81 -8.63 -9.04 -0.94c-16.56,-1.64 -33.3,-2.45 -49.78,-2.45 -155.61,0 -298.83,71.52 -392.85,196.35l-1.15 1.49 -0.26 1.83c-2.4,15.82 -4.59,31.66 -6.58,47.5l-4.13 33.26 17.61 -28.46c84.05,-135.24 228.88,-215.97 387.37,-215.97z"/>
   <path class="fil1" d="M446.89 2505.13c15.91,0 32.22,-0.79 48.51,-2.39l9.04 -0.89 -2.78 -8.7c-2.18,-6.84 -4.34,-13.82 -6.51,-20.82l-1.73 -5.66 -5.95 0.54c-14.32,1.28 -27.62,1.85 -40.58,1.85 -158.92,0 -303.94,-81.02 -387.87,-216.77l-17.63 -28.54 4.09 33.3c1.97,15.92 4.16,31.71 6.49,47.52l0.26 1.81 1.11 1.52c94.03,125.31 237.5,197.24 393.56,197.24z"/>
   <path class="fil1" d="M464.16 1676.58l1.34 -5.95c1.61,-7.06 3.23,-14.12 4.92,-21.16l2 -8.6 -8.84 -0.38c-5.52,-0.28 -11.06,-0.47 -16.69,-0.47 -205.87,0 -373.34,167.52 -373.34,373.33 0,205.84 167.48,373.32 373.34,373.32 5.25,0 10.5,-0.14 15.74,-0.41l8.85 -0.31 -2.04 -8.63c-1.62,-7.04 -3.21,-14.12 -4.79,-21.12l-1.32 -5.97 -8.44 0.26c-2.67,0.1 -5.3,0.16 -7.99,0.16 -186,0 -337.29,-151.26 -337.29,-337.28 0,-185.94 151.29,-337.26 337.29,-337.26 3.31,0 6.57,0.1 9.75,0.21l7.52 0.29z"/>
   <path class="fil1" d="M436.83 1794.75l6.02 -0.28 1.41 -9.6c0.88,-5.92 1.76,-11.81 2.74,-17.74l1.39 -8.71 -8.84 0.26c-136.49,3.88 -247.55,118.13 -247.55,254.66 0,138.58 108.42,250.43 246.9,254.72l8.83 0.24 -1.39 -8.74c-1.09,-7.06 -2.12,-14.14 -3.11,-21.32l-0.85 -5.99 -6.03 -0.28c-116.83,-5.59 -208.34,-101.6 -208.34,-218.63 0,-117.24 91.71,-213.25 208.82,-218.58z"/>
   <path class="fil1" d="M3544.65 918.97c0,121.81 -47.4,236.23 -133.5,322.33 -9.59,9.6 -20.1,19.17 -31.21,28.43l-4.61 3.82 2.85 5.28c3.34,6.39 6.8,12.73 10.12,19.23l4.12 7.99 7.07 -5.69c13.07,-10.73 25.63,-22.03 37.19,-33.59 92.85,-92.94 144.02,-216.44 144.02,-347.79 0,-21.72 -1.55,-44.05 -4.51,-66.41l-0.28 -1.87 -1.11 -1.5c-9.4,-12.64 -18.91,-25.25 -28.57,-37.67l-20.21 -26.01 7.28 32.08c7.54,33.47 11.35,67.58 11.35,101.39z"/>
   <path class="fil1" d="M2707.08 609.12l-5.73 7.04 8.04 4.12c4.93,2.59 9.89,5.18 14.78,7.76l9.69 5.17 3.79 -4.57c9.34,-11.25 19.06,-22 28.97,-31.88 86.09,-86.07 200.55,-133.5 322.26,-133.5 33.66,0 67.48,3.8 100.57,11.23l32.19 7.21 -26.06 -20.2c-12.44,-9.67 -25.02,-19.11 -37.71,-28.47l-1.5 -1.08 -1.9 -0.28c-22.15,-2.93 -44.26,-4.4 -65.58,-4.4 -131.34,0 -254.88,51.12 -347.7,143.96 -11.72,11.79 -23.24,24.54 -34.1,37.89z"/>
   <path class="fil1" d="M2824.92 655.03c-4.33,4.29 -8.47,8.66 -12.44,13.07l-6.01 6.54 7.59 4.67c6.13,3.78 12.3,7.59 18.39,11.49l5.48 2.81 4.21 -4.47c2.67,-2.85 5.43,-5.76 8.23,-8.64 63.74,-63.68 148.45,-98.79 238.5,-98.79 90.15,0 174.85,35.12 238.54,98.79 63.74,63.73 98.82,148.41 98.82,238.48 0,90.14 -35.08,174.86 -98.82,238.5 -2.81,2.81 -5.66,5.56 -8.63,8.25l-4.47 4.17 3.3 5.14c3.86,6.1 7.66,12.26 11.48,18.4l4.66 7.59 6.52 -6.03c4.31,-3.94 8.49,-7.89 12.63,-11.99 70.51,-70.53 109.34,-164.24 109.34,-264.03 0,-99.7 -38.83,-193.43 -109.34,-263.95 -70.48,-70.52 -164.29,-109.38 -264.02,-109.38 -99.64,0 -193.47,38.86 -263.96,109.38z"/>
   <path class="fil1" d="M3245.84 1071.62l3.66 4.9c3.14,4.19 6.26,8.46 9.39,12.7l8.54 11.79 6.09 -6.32c45.33,-47.6 70.3,-110 70.3,-175.72 0,-68.06 -26.52,-132.08 -74.64,-180.18 -48.17,-48.14 -112.2,-74.68 -180.29,-74.68 -65.82,0 -128.3,25.1 -175.95,70.57l-6.36 6.11 12.35 8.99c4.06,2.93 8.2,5.88 12.27,8.89l4.87 3.62 4.43 -4.1c40.48,-37.46 93.19,-58.03 148.39,-58.03 58.47,0 113.49,22.75 154.8,64.11 41.34,41.29 64.1,96.27 64.1,154.7 0,55.08 -20.53,107.69 -57.79,148.15l-4.15 4.5z"/>
   <path class="fil1" d="M1279.73 3420.35l5.85 -6.98 -8.15 -4.19c-5.88,-3.11 -11.74,-6.21 -17.6,-9.36l-6.89 -3.6 -3.83 4.57c-9.21,10.92 -17.94,20.49 -26.67,29.2 -86.07,86.03 -200.53,133.5 -322.25,133.5 -36.25,0 -72.46,-4.26 -107.62,-12.76l-33.04 -7.95 26.78 20.84c12.73,9.92 25.53,19.64 38.49,29.35l1.5 1.07 1.82 0.26c23.71,3.48 47.98,5.21 72.06,5.21 131.32,0 254.81,-51.12 347.78,-144.05 10.84,-10.79 21.53,-22.65 31.75,-35.11z"/>
   <path class="fil1" d="M444.64 3107.74c0,-121.86 47.31,-236.28 133.3,-322.3 9.05,-9.02 18.82,-17.86 29.85,-27.29l4.54 -3.73 -6.35 -11.99c-2.2,-4.15 -4.44,-8.35 -6.63,-12.54l-4.12 -8.07 -7.06 5.74c-12.3,10.18 -24.31,21.04 -35.68,32.45 -92.78,92.78 -143.88,216.25 -143.88,347.74 0,23.86 1.72,47.93 5.13,71.43l0.26 1.83 1.08 1.48c9.63,13.01 19.34,25.81 29.22,38.51l20.8 26.62 -7.87 -32.8c-8.32,-35.04 -12.6,-71.08 -12.6,-107.06z"/>
   <path class="fil1" d="M1164.2 3371.73c3.49,-3.5 6.8,-7.04 10.07,-10.64l6.01 -6.5 -7.53 -4.67c-6.18,-3.78 -12.31,-7.62 -18.39,-11.49l-5.11 -3.2 -6.61 6.92c-1.26,1.36 -2.56,2.8 -3.92,4.11 -63.68,63.7 -148.44,98.83 -238.51,98.83 -90.08,0 -174.81,-35.13 -238.5,-98.83 -131.55,-131.54 -131.55,-345.51 0.05,-477.01 1.78,-1.86 3.72,-3.67 5.61,-5.44l5.92 -5.49 -3.27 -5.16c-3.87,-6.07 -7.71,-12.25 -11.49,-18.38l-4.67 -7.6 -6.57 6.02c-3.69,3.45 -7.4,6.91 -11.09,10.56 -145.55,145.53 -145.55,382.39 0,527.97 70.53,70.51 164.28,109.33 264.01,109.33 99.74,0 193.49,-38.82 264,-109.33z"/>
   <path class="fil1" d="M741.76 2957.1l-3.6 -4.9c-4.37,-5.84 -8.64,-11.73 -12.92,-17.7l-5.2 -7.2 -6.09 6.53c-94.25,100.89 -91.6,256.45 6.01,354.16 48.16,48.1 112.16,74.68 180.25,74.68 64.63,0 126.3,-24.31 173.59,-68.34l6.49 -6.09 -11.51 -8.4c-4.43,-3.17 -8.83,-6.34 -13.11,-9.6l-4.83 -3.62 -4.49 4.07c-40.11,35.99 -92.01,55.91 -146.14,55.91 -58.49,0 -113.46,-22.75 -154.79,-64.06 -82.24,-82.28 -85.64,-214.5 -7.7,-301.01l4.04 -4.43z"/>
   <path class="fil1" d="M3088.96 3563.48c-121.79,0 -236.24,-47.37 -322.25,-133.47 -8.91,-8.89 -17.7,-18.53 -26.78,-29.23l-3.82 -4.57 -7.72 4.1c-5.59,3.02 -11.19,5.99 -16.81,8.87l-8.12 4.19 5.85 6.98c10.09,12.23 20.81,24.01 31.88,35.14 92.94,92.89 216.39,144.02 347.77,144.02 23.9,0 48.14,-1.74 72.05,-5.21l1.8 -0.26 1.5 -1.07c12.95,-9.71 25.81,-19.43 38.48,-29.42l26.71 -20.82 -32.93 8.01c-35.13,8.4 -71.36,12.76 -107.62,12.76z"/>
   <path class="fil1" d="M3400.84 2727.62l-6.96 -5.82 -4.14 8.07c-2.51,4.86 -5.08,9.64 -7.61,14.41l-5.36 10.13 4.54 3.79c10.98,9.24 20.76,18.16 29.85,27.31 113,112.94 158.03,273.53 120.51,429.52l-7.87 32.88 20.81 -26.71c9.92,-12.68 19.65,-25.57 29.23,-38.51l1.12 -1.46 0.28 -1.86c22.37,-153.4 -29.41,-310.14 -138.56,-419.39 -11.31,-11.27 -23.34,-22.17 -35.84,-32.37z"/>
   <path class="fil1" d="M3341.85 2833.24l-6.57 -6.03 -4.69 7.56c-3.79,6.13 -7.62,12.32 -11.47,18.44l-3.23 5.11 5.54 5.22c2.02,1.88 4.06,3.73 5.97,5.73 131.52,131.47 131.52,345.44 0,476.98 -63.69,63.7 -148.38,98.75 -238.45,98.75 -90.13,0 -174.85,-35.05 -238.51,-98.75 -1.47,-1.43 -2.79,-2.91 -4.21,-4.39l-6.3 -6.66 -5.13 3.21c-5.69,3.64 -11.46,7.21 -17.27,10.78l-8.76 5.36 6.09 6.59c3.32,3.55 6.59,7.13 10.06,10.56 70.47,70.51 164.3,109.35 264.03,109.35 99.66,0 193.42,-38.84 263.94,-109.35 145.56,-145.56 145.56,-382.44 0,-527.97 -3.64,-3.59 -7.32,-7.06 -11.06,-10.5z"/>
   <path class="fil1" d="M3088.96 3362.68c68.01,0 132.06,-26.58 180.21,-74.69 97.65,-97.7 100.28,-253.25 5.96,-354.15l-6.09 -6.5 -6.96 9.68c-3.68,5.09 -7.4,10.21 -11.12,15.19l-3.61 4.83 4.03 4.47c77.95,86.52 74.52,218.73 -7.7,300.93 -41.32,41.38 -96.33,64.15 -154.72,64.15 -54.12,0 -106.07,-19.91 -146.14,-55.9l-4.52 -4.09 -4.79 3.62c-3.92,2.89 -7.87,5.81 -11.84,8.63l-12.86 9.4 6.49 6.07c47.35,44.03 109.02,68.34 173.67,68.34z"/>
   <path class="fil1" d="M340.67 2698.42l-26.7 -5.25c-58.83,-11.47 -116,-30.61 -169.95,-56.88l-15.79 -7.67 5.64 16.59c2.77,8.26 5.73,16.45 8.63,24.66l2.38 6.64 2.85 1.23c42.94,19.42 87.77,34.61 133.43,45.25 -24.82,39.74 -45.8,82.2 -62.49,126.42l-1.11 2.85 1.32 2.84c4.27,8.95 8.63,17.92 13.04,26.95l7.77 15.72 5.73 -16.65c19.46,-56.53 46.41,-110.44 79.99,-160.17l15.25 -22.53z"/>
   <path class="fil1" d="M1314.75 3693.99l-5.2 -26.67 -22.59 15.23c-49.96,33.8 -104.21,60.87 -161.19,80.38l-16.62 5.75 15.72 7.81c8.91,4.38 17.86,8.78 26.9,13.06l2.81 1.32 2.91 -1.08c44.44,-16.75 87.23,-37.89 127.45,-62.96 10.79,46.1 26.2,91.43 45.88,134.84l1.3 2.8 2.88 1.08c9.44,3.39 18.92,6.77 28.38,9.95l16.71 5.7 -7.75 -15.82c-26.6,-54.2 -45.95,-111.87 -57.59,-171.39z"/>
   <path class="fil1" d="M3675.03 2693.24l-26.64 5.14 15.17 22.57c33.5,49.72 60.38,103.69 80,160.55l5.7 16.55 7.83 -15.77c4.33,-8.89 8.73,-17.84 13.01,-26.89l1.29 -2.83 -1.11 -2.88c-16.66,-44.27 -37.71,-86.8 -62.48,-126.58 45.65,-10.66 90.52,-25.93 133.57,-45.35l2.87 -1.24 3.05 -8.65c2.69,-7.51 5.35,-15.07 7.95,-22.64l5.64 -16.65 -15.8 7.73c-53.89,26.27 -111.11,45.43 -170.05,56.94z"/>
   <path class="fil1" d="M2702.18 3682.55l-22.57 -15.22 -5.23 26.67c-11.6,59.45 -31.02,117.06 -57.59,171.42l-7.78 15.8 16.67 -5.65c7.83,-2.61 15.58,-5.38 23.36,-8.16l7.97 -2.84 1.26 -2.85c19.72,-43.41 35.14,-88.72 45.93,-134.87 40.2,25.06 82.99,46.18 127.48,62.96l2.93 1.07 2.79 -1.31c9.02,-4.29 17.98,-8.68 26.86,-13.07l15.75 -7.81 -16.62 -5.73c-57,-19.52 -111.23,-46.6 -161.21,-80.39z"/>
   <path class="fil1" d="M2674.38 332.76l5.23 26.67 22.53 -15.2c48.53,-32.84 101.27,-59.37 156.7,-78.81l16.51 -5.84 -15.71 -7.71c-8.87,-4.37 -17.88,-8.66 -26.77,-12.92l-2.91 -1.34 -2.87 1.12c-43.04,16.57 -84.37,37.13 -122.92,61.19 -10.39,-44.4 -25.1,-88.13 -43.87,-130.2l-1.66 -3.02 -2.97 -1.07c-9.25,-3.32 -18.45,-6.64 -27.79,-9.75l-16.55 -5.65 7.58 15.77c25.59,53.06 44.2,109.16 55.47,166.77z"/>
   <path class="fil1" d="M3648.51 1328.35l26.71 5.21c58.15,11.35 114.81,30.23 168.21,56.15l15.78 7.62 -5.64 -16.59c-2.93,-8.78 -6.07,-17.45 -9.18,-26.14l-1.8 -5.06 -2.88 -1.29c-42.51,-19.05 -86.78,-34.05 -131.71,-44.48 24.38,-39.08 45.11,-80.79 61.64,-124.15l1.12 -2.89 -1.35 -2.84c-4.23,-8.98 -8.59,-17.88 -12.96,-26.76l-7.74 -15.64 -5.73 16.46c-19.53,55.83 -46.14,108.93 -79.27,157.83l-15.21 22.58z"/>
   <path class="fil1" d="M313.91 1333.56l26.71 -5.3 -15.25 -22.5c-33.04,-48.86 -59.71,-101.98 -79.17,-157.83l-5.79 -16.42 -7.76 15.66c-4.35,8.84 -8.68,17.72 -12.96,26.71l-1.35 2.86 1.14 2.95c16.51,43.22 37.24,84.93 61.61,124.07 -44.92,10.44 -89.17,25.43 -131.69,44.48l-2.85 1.3 -1.07 2.93c-3.35,9.44 -6.71,18.79 -9.91,28.25l-5.72 16.63 15.83 -7.63c53.45,-25.93 110.11,-44.79 168.22,-56.16z"/>
   <path class="fil1" d="M1286.96 344.23l22.59 15.2 5.2 -26.67c11.24,-57.55 29.88,-113.64 55.5,-166.77l7.56 -15.8 -16.56 5.68c-8.35,2.83 -16.62,5.78 -24.91,8.73l-6.26 2.25 -1.27 2.87c-18.77,42.21 -33.56,85.96 -43.86,130.2 -38.69,-24.13 -80,-44.68 -122.85,-61.18l-2.96 -1.08 -2.82 1.32c-9.01,4.25 -17.94,8.51 -26.86,12.94l-15.68 7.71 16.52 5.79c55.41,19.46 108.11,45.97 156.66,78.81z"/>
   <path class="fil1" d="M446.89 1439.15c27.19,0 54.6,2 81.44,5.84l5.78 0.83 2.08 -5.45c1.86,-4.74 3.88,-9.49 5.78,-14.2l6.07 -14.63 -0.09 -0.06 1.69 -3.96c2.36,-5.62 4.79,-11.17 7.27,-16.73l3.78 -8.6 -4.67 -3.49c-21.62,-16.29 -42.45,-34.35 -61.81,-53.68 -89.98,-90.02 -146.36,-203.92 -162.99,-329.45l-2.75 -20.59 -10.79 17.72c-5.83,9.55 -11.51,19.19 -17.19,28.85l-1.36 2.3 0.43 2.67c21.77,123.05 80.26,235.04 169.2,323.96 21.52,21.54 44.73,41.51 68.97,59.48 -29.93,-4.53 -60.46,-6.81 -90.82,-6.81 -125.73,0 -246.63,38.23 -349.67,110.59l-2.22 1.55 -0.7 2.59c-2.81,10.82 -5.46,21.62 -8.1,32.5l-4.88 20.21 16.48 -12.63c101.11,-77.72 221.81,-118.82 349.1,-118.82z"/>
   <path class="fil1" d="M554.76 2649l4.64 -3.48 -2.35 -5.31c-2.97,-6.67 -5.83,-13.39 -8.63,-19.98l-2 -4.77 -5.11 -12.63c-2.21,-5.48 -4.4,-10.9 -6.59,-16.36l-2.11 -5.32 -5.73 0.75c-26.6,3.76 -53.55,5.64 -80.03,5.64 -127.77,0 -248.91,-41.37 -350.23,-119.67l-16.45 -12.68 4.8 20.18c2.59,10.82 5.21,21.73 7.99,32.53l0.64 2.57 2.24 1.6c103.33,72.92 224.77,111.53 351.02,111.53 30.06,0 60.44,-2.27 90.32,-6.79l0.57 -0.02 -0.51 0.31c-24.29,18.04 -47.31,37.93 -68.53,59.18 -89.67,89.69 -148.36,202.8 -169.58,327.2l-0.44 2.61 1.37 2.28c5.67,9.74 11.41,19.5 17.32,29.14l10.92 17.88 2.6 -20.78c15.99,-126.97 72.43,-242.11 163.27,-332.9 18.75,-18.78 39.1,-36.45 60.56,-52.71z"/>
   <path class="fil1" d="M2568.74 465.7c0,27.47 -2.01,55.22 -5.97,82.57l-0.83 5.75 5.42 2.12c5.81,2.26 11.63,4.64 17.4,7.04l11.49 4.7 0.01 -0.03 3.44 1.44c6.38,2.68 12.72,5.45 19.1,8.21l6.34 2.74 3.45 -4.64c16.42,-21.87 34.68,-43.02 54.34,-62.61 89.73,-89.8 203.35,-146.08 328.48,-162.88l20.51 -2.74 -17.67 -10.78c-8.25,-5 -16.61,-9.93 -24.98,-14.81l-6.27 -3.66 -2.7 0.42c-122.53,21.89 -234.21,80.31 -322.86,168.93 -21.61,21.62 -41.57,44.84 -59.49,68.97 4.51,-29.71 6.82,-60.21 6.82,-90.75 0,-124.94 -37.81,-245.27 -109.35,-347.95l-1.56 -2.19 -2.61 -0.69c-10.74,-2.83 -21.53,-5.4 -32.3,-8.05l-20.11 -4.89 12.5 16.46c76.82,100.73 117.39,220.84 117.39,347.32z"/>
   <path class="fil1" d="M3433.1 1378.7l-4.64 3.46 4.07 9.34c2.31,5.3 4.65,10.63 6.96,16.02l1.66 3.97 -0.06 0.05 5.32 12.88c2.19,5.28 4.43,10.6 6.55,15.95l2.07 5.44 5.8 -0.82c26.82,-3.85 54.21,-5.85 81.4,-5.85 127.29,0 247.98,41.12 349.1,118.82l16.47 12.63 -4.9 -20.2c-2.61,-10.89 -5.3,-21.7 -8.11,-32.52l-0.65 -2.58 -2.2 -1.52c-103.02,-72.39 -223.98,-110.62 -349.71,-110.62 -30.41,0 -60.93,2.28 -90.85,6.8 24.3,-17.96 47.52,-37.95 69.03,-59.49 88.87,-88.89 147.39,-200.89 169.15,-323.95l0.47 -2.67 -1.38 -2.31c-5.66,-9.65 -11.34,-19.3 -17.23,-28.86l-10.78 -17.7 -2.73 20.53c-16.63,125.53 -72.96,239.49 -163.02,329.5 -19.27,19.24 -40.09,37.36 -61.79,53.68z"/>
   <path class="fil1" d="M2682.93 3513.78c-18.49,-18.53 -36,-38.65 -52.1,-59.76l-3.42 -4.6 -8.5 3.74c-5.64,2.41 -11.24,4.9 -16.87,7.21l-5.26 2.24 0 -0.08 -14.12 5.8c-4.95,2.02 -9.84,4.03 -14.82,6.03l-5.38 2.09 0.79 5.68c3.64,26.56 5.49,53.03 5.49,78.95 0,128.6 -41.92,250.29 -121.11,352.07l-12.93 16.57 22.78 -5.54c10.13,-2.47 20.29,-4.88 30.32,-7.51l2.64 -0.61 1.51 -2.21c73.87,-103.69 112.83,-225.73 112.83,-352.76 0,-29.47 -2.21,-59.47 -6.6,-89.24l-0.21 -1.7 1.01 1.4c17.84,23.95 37.54,46.71 58.49,67.72 89.93,89.92 203.37,148.66 328.04,169.81l2.66 0.48 2.31 -1.37c9.69,-5.69 19.44,-11.5 29.02,-17.39l17.84 -10.92 -20.72 -2.55c-127.28,-15.98 -242.61,-72.48 -333.68,-163.54z"/>
   <path class="fil1" d="M1306.18 513.05c19.53,19.48 37.83,40.53 54.29,62.56l3.48 4.64 7.56 -3.28c5.94,-2.55 11.9,-5.14 17.89,-7.64l3.43 -1.48 14.25 -5.76c4.89,-2.04 9.76,-4.05 14.68,-5.95l5.35 -2.13 -0.77 -5.74c-3.99,-27.28 -5.97,-55.06 -5.97,-82.57 0,-126.48 40.6,-246.59 117.37,-347.32l12.57 -16.46 -20.11 4.92c-10.79,2.61 -21.63,5.19 -32.33,8.02l-2.64 0.69 -1.56 2.19c-71.48,102.68 -109.29,222.96 -109.29,347.95 0,30.6 2.27,61.11 6.73,90.75 -17.91,-24.21 -37.88,-47.41 -59.38,-68.89 -88.66,-88.62 -200.29,-147.06 -322.95,-169.01l-2.64 -0.42 -5.8 3.38c-8.49,4.98 -17.05,9.95 -25.43,15.09l-17.66 10.78 20.48 2.75c125.18,16.79 238.74,73.08 328.46,162.92z"/>
   <path class="fil1" d="M1420.37 3561.08c0,-25.77 1.85,-52.3 5.57,-78.88l0.79 -5.75 -5.38 -2.09c-4.84,-1.88 -9.69,-3.9 -14.5,-5.84l-14.55 -5.99 0 0.08 -5.28 -2.28c-5.38,-2.23 -10.7,-4.53 -16.04,-6.88l-9.35 -4.12 -3.5 4.64c-16.28,21.47 -33.75,41.58 -51.89,59.76 -91.1,91.11 -206.48,147.61 -333.67,163.59l-20.78 2.55 17.87 10.92c9.61,5.88 19.29,11.69 29.07,17.39l2.26 1.37 2.64 -0.48c124.64,-21.15 238.1,-79.9 328.08,-169.89 20.86,-20.85 40.46,-43.55 58.36,-67.7l1.17 -1.52 -0.28 1.89c-4.39,29.63 -6.59,59.61 -6.59,89.24 0,127.03 39,249.07 112.79,352.76l1.59 2.21 2.54 0.61c10.91,2.85 21.77,5.45 32.73,8.07l20.35 4.9 -12.88 -16.58c-79.24,-101.69 -121.11,-223.39 -121.11,-351.98z"/>
   <path class="fil1" d="M3542.23 2587.53c-26.48,0 -53.41,-1.88 -80.03,-5.63l-5.69 -0.76 -2.13 5.32c-2.52,6.41 -5.08,12.74 -7.68,19.1l-4.07 9.89 -1.94 4.77c-2.24,5.38 -4.59,10.78 -6.97,16.1l-3.96 9.19 4.58 3.48c21.56,16.34 41.89,34.06 60.58,52.71 90.58,90.56 147.03,205.74 163.19,333.15l2.6 20.73 10.95 -17.84c5.75,-9.65 11.53,-19.38 17.26,-29.09l1.33 -2.24 -0.42 -2.74c-21.42,-124.81 -80.04,-238.04 -169.41,-327.42 -21.34,-21.3 -44.41,-41.16 -68.56,-59.18l-0.5 -0.3 0.52 0.01c29.89,4.51 60.35,6.78 90.35,6.78 126.32,0 247.7,-38.61 351.01,-111.53l2.24 -1.6 0.65 -2.57c2.77,-10.8 5.37,-21.72 7.97,-32.53l4.85 -20.18 -16.46 12.68c-101.37,78.3 -222.42,119.67 -350.26,119.67z"/>
   <path class="fil1" d="M900.2 463.27c121.73,0 236.18,47.43 322.25,133.49 9.92,9.84 19.62,20.57 29.01,31.88l3.82 4.59 7.73 -4.08c5.56,-3.01 11.1,-6.01 16.73,-8.87l8.05 -4.12 -5.69 -7.02c-10.84,-13.32 -22.34,-25.98 -34.16,-37.85 -92.91,-92.9 -216.4,-144.02 -347.73,-144.02 -21.28,0 -43.32,1.44 -65.53,4.39l-1.86 0.27 -1.49 1.11c-12.73,9.32 -25.33,18.81 -37.73,28.47l-26.09 20.11 32.16 -7.16c33.11,-7.47 66.95,-11.18 100.53,-11.18z"/>
   <path class="fil1" d="M589.67 1300.35l7.04 5.7 4.16 -8.03c2.85,-5.61 5.86,-11.18 8.8,-16.75l4.1 -7.73 -4.59 -3.82c-11.07,-9.23 -21.58,-18.81 -31.25,-28.48 -86.08,-86.05 -133.47,-200.5 -133.47,-322.26 0,-33.78 3.83,-67.91 11.37,-101.34l7.27 -32.04 -20.2 25.94c-9.68,12.42 -19.2,25.03 -28.58,37.71l-1.12 1.54 -0.26 1.83c-3.02,22.46 -4.53,44.78 -4.53,66.37 0.01,131.37 51.19,254.9 144.06,347.79 11.72,11.69 24.23,23 37.19,33.58z"/>
   <path class="fil1" d="M648.8 1195l6.59 6.02 4.64 -7.58c3.78,-6.15 7.62,-12.32 11.49,-18.38l2.52 -5.89 -4.48 -4.21c-2.66,-2.45 -5.27,-4.9 -7.85,-7.49 -63.68,-63.65 -98.79,-148.36 -98.79,-238.49 0,-90.13 35.1,-174.8 98.79,-238.51 63.69,-63.68 148.36,-98.77 238.5,-98.77 90.13,0 174.84,35.12 238.51,98.86 2.97,2.95 5.81,5.98 8.65,8.99l4.08 4.47 5.16 -3.21c6.13,-3.87 12.26,-7.73 18.43,-11.5l7.57 -4.64 -5.92 -6.56c-4.07,-4.43 -8.21,-8.8 -12.48,-13.07 -70.51,-70.53 -164.25,-109.38 -264,-109.38 -99.73,0 -193.48,38.84 -264.01,109.38 -70.49,70.52 -109.33,164.25 -109.33,263.95 0,99.74 38.84,193.47 109.33,264.03 4.16,4.1 8.35,8.04 12.6,11.99z"/>
   <path class="fil1" d="M1076.18 734.67c-47.64,-45.47 -110.12,-70.57 -175.98,-70.57 -68.08,0 -132.14,26.54 -180.25,74.68 -48.12,48.12 -74.67,112.13 -74.67,180.19 0,65.71 25,128.13 70.35,175.71l6.02 6.34 8.44 -11.52c3.12,-4.33 6.29,-8.73 9.49,-13.03l3.68 -4.85 -4.16 -4.5c-37.28,-40.45 -57.78,-93.05 -57.78,-148.14 0,-58.44 22.75,-113.42 64.08,-154.7 41.34,-41.36 96.31,-64.11 154.78,-64.11 55.21,0 107.92,20.6 148.39,58.04l4.45 4.1 4.89 -3.59c3.95,-2.96 8,-5.83 12,-8.78l12.54 -9.16 -6.3 -6.09z"/>
   <path class="fil1" d="M937 4024.69c0,0 -20.41,16.15 -42.22,3.94 -14.81,-8.29 -13.39,-22.76 -24.64,-29 -9.97,-5.61 -22.44,1.4 -22.44,1.4l-7.92 -19.73c0,0 19.18,-13.48 41.22,-1.17 15.47,8.66 16.3,24.62 24.98,29.47 9.14,5.08 20.39,-2.83 20.39,-2.83l10.63 17.91zm-27.37 50.56c0,0 -20.34,16.13 -42.24,4.02 -14.78,-8.32 -13.38,-22.78 -24.62,-29.09 -9.97,-5.54 -22.43,1.4 -22.43,1.4l-7.93 -19.68c0,0 19.2,-13.49 41.2,-1.18 15.47,8.59 16.31,24.6 24.98,29.42 9.13,5.12 20.47,-2.69 20.47,-2.69l10.58 17.79z"/>
   <path class="fil1" d="M1040.14 4197.21c-18.47,-7.99 -34.19,-22.27 -44.64,-37.18l20.43 -20.72c9.09,14.26 22.35,26.46 36.31,32.52 18.47,8.08 30.9,2.66 35.31,-7.35 4.54,-10.49 1.5,-19.2 -22.22,-41.95 -25.59,-24.44 -29.74,-43.51 -21.59,-62.16 10.32,-23.57 38.98,-37.07 72.31,-22.44 16.67,7.24 31,19.36 38.45,29.42l-19.57 20.62c-6.87,-9.09 -18.31,-20.49 -30.33,-25.65 -16.46,-7.22 -28.02,-1.42 -32.75,9.51 -4.35,10.01 1.32,19.92 19.89,37.52 29.01,28.8 32.95,46.97 24.03,67.44 -12.12,27.76 -40.73,35.7 -75.63,20.41z"/>
   <polygon class="fil1" points="1264.42,4099.26 1292.87,4109.03 1237.61,4270.4 1209.14,4260.66 "/>
   <polygon class="fil1" points="1405.21,4143.53 1414.38,4145.72 1491.26,4277.37 1516.74,4171.49 1546.02,4178.56 1505.76,4345.51 1497.98,4343.64 1419.05,4214.54 1394.24,4317.37 1365.02,4310.34 "/>
   <path class="fil1" d="M1783.18 4373.98c0,0 -23.66,11.57 -58.13,7.35 -57.33,-6.98 -90.84,-49.17 -84.75,-99.33 5.94,-48.88 51.86,-82.49 101.99,-76.38 37.17,4.54 58.07,21.05 58.07,21.05l-13.44 24.33c0,0 -21.05,-13.92 -43.03,-16.52 -39.75,-4.86 -67.13,17.23 -71.32,51.99 -4.14,33.96 18.8,62.13 53.96,66.48 28.71,3.45 50.59,-5.64 50.59,-5.64l6.05 26.67z"/>
   <polygon class="fil1" points="1906.25,4221.72 2017.1,4223.54 2016.71,4251.21 1935.85,4249.87 1935.1,4297.67 2008.34,4298.89 2007.92,4325.55 1934.65,4324.36 1933.94,4365.14 2014.79,4366.4 2014.36,4394.15 1903.4,4392.31 "/>
   <polygon class="fil1" points="2327.05,4370.36 2308.63,4239.12 2274.96,4257.82 2261.29,4234.05 2325.9,4198.24 2333.08,4197.22 2356.91,4366.09 "/>
   <path class="fil1" d="M2501.39 4188.7c-15.61,3.69 -26.01,16.79 -21.48,36.41 4.61,19.67 19.82,27.09 35.39,23.45 15.62,-3.67 25.67,-17.26 21.1,-36.62 -4.47,-19.4 -19.47,-26.86 -35,-23.24zm-12.49 133.81c31.23,-24.23 50.69,-51.96 52.39,-71.5 -3.4,7.95 -13.12,19.74 -29.42,23.48 -30.95,7.28 -55.44,-6.77 -63.61,-42.01 -7.29,-31.25 8.68,-61.1 47.47,-70.13 35,-8.13 65.29,10.7 74.27,49.26 13.19,56.55 -15.25,92.79 -58.53,132.83l-22.57 -21.93z"/>
   <path class="fil1" d="M2753.81 4244.21c15.2,-5.11 24.23,-19.22 17.73,-38.29 -6.46,-19.09 -22.36,-24.94 -37.54,-19.86 -15.12,5.16 -23.78,19.64 -17.37,38.55 6.37,18.79 22,24.78 37.18,19.6zm-0.77 -134.31c-28.68,27.19 -45.35,56.69 -45.13,76.36 2.59,-8.32 11.11,-20.92 26.97,-26.33 30.11,-10.24 55.83,1.31 67.44,35.51 10.33,30.36 -2.63,61.67 -40.26,74.46 -34.06,11.58 -66.08,-4.25 -78.8,-41.7 -18.69,-54.92 6.07,-93.8 45.19,-137.85l24.58 19.54z"/>
   <polygon class="fil1" points="2991.62,4174.94 2976.71,4142 2904.42,4174.81 2896.1,4156.51 2882.53,4033.87 2910.97,4031.34 2924.72,4135.49 2965.34,4117.04 2940.5,4062.15 2967.91,4049.77 2992.77,4104.56 3009.11,4097.14 3020.46,4122.14 3004.12,4129.51 3019.06,4162.49 "/>
   <path class="fil1" d="M3205.53 4003.67c0,0 3.43,25.8 -18.2,38.32 -14.72,8.52 -26.45,-0.16 -37.64,6.27 -9.83,5.75 -10.23,20.03 -10.23,20.03l-21 -3.29c0,0 -1.75,-23.38 20.06,-36.04 15.31,-8.9 29.52,-1.41 38.15,-6.38 9.04,-5.18 8.02,-18.96 8.02,-18.96l20.84 0.05zm-29.46 -49.42c0,0 3.41,25.79 -18.22,38.29 -14.69,8.49 -26.43,-0.14 -37.58,6.33 -9.82,5.73 -10.26,19.96 -10.26,19.96l-20.95 -3.24c0,0 -1.8,-23.38 20.08,-36.04 15.29,-8.84 29.48,-1.4 38.07,-6.35 9.04,-5.23 8.06,-19.01 8.06,-19.01l20.81 0.06z"/>
   <polygon class="fil1" points="4682.86,1962.74 4887.66,1507.57 5010.91,1507.57 4701.86,2182.72 4681.93,2225.32 4662.03,2182.72 4352.87,1507.57 4478.99,1507.57 "/>
   <polygon class="fil1" points="5392.92,1507.57 5826.23,1507.57 5826.23,1615.7 5510.52,1615.7 5510.52,1802.53 5756.23,1802.53 5756.23,1906.81 5510.52,1906.81 5510.52,2066.05 5826.23,2066.05 5826.23,2174.11 5392.92,2174.11 "/>
   <path class="fil1" d="M6383.66 1615.71l0 260.75 87.19 0c110.03,0 147.95,-58.81 147.95,-131.82 0,-73.01 -36.99,-128.93 -147.95,-128.93l-87.19 0zm-117.59 -108.14l213.36 0c177.34,0 266.43,97.69 266.43,237.07 0,91.95 -37.89,165.01 -121.36,203.84l170.63 225.63 -137.44 0 -141.25 -196.19c-18.96,1.86 -38.9,2.75 -59.77,2.75l-73 0 0 193.44 -117.59 0 0 -666.54z"/>
   <path class="fil1" d="M7742.25 2129.65c0,0 -86.28,55.92 -221.82,55.92 -225.69,0 -375.47,-147.9 -375.47,-345.18 0,-192.42 162.1,-344.16 359.28,-344.16 146.02,0 235.19,54.03 235.19,54.03l-40.77 100.54c0,0 -88.13,-43.65 -174.5,-43.65 -156.39,0 -252.19,98.63 -252.19,235.14 0,133.73 102.39,232.37 240.82,232.37 112.82,0 193.4,-45.59 193.4,-45.59l36.06 100.59z"/>
   <path class="fil1" d="M8446.64 2081.22c128.91,0 229.5,-103.31 229.5,-238.94 0,-136.52 -95.83,-239.83 -229.5,-239.83 -131.84,0 -229.46,103.31 -229.46,239.83 0,133.73 100.52,238.94 229.46,238.94zm-0.93 -585c206.64,0 356.45,145.07 356.45,344.17 0,196.33 -152.64,344.23 -356.45,344.23 -203.91,0 -355.56,-146.95 -355.56,-344.23 0,-192.42 155.5,-344.17 355.56,-344.17z"/>
   <path class="fil1" d="M9537.84 2081.22c128.97,0 229.48,-103.31 229.48,-238.94 0,-136.52 -95.79,-239.83 -229.48,-239.83 -131.84,0 -229.48,103.31 -229.48,239.83 0,133.73 100.54,238.94 229.48,238.94zm-0.95 -585c206.7,0 356.52,145.07 356.52,344.17 0,196.33 -152.71,344.23 -356.52,344.23 -203.88,0 -355.54,-146.95 -355.54,-344.23 0,-192.42 155.49,-344.17 355.54,-344.17z"/>
   <path class="fil1" d="M10433.74 1615.71l0 260.75 77.76 0c109.98,0 147.91,-58.81 147.91,-131.82 0,-73.01 -36.99,-128.93 -147.91,-128.93l-77.76 0zm0 364.97l0 193.44 -117.58 0 0 -666.54 203.85 0c177.29,0 266.42,97.69 266.42,237.07 0,139.38 -88.16,236.04 -289.16,236.04l-63.53 0z"/>
   <polygon class="fil1" points="11194.02,1507.57 11627.34,1507.57 11627.34,1615.7 11311.63,1615.7 11311.63,1802.53 11557.32,1802.53 11557.32,1906.81 11311.63,1906.81 11311.63,2066.05 11627.34,2066.05 11627.34,2174.11 11194.02,2174.11 "/>
   <path class="fil1" d="M5280.56 2890.21c-21.49,0 -37.49,-16.39 -37.49,-37.43 0,-20.42 16,-37.39 37.49,-37.39 20.95,0 37.38,16.97 37.38,37.39 0,21.04 -16.44,37.43 -37.38,37.43z"/>
   <polygon class="fil1" points="5875.02,2909.22 5982.85,2669.67 6047.7,2669.67 5885,3025.02 5864.01,3025.02 5701.33,2669.67 5767.72,2669.67 "/>
   <polygon class="fil1" points="6198.94,2669.66 6260.87,2669.66 6260.87,3020.49 6198.94,3020.49 "/>
   <polygon class="fil1" points="6456.52,2667.67 6475.99,2667.67 6693.09,2893.67 6693.09,2669.67 6755,2669.67 6755,3023.01 6738.48,3023.01 6518.37,2802.88 6518.37,3020.48 6456.52,3020.48 "/>
   <polygon class="fil1" points="7183.75,2882.29 7012.57,2882.29 7012.57,3020.48 6950.63,3020.48 6950.63,2669.67 7012.57,2669.67 7012.57,2827.37 7183.75,2827.37 7183.75,2670.11 7245.64,2670.11 7245.64,3020.48 7183.75,3020.48 "/>
   <path class="fil1" d="M7606.05 2971.62c67.82,0 120.73,-54.43 120.73,-125.76 0,-71.95 -50.39,-126.33 -120.73,-126.33 -69.36,0 -120.77,54.39 -120.77,126.33 0,70.35 52.9,125.76 120.77,125.76zm-0.51 -307.94c108.81,0 187.7,76.35 187.7,181.19 0,103.28 -80.41,181.09 -187.7,181.09 -107.34,0 -187.16,-77.36 -187.16,-181.09 0,-101.35 81.82,-181.19 187.16,-181.19z"/>
   <polygon class="fil1" points="8335.26,2909.22 8443.05,2669.67 8508.02,2669.67 8345.23,3025.02 8324.3,3025.02 8161.63,2669.67 8228.04,2669.67 "/>
   <polygon class="fil1" points="8659.23,2669.67 8887.29,2669.67 8887.29,2726.57 8721.12,2726.57 8721.12,2824.85 8871.84,2824.85 8871.84,2879.77 8721.12,2879.77 8721.12,2963.61 8887.29,2963.61 8887.29,3020.49 8659.23,3020.49 "/>
   <path class="fil1" d="M9130.91 2726.56l0 137.25 45.9 0c57.91,0 77.88,-30.95 77.88,-69.44 0,-38.39 -19.46,-67.82 -77.88,-67.82l-45.9 0zm-61.92 -56.9l112.3 0c93.37,0 140.28,51.36 140.28,124.72 0,48.45 -19.98,86.89 -63.88,107.39l89.84 118.73 -72.34 0 -74.39 -103.3c-9.95,1.01 -20.49,1.48 -31.43,1.48l-38.46 0 0 101.82 -61.92 0 0 -350.84z"/>
   <path class="fil1" d="M9570.17 2726.56l0 237.05 70.41 0c67.82,0 120.71,-49.36 120.71,-117.76 0,-68.91 -50.4,-119.29 -120.71,-119.29l-70.41 0zm-62.38 -56.9l132.23 0c108.78,0 187.63,73.35 187.63,175.23 0,100.26 -80.28,175.61 -187.63,175.61l-132.23 0 0 -350.84z"/>
   <polygon class="fil1" points="10000.91,2669.67 10228.98,2669.67 10228.98,2726.57 10062.8,2726.57 10062.8,2824.85 10213.52,2824.85 10213.52,2879.77 10062.8,2879.77 10062.8,2963.61 10228.98,2963.61 10228.98,3020.49 10000.91,3020.49 "/>
   <path class="fil1" d="M10699.72 2890.21c-21.5,0 -37.42,-16.39 -37.42,-37.43 0,-20.42 15.91,-37.39 37.42,-37.39 20.91,0 37.42,16.97 37.42,37.39 0,21.04 -16.52,37.43 -37.42,37.43z"/>
   <path class="fil1" d="M2561.66 1150.75c76.1,0 148.1,31.8 202.67,89.5 68.17,72.08 103.65,177.86 97.32,290.19 -3.64,65.94 -10.4,187.47 -153.81,438.64 -17.52,-71.58 -72.21,-204.27 -240.17,-250.19 -115.32,-31.44 -190.91,-120.68 -202.24,-238.62 -11.73,-123.12 50.51,-243.85 151.56,-293.64 48.35,-23.81 96.97,-35.88 144.66,-35.88zm228.44 65.2c-61.36,-64.89 -142.49,-100.63 -228.44,-100.63 -53.18,0 -107.07,13.3 -160.27,39.51 -115.8,57.08 -184.56,189.14 -171.18,328.76 12.77,133.21 98.07,233.98 228.18,269.55 209.73,57.24 222.02,259.31 222.43,267.85l2.72 58.84 30.15 -50.55c171.59,-287.33 179.27,-423.62 183.35,-496.87 6.83,-122.03 -32.14,-237.41 -106.94,-316.47z"/>
   <path class="fil1" d="M1960.55 3205.53l-990.57 -1838.16 617.51 0 699.89 1298.98 -326.84 539.19zm-351.9 -1873.63l-698 0 1048.09 1944.93 367.27 -605.88 2.23 -3.52 -714.55 -1326.17 -5.05 -9.36z"/>
  </g>
  <rect class="fil2" x="-0" y="-0" width="11702.69" height="4484.35"/>
 </g>
</svg>
